<?xml version="1.0" encoding="UTF-8" standalone="no"?>
<!-- Created with Inkscape (http://www.inkscape.org/) -->

<svg
   xmlns:dc="http://purl.org/dc/elements/1.1/"
   xmlns:cc="http://creativecommons.org/ns#"
   xmlns:rdf="http://www.w3.org/1999/02/22-rdf-syntax-ns#"
   xmlns:svg="http://www.w3.org/2000/svg"
   xmlns="http://www.w3.org/2000/svg"
   xmlns:sodipodi="http://sodipodi.sourceforge.net/DTD/sodipodi-0.dtd"
   xmlns:inkscape="http://www.inkscape.org/namespaces/inkscape"
   id="svg2"
   version="1.1"
   inkscape:version="0.91 r13725"
   xml:space="preserve"
   width="65.785217"
   height="76.644547"
   viewBox="0 0 65.785217 76.644548"
   sodipodi:docname="harvard-seas-logo.svg"
   inkscape:export-filename="/home/jtebert/OwnCloud/Projects/Programming/html/juliaebert.com/assets/imgs/logos/harvard-seas-logo.png"
   inkscape:export-xdpi="957.65997"
   inkscape:export-ydpi="957.65997"><metadata
     id="metadata8"><rdf:RDF><cc:Work
         rdf:about=""><dc:format>image/svg+xml</dc:format><dc:type
           rdf:resource="http://purl.org/dc/dcmitype/StillImage" /><dc:title></dc:title></cc:Work></rdf:RDF></metadata><defs
     id="defs6" /><sodipodi:namedview
     pagecolor="#ffffff"
     bordercolor="#666666"
     borderopacity="1"
     objecttolerance="10"
     gridtolerance="10"
     guidetolerance="10"
     inkscape:pageopacity="0"
     inkscape:pageshadow="2"
     inkscape:window-width="1600"
     inkscape:window-height="847"
     id="namedview4"
     showgrid="false"
     inkscape:zoom="5.6568542"
     inkscape:cx="63.517051"
     inkscape:cy="25.165055"
     inkscape:window-x="0"
     inkscape:window-y="27"
     inkscape:window-maximized="1"
     inkscape:current-layer="g10"
     fit-margin-top="1"
     fit-margin-left="1"
     fit-margin-right="1"
     fit-margin-bottom="1" /><g
     id="g10"
     inkscape:groupmode="layer"
     inkscape:label="ink_ext_XXXXXX"
     transform="matrix(1.25,0,0,-1.25,-8.6796825,107.71719)"><path
       style="fill:#100f0d;fill-opacity:1;fill-rule:nonzero;stroke:#ff0000;stroke-width:0;stroke-miterlimit:4;stroke-dasharray:none"
       d="m 9.6796875,9.0703125 0,17.8066405 63.7851565,0 0,-17.8066405 -63.7851565,0 z M 65.826172,11.9375 c 0,0 0.36914,0.0287 0.36914,0.267578 0,0 -0.125875,2.54925 0,3.03125 0,0 4.07e-4,4.679266 -0.08984,5.009766 l 0.06055,1.496094 c 0,0 0.05916,0.659703 -1.011719,0.720703 0,0 0.670359,0.088 -3.556641,-0.03125 0,0 -0.675828,-0.0313 -1.408203,0.298828 0,0 -0.158203,-0.02539 -0.158203,-0.416016 0,0 0.123,-1.410719 0,-2.792969 l -0.05078,-1.207031 c 0.03075,-0.0093 0.05078,-0.01758 0.05078,-0.01758 0,0 0.216344,-0.273359 0.339844,-0.208984 0,0 0.275437,0.388703 0.304687,0.626953 0,0 0.125453,0.599172 -0.0293,0.748047 0,0 -0.152359,0.125015 0.212891,0.18164 0,0 0.705172,0.120125 0.919922,0.03125 0,0 0.5225,-0.154328 0,-0.330078 0,0 -0.27536,-0.239687 -0.427735,-0.539062 0,0 -0.52289,-2.309485 -1.134765,-3.896485 0,0 -0.01313,-0.140594 -0.09375,-0.277344 l 0.03125,-1.912109 c 0,0 0.122656,-0.363703 0.613281,-0.423828 0,0 0.770578,-0.0908 0.892578,-0.0293 0.119625,0.061 1.7745,0.152297 2.234375,0.06055 0.462875,-0.09325 0.553766,0.296375 1.931641,-0.390625 z m -30.429688,0.01758 0.917969,0.236328 c 0.21875,0.181625 2.548828,0 2.548828,0 0.520125,0.03763 0.550781,0.722656 0.550781,0.722656 0.119625,1.620501 -0.124999,9.419922 -0.125,9.419922 -0.03263,0.44875 -0.40039,0.08594 -0.40039,0.08594 -1.499,-0.05663 -2.082031,-0.02539 -2.082031,-0.02539 -0.212375,0.09088 -1.103516,0 -1.103516,0 C 34.94,22.302281 34.966797,21.851562 34.966797,21.851562 l 0.0918,-9.621093 c -0.02788,-0.242625 0.33789,-0.275391 0.33789,-0.275391 z m 8.828125,0.05469 c 0.231416,-0.02605 0.25,0.125 0.25,0.125 0.061,0.119125 -0.06055,1.320312 -0.06055,1.320312 0.061,0.151375 -0.06641,8.546875 -0.06641,8.546875 -0.09125,0.482375 -0.396484,0.332031 -0.396484,0.332031 -0.396375,0.299875 -2.357422,0.117188 -2.357422,0.117188 -0.61525,-0.08737 -1.597656,0.152344 -1.597656,0.152344 -0.15625,0.17775 -0.337891,-0.08984 -0.337891,-0.08984 l 0.125,-1.320313 0.05664,-3.80664 c -0.02938,-0.152375 0.06445,-4.683594 0.06445,-4.683594 0.06012,-0.473625 1.160156,-0.449219 1.160156,-0.449219 2.914,0.09475 2.851563,-0.146484 2.851563,-0.146484 0.131843,-0.06069 0.231455,-0.08897 0.308593,-0.09766 z M 17.0625,12.0254 l 0.919922,0.24414 c 0.213875,0.175875 2.542969,0 2.542969,0 0.5225,0.02937 0.554687,0.722657 0.554687,0.722657 0.120625,1.616125 -0.125,9.408203 -0.125,9.408203 -0.03175,0.456125 -0.40039,0.0918 -0.40039,0.0918 -1.496626,-0.05625 -2.082032,-0.02734 -2.082032,-0.02734 -0.213875,0.08938 -1.103515,0 -1.103515,0 -0.766625,-0.08737 -0.736329,-0.542969 -0.736329,-0.542969 l 0.09375,-9.623047 C 16.692312,12.060953 17.0625,12.025391 17.0625,12.025391 Z m 36.902344,0.002 c 0.07312,-0.0029 0.170781,0.01158 0.300781,0.05664 0,0 0.183063,0.336344 1.195313,0.183594 0,0 0.737281,0.119672 1.441406,0.0293 0,0 1.569344,-0.117125 1.964844,0 0,0 0.613781,-0.117187 0.800781,0.539063 l -0.03125,1.859374 0.01367,0.04883 c -0.01463,0.03962 -0.03125,0.07472 -0.04687,0.105468 0,0 -0.980563,3.900844 -1.132813,4.105469 0,0 -0.09327,0.359953 -0.431641,0.423828 0,0 -0.187125,0.209 0.09375,0.265625 0,0 0.582047,0.179735 0.763672,-0.05664 0,0 0.212375,0.118187 0,-0.632813 0,0 0.152344,-0.896484 0.527344,-0.896484 0,0 0.212391,0.120156 0.244141,0.238281 0.0049,0.019 0.01608,0.03277 0.0332,0.04102 0,0.2745 -0.0098,0.689906 -0.06445,1.097656 -0.04888,0.3715 0.119172,2.132344 -0.0332,3.027344 0,0 -0.02933,0.297797 -0.673828,0.0293 0,0 -3.92575,0.08645 -4.046876,-0.0293 0,0 -1.07564,0.02891 -1.166015,-0.511719 0,0 0.154375,-4.104985 0.0625,-4.25586 0,0 -0.0635,-2.247609 0,-2.458984 0,0 0.09234,-2.075219 0.02734,-2.308594 0,0 0.0337,-0.483406 -0.06055,-0.722656 0,0 -6.25e-4,-0.169015 0.21875,-0.177734 z m -28.070313,0.01758 c 0.228586,-0.02443 0.248047,0.126953 0.248047,0.126953 0.0585,0.121625 -0.06641,1.320313 -0.06641,1.320313 0.066,0.149875 -0.06055,8.546874 -0.06055,8.546874 -0.08888,0.4755 -0.398438,0.328126 -0.398437,0.328126 -0.397,0.301749 -2.355469,0.11914 -2.355469,0.11914 -0.619125,-0.09088 -1.59961,0.152344 -1.59961,0.152344 -0.152875,0.176375 -0.335937,-0.08789 -0.335937,-0.08789 l 0.125,-1.324219 0.05859,-3.80664 c -0.03025,-0.149375 0.0625,-4.677734 0.0625,-4.677734 0.061,-0.48 1.162109,-0.449219 1.162109,-0.449219 2.914,0.09037 2.855469,-0.154297 2.855469,-0.154297 0.12975,-0.05956 0.228492,-0.08561 0.304687,-0.09375 z m 7.806641,0.199219 c 0.208191,-0.0049 0.253906,0.193359 0.253906,0.193359 -0.4005,0.598125 -0.306641,2.070312 -0.30664,2.070312 0,0 -0.05705,-0.266515 -0.0293,-0.11914 0.02938,0.151 -0.02734,8.605469 -0.02734,8.605469 0.05712,0.93025 0.701172,0.722656 0.701172,0.722656 l 3.986328,0.05664 c 0.36875,0 0.400391,0.240234 0.400391,0.240234 0,0.30125 -0.250001,0.267578 -0.25,0.267578 l -4.78125,0 c -0.615251,-0.02688 -0.552735,-0.474609 -0.552735,-0.474609 l 0,-1.142579 c 0.03075,-0.597749 -0.613281,-0.71875 -0.613281,-0.71875 -0.88625,0.177251 -1.105469,-0.365234 -1.105469,-0.365234 -0.02688,-0.6235 1.015625,-0.570312 1.015625,-0.570312 0.857875,0 0.613281,-0.744141 0.613281,-0.744141 l 0.06055,-4.527344 c -0.061,-0.450625 -1.164062,-0.451172 -1.164062,-0.451172 -0.704625,0.11675 -0.525391,-0.542968 -0.525391,-0.542968 0.34175,-0.328125 1.078125,-0.298829 1.078125,-0.298829 0.640625,0.03513 0.640625,-0.652343 0.640625,-0.652343 l 0.03125,-1.232422 c 0.2655,-0.236203 0.449304,-0.31348 0.574219,-0.316406 z m 34.234375,0.06445 c 0.135984,-0.0055 0.272453,0.01614 0.314453,0.111328 0,0 0.244625,0.718797 0.03125,1.138672 0,0 -0.06306,0.867187 0.398438,0.867187 0,0 0.185062,0.182578 0.554687,0.0957 0,0 0.794922,0.08538 0.794922,0.328125 0,0 -3.1e-5,0.536641 -0.550781,0.447266 l -0.738282,0.06055 c 0,0 -0.490234,0.09278 -0.427734,0.660156 0.05962,0.565875 -0.03125,4.650391 -0.03125,4.650391 0,0 -0.0014,0.476062 0.767578,0.445312 0,0 0.951172,-0.02497 0.951172,0.238281 0,0 0.242656,0.605891 -0.433594,0.634766 0,0 -1.284734,-0.02884 -1.193359,0.332031 0,0 -0.0918,0.840829 -0.154297,0.986329 0,0 0.125531,0.688046 -0.02734,0.810546 0,0 -0.09467,0.388282 -0.919922,0.332032 0,0 -5.277312,-0.03266 -6.101562,0.02734 0,0 -0.494641,-0.05955 -0.369141,-0.482421 0,0 0.368625,-0.178188 0.609375,-0.117188 0.249,0.05913 3.835938,-0.02734 3.835938,-0.02734 0,0 1.562515,0.118172 1.80664,-0.0957 l 0.369141,-0.119141 c 0,0 0.152344,-0.182093 0.152344,-0.417968 0,-0.23975 0.03516,-1.046875 0.03516,-1.046875 l 0.08789,-0.306641 c 0,0 -0.03075,-0.293484 0,-8.302734 0,0 0.122609,-0.631406 -0.275391,-1.019532 0,0 0.001,-0.239781 0.123047,-0.207031 0.0625,0.01462 0.07813,0.02139 0.07813,0.02539 0.04156,-0.0105 0.176515,-0.04337 0.3125,-0.04883 z m -52.568359,0.0098 c 0.208508,-0.0042 0.255859,0.195313 0.255859,0.195313 -0.398,0.599125 -0.310547,2.068359 -0.310547,2.068359 0,0 -0.05964,-0.271937 -0.02539,-0.117187 0.02538,0.143 -0.0332,8.603515 -0.0332,8.603515 0.05962,0.92725 0.705078,0.716797 0.705078,0.716797 l 3.982422,0.05859 c 0.368625,0 0.402344,0.240234 0.402344,0.240234 0,0.30325 -0.246094,0.273438 -0.246094,0.273438 l -4.785156,0 c -0.610375,-0.03425 -0.548828,-0.480469 -0.548828,-0.480469 l 0,-1.140625 c 0.02925,-0.600625 -0.613281,-0.722656 -0.613281,-0.722656 -0.890125,0.182625 -1.103516,-0.357422 -1.103516,-0.357422 -0.02825,-0.626 1.013672,-0.570312 1.013672,-0.570312 0.857875,0 0.609375,-0.746094 0.609375,-0.746094 l 0.0625,-4.529297 c -0.061,-0.44925 -1.166016,-0.449219 -1.166016,-0.449219 -0.708,0.121625 -0.519531,-0.541016 -0.519531,-0.541016 0.339375,-0.327625 1.074219,-0.296874 1.074219,-0.296874 0.642125,0.02725 0.642578,-0.660157 0.642578,-0.660157 l 0.0293,-1.230469 c 0.266437,-0.236578 0.449114,-0.311907 0.574219,-0.314453 z m 30.523437,0.002 c 0.07312,-0.01966 0.170781,-0.01526 0.300781,0.0293 0,0 0.459438,0.0307 0.335938,0.720703 l 0.02734,1.046876 c 0,0 -0.08839,0.454999 0.740234,0.328124 0,0 0.82525,0.126454 0.859375,0.423829 0,0 0.243187,0.599031 -0.742188,0.535156 l -0.699218,0 c 0,0 -0.307719,0.183515 -0.214844,0.541015 l -0.09375,4.34961 c 0,0 -0.06397,0.751969 0.675781,0.714844 0,0 0.771047,-0.02695 0.919922,0.216796 0,0 0.520469,0.747579 -0.613281,0.689454 0,0 -0.704125,-0.03211 -0.859375,0.08789 0,0 -0.124047,0.149469 -0.216797,1.558594 0,0 0.06442,0.840328 -0.580078,0.751953 0,0 -4.268141,0.05667 -4.666016,-0.0332 0,0 -0.424781,0.120563 -0.488281,-0.210938 0,0 -4.85e-4,-0.236328 0.43164,-0.236328 l 4.291016,-0.02734 c 0,0 0.402344,0.206578 0.402344,-0.513672 0,0 0.154328,-3.266641 0.173828,-6.869141 0,-1.066875 0.05027,-2.193328 0.0098,-3.236328 0,0 -0.09659,-0.446312 -0.214844,-0.539062 0,0 0.0013,-0.269133 0.220703,-0.328126 z m 6.261719,0.04102 c 0,0 0.766484,0.02683 0.552734,0.236328 0,0 -0.36864,0.66025 -0.33789,0.8125 l -0.03125,2.003906 c 0,0 -0.03175,1.293907 0,1.441407 0.03075,0.151375 -0.03125,3.929687 -0.03125,3.929687 0,0 -0.03025,0.722688 0,0.960938 l 0,1.617187 c 0,0 -0.06152,0.717688 0.490234,0.539063 0,0 5.395953,-0.119594 5.736328,-0.02734 0,0 0.486812,0.09137 0.304688,0.328125 0,0 5.15e-4,0.212438 -0.333985,0.148437 0,0 -2.547359,0.238766 -4.849609,0.150391 0,0 -1.528344,0.08836 -1.621094,-0.08789 0,0 -0.248047,-0.03064 -0.248047,-0.90039 0,0 4.53e-4,-0.80861 -0.06055,-0.958984 0,0 0.06097,-0.419438 -0.707031,-0.507813 0,0 -1.070359,0.176297 -1.099609,-0.455078 0,0 0.151312,-0.44775 1.195312,-0.390625 0,0 0.766078,0.12489 0.611328,-0.47461 l 0.0918,-4.4375 c 0,0 0.09336,-0.779328 -0.431641,-0.814453 0,0 -0.486874,-0.02484 -0.640624,0.03516 0,0 -0.888672,-5e-4 -0.826172,-0.515625 0,0 0.306562,-0.536641 1.195312,-0.416016 0,0 0.67275,0.123047 0.703125,-0.626953 0,0 -0.03086,-1.531344 0.337891,-1.589844 z m -24.59961,0.03125 c 0.07383,-0.02005 0.171485,-0.01684 0.302735,0.02734 0,0 0.460969,0.03116 0.339843,0.722656 l 0.02734,1.048828 c 0,0 -0.09184,0.450657 0.738282,0.332032 0,0 0.825671,0.11864 0.857421,0.416015 0,0 0.246172,0.601469 -0.736328,0.542969 l -0.705078,0 c 0,0 -0.308141,0.180156 -0.212891,0.535156 l -0.0957,4.34961 c 0,0 -0.06052,0.750874 0.677735,0.71875 0,0 0.76464,-0.02686 0.916015,0.21289 0,0 0.520594,0.7485 -0.613281,0.6875 0,0 -0.70214,-0.03178 -0.853516,0.08984 0,0 -0.127421,0.151765 -0.216796,1.55664 0,0 0.06247,0.843782 -0.582032,0.753907 0,0 -4.264109,0.06095 -4.662109,-0.0293 0,0 -0.425203,0.120187 -0.486328,-0.210938 0,0 4.53e-4,-0.242187 0.423828,-0.242187 l 4.298828,-0.02734 c 0,0 0.394531,0.206531 0.394531,-0.511719 0,0 0.155829,-3.265687 0.173828,-6.867187 0.004,-1.069375 0.05127,-2.190906 0.0098,-3.238281 0,0 -0.09563,-0.445735 -0.21875,-0.53711 0,0 0.0012,-0.269926 0.222656,-0.330078 z m 17.576172,0.0059 c 0.305895,0.102568 0.478516,0.910156 0.478516,0.910156 l -0.125,9.02539 c -0.02938,0.305625 -0.0918,0.480469 -0.0918,0.480469 C 44.99025,22.902328 44.75,22.066406 44.75,22.066406 l 0.0293,-9.480468 c 0.13,-0.178969 0.247644,-0.22169 0.349609,-0.1875 z m 21.664063,0.05273 c 0.09888,0.01442 0.197265,0.08789 0.197265,0.08789 l 0.371094,0.660157 c -0.08938,0.4805 0,0.777343 0,0.777343 l -0.06055,8.636719 c 0.08787,0.69 -0.248047,0.300781 -0.248047,0.300781 -0.180625,-0.08888 -0.548828,-0.779296 -0.548828,-0.779296 l 0.02734,-0.212891 0.06445,-9.201172 c 0,-0.238812 0.09839,-0.283953 0.197266,-0.269531 z m -39.998047,0.01953 c 0.30658,0.101074 0.478516,0.912109 0.478516,0.912109 l -0.125,9.025391 c -0.02937,0.29875 -0.08984,0.476563 -0.08984,0.476563 -0.399375,0.09275 -0.644531,-0.75 -0.644532,-0.75 l 0.03125,-9.472657 c 0.131219,-0.180187 0.247417,-0.225097 0.34961,-0.191406 z m 7.802734,0.02539 c 0,0 0.06641,0.599625 0.06641,0.75 0,0.152375 -0.09375,8.669922 -0.09375,8.669922 0,0 0.09381,0.656203 -0.492187,0.986328 0,0 -0.153797,0.06345 -0.185547,-0.357422 l 0.0625,-8.996094 c 0,0 0.06158,-1.110359 0.642578,-1.052734 z m 18.597656,0.04297 c 0,0 0.211969,0.0016 0.183594,0.361329 l -0.0625,9.05664 c 0,0 0.09139,0.597688 -0.427734,0.992188 0,0 -0.279297,0.320797 -0.279297,-0.189453 l 0.125,-9.232422 c 0,0 0.03031,-0.689531 0.460937,-0.988282 z m -36.929687,0.0332 c 0,0 0.06055,0.600125 0.06055,0.75 0,0.149 -0.09375,8.664062 -0.09375,8.664062 0,0 0.09372,0.662188 -0.488281,0.992188 0,0 -0.153344,0.05805 -0.183594,-0.361328 l 0.0625,-8.998047 c 0,0 0.06545,-1.105375 0.642578,-1.046875 z m 39.134766,2.185546 -0.183594,0.03125 -0.277344,0.720704 0,0.234375 c 0.21725,0.484375 0.3125,0.0332 0.3125,0.0332 l 0.458985,-0.419922 0.36914,-0.02539 c 0.211375,0.083 0.152344,0.41211 0.152344,0.41211 -0.06737,0.154875 -0.06836,2.673828 -0.06836,2.673828 0.03325,0.537125 -0.11914,0.751953 -0.11914,0.751953 -0.42725,0.53625 0,0.537109 0,0.537109 0.187,-0.03037 0.951172,0.02539 0.951172,0.02539 0.368625,0.03175 0.216797,-0.386719 0.216797,-0.386719 -0.184,-0.119125 -0.310547,-0.449219 -0.310547,-0.449219 l 0.03125,-0.478515 c 0.09425,-0.299875 0,-2.519531 0,-2.519531 0.03312,-0.690501 0.43164,-0.484376 0.43164,-0.484376 0.122,0.33 0.369141,0.419922 0.369141,0.419922 0.399,-0.08987 0.304688,-0.777343 0.304687,-0.777343 0.0625,-0.2675 -0.152343,-0.298829 -0.152343,-0.298829 l -0.521485,0.236329 -1.441406,0 c -0.24275,-0.05763 -0.523437,-0.236329 -0.523437,-0.236329 z m 9.0625,0.191407 c -0.06544,0.01552 -0.151,0.05592 -0.257813,0.138672 0,0 -0.399016,0.149375 -0.49414,0 0,0 -1.16411,-0.09325 -1.19336,1.140625 0,0 -0.124937,0.840906 1.164063,1.378906 0,0 0.951172,0.450156 0.888671,1.019531 0,0 -0.12164,1.018063 -1.134765,0.507813 0,0 -0.48736,-0.238813 -0.458985,-0.507813 0,0 -0.157718,-0.329609 -0.339843,-0.271484 0,0 -0.209516,0.06258 -0.119141,1.048828 0,0 -1.5e-5,0.3965 0.458984,0 l 0.244141,0.05859 c 0,0 0.830625,0.662062 1.53125,-0.148438 0,0 0.7705,-0.687516 0.21875,-1.525391 0,0 -0.399515,-0.606468 -1.103515,-0.902343 0,0 -0.675876,-0.303688 -0.828126,-0.804688 0,0 0.212391,-0.908656 1.041016,-0.425781 0,0 0.30861,0.360906 0.490234,0.425781 0,0 0.243766,4.85e-4 0.181641,-0.541015 l -0.0625,-0.453125 c 0,0 -0.03025,-0.185219 -0.226562,-0.138672 z m -22.929688,0.203125 c 0,0 -0.606953,0.03406 -0.517578,0.273437 l 0.273437,0.59961 0,2.970703 c 0,0 -0.09036,0.534625 -0.396484,0.6875 0,0 -0.09366,0.299281 0.183594,0.332031 l 0.890625,-0.03125 c 0,0 0.33789,0.05811 0.337891,-0.212891 0,0 -0.246516,-0.270547 -0.306641,-0.419922 0,0 -0.03025,-2.848609 0,-3.177734 l 0.121094,-0.384766 c 0,0 0.372125,-0.181046 0.15625,-0.513671 0,0 -0.218719,-0.08888 -0.433594,-0.0625 l -0.308594,-0.06055 z m -5.353515,0.03516 c -0.138625,-0.0032 -0.283954,0.0127 -0.314454,0.08789 0,0 -0.06591,0.267656 0.152344,0.300781 0,0 0.246094,0.271391 0.246094,0.416016 l -0.0332,1.261718 0.0332,1.742188 c 0,0 -0.03322,0.388656 -0.277344,0.535156 0,0 -0.186625,0.299875 0,0.390625 l 0.982422,0.09375 c 0,0 0.305172,-0.185 0.123047,-0.421875 l -0.277344,-0.449219 0.06055,-0.93164 c 0,0 0.184469,-0.209922 0.277344,-0.0918 l 1.101562,1.679687 c 0,0 0.491282,0.329125 0.613282,0 0,0 0.03416,-0.117203 -0.121094,-0.236328 l -0.888672,-1.378906 0.06055,-0.482422 c 0,0 0.949219,-0.359344 0.855469,-1.230469 0,0 0.18839,-0.86464 -1.03711,-1.259765 l -1.287109,0 c 0,0 -0.130907,-0.02222 -0.269531,-0.02539 z m -12.017579,0.05469 c -0.02995,-0.01154 -0.06312,-0.01245 -0.101562,0.002 0,0 -1.041969,0.151875 -1.167969,0.03125 l -0.826172,0.0918 c 0,0 -0.122984,0.296921 0.244141,0.451171 0,0 0.09375,0.05458 0.09375,0.173829 l -0.03516,3.183593 -0.08984,0.236328 c 0,0 -0.307672,0.388594 -0.0918,0.417969 0,0 -0.273906,0.186516 1.964844,0.212891 0,0 0.856453,0.150359 0.642578,-0.931641 0,0 -0.09331,-0.386187 -0.398438,0.179688 0,0 -0.09373,0.479984 -1.193359,0.333984 0,0 -0.248047,-0.213344 -0.248047,-0.449219 l 0,-1.322265 c 0,0 -0.03077,-0.328157 0.490234,-0.300782 0,0 0.577625,0.364188 0.671876,0.210938 0,0 0.217375,-0.478969 0,-0.777344 0,0 -0.274891,-0.03023 -0.306641,0.08789 0,0 -0.180172,0.363765 -0.701172,0.15039 0,0 -0.245094,-0.48489 -0.08984,-0.86914 0,0 -0.06397,-0.748531 0.457031,-0.691407 0,0 0.613282,0.124079 0.675782,0.298829 0,0 0.149437,0.363328 0.304687,-0.06055 l -0.154297,-0.507813 c 0,0 -0.05077,-0.117732 -0.140625,-0.152343 z m -6.910156,0.0332 c -0.428625,0.03175 -0.183594,0.361328 -0.183594,0.361328 l 0.396485,0.265625 c 0.062,0.123 1.261718,3.8125 1.261718,3.8125 0.521375,0.48 0.582032,-0.121094 0.582032,-0.121094 0.367125,-0.598125 1.041015,-3.509766 1.041015,-3.509766 L 20.625,15.515625 c -0.09375,-0.24125 -0.738281,-0.181641 -0.738281,-0.181641 -0.278375,0.03175 -0.08984,0.330078 -0.08984,0.330078 l 0.183594,0.632813 -0.615235,2.126953 c -0.212375,0.50975 -0.398437,-0.179687 -0.398437,-0.179687 -0.643,-1.8335 -0.703125,-2.304688 -0.703125,-2.304688 0.48825,-0.3315 0.121094,-0.632812 0.121094,-0.632812 l -1.132813,-0.03125 z m 20.068359,0.30664 c 0.168969,-0.016 0.353016,-0.0088 0.416016,0.08203 0.1205,0.1835 0.887719,0.838922 0.121094,1.560547 0,0 -0.338375,0.628438 -0.921875,0.179688 0,0 0.0015,-0.902266 -0.02539,-1.556641 l 0.08789,-0.210937 c 0,0 0.153297,-0.03869 0.322265,-0.05469 z m 22.498047,0.646485 0.148438,0.177734 c 0,0 0.34375,0.900906 0.34375,1.050781 0,0.149875 -0.03217,0.298828 -0.216797,0.298828 -0.183125,0 -0.669922,-0.0293 -0.669922,-0.0293 l -0.191406,-0.298828 c 0,0 0.215297,-0.843828 0.248047,-0.986328 l 0.33789,-0.21289 z m 6.580079,6.259765 c 0.0373,0.0069 0.07497,0.03025 0.105468,0.08203 l 0.458985,0.66211 c 0,0 0.02781,0.29875 -0.492188,0.265625 0,0 -4.994141,7.8e-5 -5.150391,0.0332 0,0 -0.948765,0.146469 -0.853515,-0.363281 0,0 0.546844,-0.356453 0.761719,-0.298828 0,0 2.789062,0.175172 3.648437,0.0293 0.855875,-0.153375 0.337891,-0.0293 0.337891,-0.0293 0,0 0.733922,-5.78e-4 0.951172,-0.267579 0,0 0.120519,-0.1339 0.232422,-0.113281 z m -12.775391,0.02148 c 0,0 0.428266,0.44975 1.134765,0.421875 l 4.171876,0.05469 c 0,0 0.456562,0.03411 0.429687,0.271484 0,0 -0.06306,0.36036 -0.617187,0.240235 l -5.025391,-0.0625 -0.548828,0.03711 c -0.346625,-0.05712 -0.02831,-0.471234 0.210937,-0.755859 l 0.244141,-0.207031 z m -36.957031,0.164062 c 0.121125,0.02737 0.703125,0.175781 0.703125,0.175781 0.244125,0.063 3.066406,0.03516 3.066406,0.03516 0.89025,0.48 0,0.685546 0,0.685546 l -0.855469,-0.179687 -3.160156,0 c -0.46,0.09188 -0.337891,-0.328125 -0.337891,-0.328125 0.278375,-0.50925 0.583985,-0.388672 0.583985,-0.388672 z m 18.332031,0.01367 c 0.126,0.03025 0.705078,0.179688 0.705078,0.179688 0.244125,0.059 3.064453,0.0293 3.064453,0.0293 0.891125,0.478 0,0.691407 0,0.691407 l -0.853516,-0.183594 -3.166015,0 c -0.4565,0.09425 -0.333985,-0.324219 -0.333985,-0.324219 0.27675,-0.51275 0.583985,-0.392578 0.583985,-0.392578 z m 9.578125,0.02344 c 0.06047,0.004 0.11375,0.01391 0.144531,0.03516 0,0 0.458985,0.363265 0.458985,0.572265 0,0 -0.03361,0.272047 -0.583985,0.123047 0,0 -3.467687,0.0293 -3.648437,0.0293 0,0 -0.951703,0.210422 -0.861328,-0.330078 0,0 0.276843,-0.300781 0.464843,-0.300781 0,0 3.062438,0.2695 3.585938,-0.09375 0,0 0.258029,-0.04711 0.439453,-0.03516 z m -18.333984,0.04687 c 0.06097,0.0043 0.113031,0.01612 0.144531,0.03906 0,0 0.457031,0.356813 0.457031,0.570313 0,0 -0.02973,0.266562 -0.583984,0.117187 0,0 -3.46336,0.0332 -3.646485,0.0332 0,0 -0.951703,0.208969 -0.861328,-0.332031 0,0 0.279313,-0.296875 0.460938,-0.296875 0,0 3.068312,0.265578 3.585937,-0.0918 0,0 0.260442,-0.05196 0.44336,-0.03906 z m 33.605468,0.664063 c 0,0 0.523438,0.08841 0.523438,0.566406 0,0.484375 0.02928,0.751953 -0.277344,0.814453 -0.306125,0.06 -0.6465,-0.03562 -0.734375,-0.421875 -0.09175,-0.392625 0.06353,-0.871609 0.488281,-0.958984 z M 21.402344,23.59375 c 0.249294,0.06428 0.507812,0.636719 0.507812,0.636719 0.0625,0.603 -0.49414,0.691406 -0.49414,0.691406 -0.610375,0 -0.675782,-0.570313 -0.675782,-0.570313 -0.02925,-0.752 0.556641,-0.751953 0.556641,-0.751953 0.03448,-0.0147 0.06986,-0.01504 0.105469,-0.0059 z m 18.269531,0.01172 c 0.250778,0.06173 0.511719,0.636719 0.511719,0.636719 0.05613,0.602 -0.488282,0.689453 -0.488282,0.689453 -0.619124,0 -0.679687,-0.572266 -0.679687,-0.572266 -0.03075,-0.745625 0.550781,-0.746094 0.550781,-0.746094 0.03467,-0.01525 0.06964,-0.01663 0.105469,-0.0078 z m -29.9648438,4.18164 0.00781,3.121094 c 0,0.409125 0.00195,2.28125 0.00195,2.28125 0.3037118,5.15475 0.9575158,9.362235 2.2050778,13.927735 l 0.701172,0.0039 c -1.26365,-4.607375 -1.957522,-8.78611 -2.263672,-13.94336 l -0.002,-2.414062 0.002,0.002 c 0.04736,0.082 0.126953,0.190453 0.228516,0.298828 0.195312,0.214375 0.537103,0.443359 1.001953,0.443359 l 0.0078,0 c 0.20655,8.75e-4 0.428222,-0.04147 0.669922,-0.136718 0.400425,-0.160125 1.092844,-0.327578 1.777344,-0.533203 l 0,0.0039 0.03906,-0.01172 c 0.0425,0.06887 0.103063,0.150875 0.179688,0.234375 0.195375,0.214375 0.535703,0.443359 1.001953,0.443359 l 0.0059,0 c 0.2065,8.75e-4 0.429172,-0.04147 0.669922,-0.136718 0.432125,-0.17525 1.205032,-0.346766 1.941406,-0.572266 l 0.05273,-0.02344 c 0.04737,0.07963 0.115265,0.183062 0.212891,0.289062 0.196374,0.214375 0.534703,0.443359 1.001953,0.443359 l 0.0059,0 c 0.2065,8.75e-4 0.431672,-0.04147 0.669922,-0.136718 0.416125,-0.1665 1.153297,-0.340407 1.857422,-0.550782 l 0.04492,-0.01562 c 0.04638,0.07463 0.107859,0.167015 0.193359,0.259765 0.19675,0.214375 0.535156,0.444438 1.003906,0.445313 l 0.0039,0 c 0.205999,0 0.432171,-0.04342 0.669921,-0.138672 0.412625,-0.161625 1.120094,-0.333063 1.808594,-0.539063 l 0.04297,-0.0098 c 0.044,0.07225 0.120547,0.166906 0.201172,0.253906 0.193875,0.21525 0.510765,0.435547 0.978515,0.435547 l 0.0332,0 c 0.203625,0 0.425766,-0.04733 0.666016,-0.142578 0.397875,-0.160125 1.092313,-0.326125 1.773438,-0.53125 l 0.002,0.002 0.03516,-0.0098 0.25,-0.08203 c 0.13575,-0.04237 0.268109,-0.08789 0.396484,-0.134766 0.062,-0.02188 0.119688,-0.04586 0.179688,-0.06836 0.01225,-0.0054 0.02877,-0.01025 0.04102,-0.01563 0.06925,-0.02825 0.132344,-0.05523 0.199219,-0.08398 0.0064,-0.0039 0.01366,-0.0073 0.01953,-0.01172 0.05625,-0.02538 0.115172,-0.0522 0.169922,-0.08008 0.01362,-0.0072 0.02544,-0.01669 0.03906,-0.02344 0.05963,-0.03225 0.119656,-0.06448 0.175781,-0.09961 0.171,-0.1065 0.326109,-0.225578 0.44336,-0.376953 0.119624,-0.149875 0.200218,-0.342782 0.199218,-0.550782 0,-0.0415 -0.0014,-0.0835 -0.0078,-0.125 l 0,-0.0078 c 0.482375,-0.25625 0.968828,-0.498016 1.251953,-0.603516 0.21875,-0.08738 0.465797,-0.141125 0.701172,-0.140625 0.23925,0 0.459453,0.05425 0.642578,0.171875 0.128,0.084 0.247625,0.200172 0.34375,0.373047 -0.178991,0.09908 -0.367559,0.203086 -0.505859,0.283203 -0.088,0.04988 -0.159157,0.09274 -0.222657,0.13086 -0.09275,0.05475 -0.161109,0.09914 -0.208984,0.134765 -0.03513,0.02587 -0.06828,0.05233 -0.09766,0.08008 -0.0097,0.0074 -0.01664,0.01556 -0.02539,0.02344 -0.023,0.02 -0.04147,0.04005 -0.05859,0.06055 -0.0083,0.0098 -0.01714,0.01955 -0.02539,0.0293 -0.01713,0.02 -0.0303,0.03992 -0.04492,0.06055 -0.0074,0.01025 -0.01411,0.02245 -0.02148,0.0332 -0.01313,0.01963 -0.02441,0.04005 -0.03516,0.06055 -0.0064,0.01112 -0.0127,0.0205 -0.01758,0.03125 -0.0097,0.02188 -0.02105,0.04441 -0.0293,0.06641 -0.0025,0.0093 -0.0083,0.01809 -0.0098,0.02734 -0.0098,0.03025 -0.02009,0.06047 -0.02734,0.08984 -0.0064,0.02937 -0.01117,0.05573 -0.01367,0.08398 0,0 0,0.002 0,0.002 -0.727003,0.230124 -1.538112,0.410158 -2.070313,0.621093 -0.17675,0.07075 -0.32175,0.0957 -0.4375,0.0957 -0.265125,-0.0024 -0.426281,-0.116219 -0.550781,-0.246094 -0.0025,-0.0054 -0.0088,-0.01025 -0.01367,-0.01563 -0.12279,0.04463 -0.246282,0.08554 -0.375,0.126953 l -0.25,0.08203 c 0.044,0.06925 0.104516,0.150375 0.181641,0.234375 0.195375,0.21475 0.535703,0.445313 1.001953,0.445313 l 0.0059,0 c 0.203625,0 0.430094,-0.04392 0.667969,-0.138672 0.436,-0.17525 1.21825,-0.355406 1.953125,-0.582031 0,0 0,-0.002 0,-0.002 l 0.03906,-0.01172 c 0.04637,0.07863 0.112312,0.181609 0.210937,0.287109 0.194375,0.214375 0.536656,0.443359 1.003906,0.443359 l 0.0059,0 c 0.204125,8.75e-4 0.427312,-0.04147 0.664062,-0.136718 0.416,-0.167 1.153875,-0.339906 1.859375,-0.550782 l 0.04492,-0.01562 c 0.04738,0.07463 0.110766,0.167015 0.197266,0.259765 0.1675,0.182125 0.438984,0.373484 0.802734,0.427735 l 0,3.800781 c -0.105,-0.05025 -0.222172,-0.105938 -0.341797,-0.164063 -0.308625,-0.146875 -0.651843,-0.305234 -0.933594,-0.427734 -0.282125,-0.123125 -0.58439,-0.218828 -0.90039,-0.220703 -0.0024,0 -0.0063,0 -0.0098,0 -0.292875,-0.0015 -0.615797,0.105531 -0.841797,0.363281 0,0.0015 -0.002,0.0025 -0.002,0.0039 -0.188,0.212875 -0.300719,0.497594 -0.355468,0.855469 -0.01212,0.08113 -0.02388,0.163078 -0.03125,0.251953 -0.03025,0.42825 -0.04927,0.796844 -0.05664,1.121094 0,0.07325 0,0.144015 0,0.21289 0,0.710876 0.08013,1.222172 0.328125,1.654297 0.15625,0.2695 0.362766,0.485844 0.61914,0.699219 0.06488,0.05512 0.132251,0.110438 0.203126,0.164063 0.09763,0.07525 0.197765,0.14939 0.30664,0.228515 0.288125,0.204 0.556656,0.396891 0.800781,0.572266 0.021,0.01512 0.03855,0.02834 0.06055,0.04297 0.5435,0.395 0.955047,0.698656 1.154297,0.847656 l 0,5.623047 -1.767578,0 c -0.21975,-0.294875 -0.775344,-1.045797 -1.464844,-2.013672 -0.125875,-0.17575 -0.243656,-0.333891 -0.363281,-0.478516 -0.222125,-0.272 -0.447219,-0.490297 -0.730469,-0.654297 -0.2475,-0.141625 -0.520093,-0.227015 -0.839843,-0.27539 -0.24075,-0.03762 -0.510282,-0.05273 -0.816407,-0.05273 -0.139125,5e-4 -0.286109,0.0021 -0.443359,0.0078 -0.266,0.01038 -0.558047,0.02778 -0.888672,0.05078 -0.48,0.03563 -0.845219,0.157219 -1.105469,0.386719 -0.127875,0.109375 -0.216312,0.241687 -0.273437,0.382812 -0.06587,0.152875 -0.09375,0.312047 -0.09375,0.466797 l 0,0.0039 0,0.01758 c 0.0049,0.308125 0.09662,0.605015 0.21875,0.884765 0.04788,0.109375 0.102078,0.228063 0.158203,0.351563 0.143125,0.3135 0.304672,0.65425 0.435547,0.921875 l -2.148438,0 -4.427734,0 c -0.21875,-0.295375 -0.773422,-1.045297 -1.466797,-2.013672 -0.02688,-0.0395 -0.05366,-0.07823 -0.08203,-0.115234 -0.2295,-0.315501 -0.438516,-0.576579 -0.681641,-0.783204 -0.0084,-0.0072 -0.01552,-0.01461 -0.02539,-0.02148 0,0 0,-0.002 0,-0.002 -0.09425,-0.07775 -0.193406,-0.147938 -0.300781,-0.210938 -0.062,-0.03663 -0.127359,-0.06683 -0.193359,-0.0957 -0.227,-0.101 -0.478078,-0.162015 -0.767578,-0.197265 -0.211,-0.02488 -0.437985,-0.03516 -0.69336,-0.03516 -0.13675,5e-4 -0.27789,0.0024 -0.43164,0.0078 -0.268625,0.0097 -0.565891,0.02678 -0.900391,0.05078 -0.4795,0.03563 -0.845172,0.157219 -1.107422,0.386719 -0.191875,0.1675 -0.299297,0.384797 -0.341797,0.607422 -0.01713,0.0835 -0.02539,0.165468 -0.02539,0.246093 0.0024,0.314375 0.09662,0.619672 0.21875,0.904297 0.170875,0.390625 0.414953,0.89986 0.595703,1.271485 l -4.40625,0 -0.703125,0 0.11914,0.429687 c 1.073188,3.856875 2.440954,7.351032 4.001954,10.503907 0.044,0.08788 0.08698,0.176343 0.130859,0.261718 l 0.175781,0.34961 C 22.866281,71.445766 32.471703,78.48925 37.783203,81.625 l 0.167969,0.09766 c 0.0099,0.0079 0.01913,0.01216 0.03125,0.01953 0.163625,0.09512 0.323641,0.185015 0.478516,0.27539 1.98,1.120625 3.213437,1.625985 3.226562,1.63086 l 0.160156,0.06641 0.146485,-0.08984 c 2.606,-1.61525 4.99514,-3.279797 7.197265,-4.982422 l 0.144532,-0.111328 0.0098,-0.0078 C 57.48717,72.186203 62.992248,65.275697 66.625,58.707031 l 0.07422,-0.136719 c 0.09025,-0.165124 0.183156,-0.330093 0.269531,-0.496093 0.13825,-0.256875 0.273922,-0.51511 0.404297,-0.771485 l 0.06055,-0.115234 0.878906,-1.791016 0.0918,-0.195312 c 0.001,-0.0064 0.0035,-0.01313 0.0059,-0.01563 0.07225,-0.157625 0.144094,-0.311047 0.214844,-0.466797 1.69925,-3.75 2.840875,-7.347672 3.578125,-10.638672 l 0.08984,-0.394531 -0.34961,-0.01563 -0.05273,-0.0039 c -0.05284,-0.0025 -0.101672,-0.0038 -0.152344,-0.0059 l 0.205078,0.0059 0.34961,0.01367 c 0.888625,-4.096251 1.171875,-7.697735 1.171875,-10.490235 l -0.02148,-2.060547 -0.0039,0.002 -0.01172,-2.867187 0.0078,-0.0039 0,-0.470704 -62.714844,0 c -0.08643,-0.0015 -1.0136718,-0.002 -1.0136718,-0.002 z m 3.8320308,0.195313 c -0.351679,0.137256 -0.937108,0.430865 -1.460937,0.710937 l 0.02539,-0.01563 c 0.53075,-0.28325 1.079047,-0.555687 1.435546,-0.695312 z m 7.560547,0 c -0.304046,0.116987 -0.905254,0.417873 -1.36914,0.660156 l 0.113281,-0.0625 0,0.0059 c 0.46975,-0.248125 0.937484,-0.481016 1.255859,-0.603516 z m -10.646484,0.416016 c 0.249025,0 0.490728,0.05809 0.689453,0.183593 0.14795,0.09325 0.279785,0.223735 0.38086,0.41211 -0.1084,0.06113 -0.209966,0.11825 -0.306641,0.171875 -0.0083,0.0049 -0.01856,0.01075 -0.02734,0.01563 -0.04491,0.02638 -0.08984,0.05084 -0.132812,0.07422 -0.0034,0.0035 -0.0073,0.0069 -0.01367,0.0098 -0.201175,0.11575 -0.337413,0.195375 -0.414063,0.25 -0.0025,0.001 -0.0015,0.0029 -0.0039,0.0039 -0.03565,0.02637 -0.06885,0.05416 -0.09961,0.08203 -9.75e-4,0.0014 -0.0029,0.0019 -0.0039,0.0039 -0.0293,0.02788 -0.05566,0.05556 -0.08008,0.08594 -0.0049,0.0044 -0.0078,0.0083 -0.01172,0.01172 -0.02198,0.02638 -0.04151,0.05125 -0.05859,0.07813 -0.0049,0.0069 -0.0068,0.01561 -0.01172,0.02148 -0.0088,0.01375 -0.01903,0.02631 -0.02734,0.03906 l 0,-1.4375 c 0.04005,-0.0035 0.08106,-0.0059 0.121094,-0.0059 z m 7.691406,0.02734 c 0.23925,5e-4 0.459,0.05425 0.640625,0.171875 0.1295,0.0835 0.245547,0.200172 0.341797,0.373047 -0.117355,0.06436 -0.233728,0.129631 -0.335937,0.1875 -0.0024,0.001 -0.0049,0.0024 -0.0059,0.0039 -0.05763,0.03225 -0.112234,0.06205 -0.162109,0.0918 -0.07463,0.0435 -0.142969,0.08211 -0.199219,0.115235 -0.083,0.05025 -0.149469,0.09233 -0.199219,0.126953 -0.0049,0.0024 -0.0088,0.0059 -0.01367,0.0078 -0.0059,0.0059 -0.01511,0.0122 -0.02148,0.01758 -0.03425,0.02587 -0.06828,0.05125 -0.09766,0.07813 -0.0072,0.0083 -0.01523,0.01569 -0.02148,0.02344 -0.022,0.0205 -0.04342,0.0415 -0.06055,0.0625 -0.0098,0.0098 -0.01802,0.02013 -0.02539,0.03125 -0.01563,0.01813 -0.0313,0.03752 -0.04492,0.05664 -0.0084,0.01213 -0.01411,0.02386 -0.02148,0.03711 -0.01225,0.0175 -0.02541,0.03619 -0.03516,0.05469 -0.0059,0.01275 -0.0127,0.02486 -0.01758,0.03711 -0.01125,0.0195 -0.01714,0.03809 -0.02539,0.05859 -0.0039,0.01075 -0.0088,0.02245 -0.01367,0.0332 -0.0099,0.02788 -0.01802,0.0537 -0.02539,0.08008 -0.001,0.0083 -0.0034,0.01797 -0.0059,0.02734 -0.0039,0.02188 -0.0073,0.04345 -0.0098,0.06445 l 0,0.002 c -0.136625,0.03663 -1.566922,0.419343 -2.076172,0.621093 -0.174375,0.06875 -0.318875,0.09375 -0.4375,0.09375 -0.26225,-0.0015 -0.422828,-0.116218 -0.548828,-0.246093 -0.0034,-0.0044 -0.0088,-0.0083 -0.01367,-0.01367 0.009,-0.0032 0.01835,-0.0065 0.02734,-0.0098 0.05712,-0.02137 0.114375,-0.04341 0.171875,-0.06641 0.01475,-0.0059 0.03225,-0.01133 0.04687,-0.01758 0.06837,-0.02737 0.131813,-0.05573 0.195313,-0.08398 0.0082,-0.0049 0.01814,-0.0078 0.02539,-0.01172 0.05612,-0.02587 0.112813,-0.0522 0.164063,-0.08008 0.01563,-0.0072 0.02984,-0.01619 0.04297,-0.02344 0.06013,-0.03275 0.120532,-0.06548 0.175782,-0.09961 0.170875,-0.1075 0.322781,-0.227532 0.441406,-0.378907 0.06837,-0.088 0.125031,-0.191984 0.160156,-0.302734 0.0235,-0.07913 0.03906,-0.161547 0.03906,-0.248047 0,-0.04288 -0.0039,-0.08686 -0.0098,-0.130859 0.484375,-0.25675 0.969828,-0.498016 1.251953,-0.603516 0.22075,-0.08738 0.467375,-0.140625 0.703125,-0.140625 z m 22.714844,0 c 0.23925,0 0.459,0.05475 0.640625,0.171875 0.133375,0.087 0.251531,0.206547 0.347656,0.388672 -0.106,0.0595 -0.208984,0.118125 -0.302734,0.171875 -0.01112,0.0068 -0.0205,0.01366 -0.03125,0.01953 -0.05362,0.03075 -0.102063,0.05711 -0.148438,0.08398 -0.17675,0.103 -0.300265,0.176703 -0.384765,0.236328 -10e-4,0 -0.0015,-8.75e-4 -0.0039,0 -0.01225,0.0074 -0.0205,0.01652 -0.03125,0.02539 -0.0049,5e-4 -0.0053,0.0014 -0.0078,0.0039 -0.03325,0.022 -0.06202,0.04594 -0.08789,0.07031 -0.01325,0.01125 -0.02486,0.02448 -0.03711,0.03711 -0.01463,0.01412 -0.02922,0.0308 -0.04297,0.04492 -0.01212,0.01412 -0.02195,0.02772 -0.0332,0.04297 -0.01075,0.01512 -0.02528,0.02684 -0.03516,0.04297 -0.0097,0.01363 -0.0205,0.02884 -0.03125,0.04297 -0.0072,0.01713 -0.01802,0.0332 -0.02539,0.04883 -0.0083,0.01412 -0.01323,0.02727 -0.02148,0.04102 -0.0099,0.021 -0.01909,0.04055 -0.02734,0.06055 -0.004,0.0098 -0.0093,0.01809 -0.01172,0.02734 -0.0098,0.02975 -0.01951,0.05902 -0.02539,0.08789 -0.0025,0.0083 -0.0044,0.01847 -0.0059,0.02734 -0.0025,0.01713 -0.0044,0.03075 -0.0078,0.04688 l 0,0.0039 c -0.13675,0.03663 -1.601094,0.430593 -2.121094,0.636718 -0.174375,0.06925 -0.318297,0.09375 -0.435547,0.09375 -0.262625,-0.002 -0.42375,-0.115718 -0.546875,-0.246093 -0.01362,-0.01425 -0.02594,-0.02834 -0.03906,-0.04297 0.01085,-0.004 0.0224,-0.0077 0.0332,-0.01172 0.05025,-0.0205 0.100515,-0.04005 0.150391,-0.06055 0.017,-0.0069 0.03466,-0.01411 0.05078,-0.02148 0.0635,-0.02538 0.124547,-0.05428 0.185547,-0.08203 0.0074,-0.0044 0.01564,-0.0092 0.02539,-0.01367 0.05125,-0.02388 0.104422,-0.0493 0.154297,-0.07617 0.01362,-0.0078 0.02734,-0.01411 0.04297,-0.02148 0.05625,-0.03162 0.111406,-0.06391 0.160156,-0.09766 0.166125,-0.105 0.3105,-0.223593 0.421875,-0.371093 0.04875,-0.06437 0.0913,-0.137219 0.123047,-0.214844 0.0405,-0.09962 0.06445,-0.208063 0.06445,-0.320313 0,-0.02737 -3.1e-5,-0.05523 -0.0039,-0.08398 0.514125,-0.273375 1.047281,-0.539047 1.347656,-0.654297 0.21825,-0.0865 0.464297,-0.139172 0.701172,-0.138672 z m 7.601563,0 c 0.23925,0 0.4585,0.05425 0.640624,0.171875 0.127875,0.0835 0.244719,0.199172 0.339844,0.373047 -0.04637,0.02637 -0.09134,0.05325 -0.136718,0.07813 -0.022,0.01213 -0.04245,0.02391 -0.06445,0.03516 -0.02925,0.01912 -0.062,0.03561 -0.09375,0.05273 -0.02437,0.01463 -0.04884,0.02827 -0.07422,0.04102 -0.02687,0.01713 -0.05461,0.0337 -0.08398,0.04883 -0.01463,0.0093 -0.0332,0.01909 -0.04883,0.02734 -0.0675,0.03862 -0.125484,0.07322 -0.177734,0.105469 -0.11475,0.06687 -0.198203,0.118578 -0.251953,0.158203 l 0,0.002 c -0.03813,0.02587 -0.07036,0.05233 -0.09961,0.08008 -0.0083,0.0069 -0.01311,0.01228 -0.02148,0.01953 -0.02087,0.022 -0.04438,0.04245 -0.0625,0.06445 -0.0087,0.0093 -0.01523,0.01747 -0.02148,0.02734 -0.01812,0.02088 -0.03325,0.04345 -0.04688,0.06445 -0.0074,0.0099 -0.01573,0.01955 -0.02148,0.0293 -0.01375,0.0215 -0.02348,0.042 -0.03711,0.0625 -0.0049,0.01075 -0.01075,0.0205 -0.01563,0.03125 -0.01125,0.02287 -0.01855,0.04391 -0.0293,0.06641 -0.0014,0.0087 -0.0049,0.01714 -0.0098,0.02539 -0.0195,0.061 -0.03709,0.118657 -0.04297,0.175782 l 0,0.0039 c -0.15525,0.0415 -1.568265,0.418891 -2.072265,0.61914 -0.17475,0.06875 -0.321328,0.09375 -0.439453,0.09375 -0.26375,-0.0015 -0.424781,-0.116218 -0.550782,-0.246093 -0.0034,-0.0044 -0.0058,-0.0083 -0.01172,-0.01367 0.0098,-0.0035 0.01511,-0.0068 0.02148,-0.0098 0.061,-0.021 0.118656,-0.04341 0.175781,-0.06641 0.01362,-0.0059 0.0327,-0.01366 0.04883,-0.01953 0.06688,-0.02688 0.130812,-0.05378 0.195312,-0.08203 0.0087,-0.0049 0.02105,-0.0092 0.0293,-0.01367 0.05275,-0.02487 0.106953,-0.05225 0.158203,-0.07813 0.01713,-0.0083 0.0328,-0.01664 0.04492,-0.02539 0.0625,-0.03225 0.121031,-0.06303 0.175781,-0.09766 0.147875,-0.09225 0.28075,-0.19486 0.390625,-0.31836 0.01713,-0.02 0.03516,-0.03955 0.05078,-0.06055 0.01362,-0.01913 0.03072,-0.03759 0.04297,-0.05859 0.09425,-0.138125 0.15625,-0.306078 0.15625,-0.486328 l 0,-0.0059 c 0,-0.044 -0.0025,-0.08698 -0.0098,-0.130859 0.483375,-0.255375 0.973157,-0.497641 1.253907,-0.603516 0.21875,-0.087 0.464843,-0.141625 0.699219,-0.140625 z m 15.05664,0 c 0.23775,0 0.460453,0.05425 0.642578,0.171875 0.119625,0.07813 0.251,0.214844 0.34375,0.371094 l -0.01172,0.0078 c -0.185501,0.1005 -0.354922,0.194844 -0.498047,0.277344 -0.21,0.122125 -0.346688,0.205625 -0.429688,0.265625 -0.24075,0.172375 -0.366265,0.404297 -0.400391,0.607422 l 0,0.03516 c -0.72275,0.225125 -1.552249,0.417954 -2.078124,0.626953 -0.177251,0.06875 -0.319251,0.09375 -0.4375,0.09375 -0.265125,-0.0015 -0.426282,-0.116218 -0.550782,-0.246093 -0.0039,-0.0059 -0.0088,-0.01075 -0.01367,-0.01563 0.0057,-0.0021 0.01184,-0.0038 0.01758,-0.0059 0.06213,-0.0225 0.123047,-0.04731 0.185547,-0.07031 0.01313,-0.0053 0.02681,-0.01112 0.03906,-0.01563 0.06975,-0.02825 0.134297,-0.05669 0.201172,-0.08594 0.0039,-0.0034 0.01183,-0.0044 0.01758,-0.0078 0.05763,-0.02787 0.117125,-0.05624 0.171875,-0.08398 0.01362,-0.0079 0.02531,-0.01473 0.03906,-0.02148 0.0595,-0.03225 0.12061,-0.06498 0.177735,-0.09961 0.169875,-0.1075 0.322328,-0.226656 0.439453,-0.378907 0.05125,-0.0645 0.09573,-0.138671 0.130859,-0.216796 0.044,-0.103 0.07031,-0.215235 0.07031,-0.333985 l 0,-0.0039 c 0,-0.039 -0.0025,-0.07711 -0.0098,-0.115234 l 0,-0.01367 c 0.484375,-0.256375 0.971625,-0.495688 1.25,-0.601563 0.220625,-0.087 0.46625,-0.141625 0.703125,-0.140625 z m -49.05664,0.002 c 0.38325,0.0098 0.70214,0.116735 0.93164,0.458985 -0.0625,0.03463 -0.12314,0.06636 -0.18164,0.09961 -0.0084,0.0054 -0.01659,0.01075 -0.02734,0.01563 -0.05512,0.03125 -0.111313,0.06255 -0.164063,0.0918 -0.01713,0.0098 -0.03561,0.01955 -0.05273,0.0293 -0.04787,0.02725 -0.09563,0.0542 -0.140625,0.08008 -0.0072,0.0049 -0.01802,0.01075 -0.02539,0.01563 -0.05125,0.03025 -0.100531,0.05711 -0.144531,0.08398 -0.166,0.09575 -0.281234,0.165469 -0.349609,0.214844 -0.0024,8.75e-4 -0.0034,0.0039 -0.0059,0.0039 -0.03413,0.02637 -0.06786,0.0527 -0.09961,0.08008 -0.0034,0.0039 -0.0054,0.0068 -0.0078,0.0098 -0.02687,0.02637 -0.05375,0.05283 -0.07813,0.08008 -0.0049,0.0059 -0.0088,0.0117 -0.01367,0.01758 -0.018,0.02587 -0.03951,0.0498 -0.05664,0.07617 -0.0059,0.0079 -0.01075,0.01664 -0.01563,0.02539 -0.01463,0.023 -0.02681,0.04644 -0.03906,0.07031 -0.0049,0.0098 -0.0092,0.0215 -0.01563,0.03125 -0.0097,0.0215 -0.01897,0.04345 -0.02734,0.06445 -0.0039,0.01212 -0.0092,0.02391 -0.01172,0.03516 -0.0072,0.02 -0.01466,0.03847 -0.01953,0.05859 -0.0024,0.01162 -0.0053,0.02498 -0.0078,0.03711 -0.0034,0.01813 -0.0044,0.03706 -0.0059,0.05469 -0.0025,0.01275 -0.0039,0.02581 -0.0039,0.03906 0,0.01025 5.46e-4,0.01905 -0.002,0.0293 l 0,0.0039 c -0.0855,0.0225 -1.395456,0.370063 -1.863281,0.554687 -0.174312,0.06925 -0.316884,0.09375 -0.435547,0.09375 -0.263662,-0.0015 -0.427243,-0.116218 -0.550781,-0.246093 -0.02539,-0.02587 -0.05077,-0.05906 -0.07031,-0.08594 0.0088,-0.0034 0.0166,-0.0059 0.01758,-0.0059 0.05615,-0.02238 0.109371,-0.04441 0.162109,-0.06641 0.01074,-0.0044 0.02247,-0.0088 0.0332,-0.01367 0.06104,-0.02637 0.121584,-0.0527 0.177735,-0.08008 0.0059,-0.0029 0.01074,-0.0054 0.01562,-0.0078 0.05128,-0.02488 0.09961,-0.05175 0.148438,-0.07813 0.01074,-0.0074 0.02392,-0.01461 0.03711,-0.02148 0.05029,-0.02887 0.09619,-0.05814 0.142579,-0.08789 0.0024,-0.002 0.0054,-0.004 0.0078,-0.0059 0.0332,-0.022 0.06592,-0.04531 0.09766,-0.07031 0.177238,-0.135625 0.330082,-0.308609 0.402344,-0.521484 0.02784,-0.084 0.04492,-0.175359 0.04492,-0.271485 0,0 -0.0015,-0.0053 -0.0039,-0.01172 0.5405,-0.291 1.188937,-0.619141 1.507812,-0.744141 0.21575,-0.0845 0.461359,-0.137719 0.69336,-0.136719 z m 7.5625,0 c 0.233499,10e-4 0.450234,0.05024 0.630859,0.16211 0.122125,0.07713 0.23525,0.183687 0.328125,0.335937 -0.0274,0.01503 -0.05692,0.03006 -0.08398,0.04492 -0.05375,0.03075 -0.106407,0.05902 -0.160157,0.08789 -0.02688,0.01663 -0.05378,0.03125 -0.08203,0.04687 -0.02538,0.01563 -0.05125,0.0293 -0.07813,0.04492 -0.05125,0.02788 -0.102063,0.05761 -0.148437,0.08398 -0.11475,0.06687 -0.210485,0.123047 -0.28711,0.169922 -0.07725,0.04775 -0.135281,0.08398 -0.175781,0.115234 -0.0099,0.0064 -0.01897,0.01524 -0.02734,0.02148 -0.02587,0.01863 -0.05039,0.03809 -0.07227,0.05859 -0.01375,0.01175 -0.02348,0.02486 -0.03711,0.03711 -0.01563,0.01613 -0.0342,0.0317 -0.04883,0.04883 -0.01125,0.01312 -0.019,0.02776 -0.03125,0.04102 -0.01225,0.01663 -0.02594,0.03316 -0.03906,0.05078 -0.0089,0.01275 -0.01802,0.02689 -0.02539,0.04102 -0.0098,0.01762 -0.0205,0.03511 -0.03125,0.05273 -0.0072,0.01363 -0.01411,0.02739 -0.02148,0.04102 -0.0083,0.01863 -0.01369,0.03606 -0.02344,0.05469 -0.0034,0.01262 -0.0088,0.02544 -0.01367,0.03906 -0.005,0.01812 -0.01075,0.03556 -0.01563,0.05469 -0.0025,0.01162 -0.0068,0.02548 -0.0078,0.03711 -0.0049,0.01912 -0.0073,0.03606 -0.0098,0.05469 -0.0015,0.01175 -0.0039,0.02208 -0.0039,0.0332 0,0.0045 -9.53e-4,0.0093 -0.002,0.01367 -0.187,0.05075 -1.491235,0.403218 -1.958985,0.589843 -0.179125,0.06875 -0.321781,0.09375 -0.441406,0.09375 -0.26125,-0.0015 -0.423375,-0.116218 -0.546875,-0.246093 -0.02287,-0.02587 -0.04733,-0.0503 -0.06445,-0.07617 0.0043,-0.0017 0.0094,-0.0022 0.01367,-0.0039 0.0595,-0.02287 0.116703,-0.04839 0.173828,-0.07227 0.0098,-0.0049 0.01955,-0.0072 0.0293,-0.01172 0.062,-0.02775 0.125094,-0.05669 0.183593,-0.08594 0.0049,-0.002 0.0083,-0.002 0.0098,-0.0039 0.05712,-0.02688 0.108484,-0.05573 0.16211,-0.08398 0.0084,-0.0064 0.0215,-0.01316 0.03125,-0.01953 0.05613,-0.03125 0.108906,-0.06391 0.160156,-0.09766 0.152375,-0.1035 0.288578,-0.218282 0.392578,-0.363282 0.09375,-0.130375 0.15975,-0.289562 0.171875,-0.460937 0.0015,-0.01963 0.0039,-0.03814 0.0039,-0.05664 0,-0.0084 -9.53e-4,-0.01619 -0.002,-0.02344 0.546875,-0.2935 1.132297,-0.589891 1.451172,-0.712891 0.21725,-0.0835 0.462015,-0.136719 0.697266,-0.136719 z m 3.773437,0 c 0.231,0 0.446297,0.05128 0.623047,0.160157 0.119625,0.07325 0.226609,0.171828 0.318359,0.314453 l 0.257813,-0.136719 c -0.08788,0.04687 -0.175391,0.09475 -0.259766,0.140625 -0.05475,0.03075 -0.109859,0.06059 -0.162109,0.08984 -0.0195,0.01025 -0.03756,0.02 -0.05469,0.03125 -0.04488,0.02488 -0.09272,0.04789 -0.136719,0.07227 -0.017,0.01175 -0.03573,0.022 -0.05273,0.03125 -0.0455,0.02538 -0.08695,0.04889 -0.126953,0.07227 -0.01225,0.0069 -0.02636,0.01461 -0.03711,0.02148 -0.211375,0.1225 -0.36275,0.212438 -0.453125,0.273438 -0.0083,0.0059 -0.01897,0.01266 -0.02734,0.01953 -0.0014,5e-4 -0.002,0.0024 -0.002,0.0039 -0.07475,0.05275 -0.13525,0.110875 -0.1875,0.171875 -0.0039,0.0039 -0.0074,0.0068 -0.0098,0.01172 -0.021,0.02587 -0.04342,0.0532 -0.06055,0.08008 -0.0059,0.0079 -0.0098,0.01752 -0.01563,0.02539 -0.01463,0.02287 -0.02831,0.04498 -0.03906,0.06836 -0.0064,0.01125 -0.01075,0.02245 -0.01563,0.0332 -0.0098,0.0205 -0.02092,0.041 -0.0293,0.0625 -0.0049,0.01175 -0.0088,0.02486 -0.01367,0.03711 -0.0049,0.0185 -0.01075,0.03714 -0.01563,0.05664 -0.0025,0.01175 -0.0053,0.02386 -0.0078,0.03711 -0.0049,0.0175 -0.0053,0.03461 -0.0078,0.05273 -0.0025,0.01162 -0.0039,0.02536 -0.0039,0.03711 -0.001,0.0092 -0.0024,0.01752 -0.0039,0.02539 l 0,0.0059 c -0.231876,0.062 -1.456141,0.387672 -1.900391,0.560547 -0.17925,0.07025 -0.323734,0.0957 -0.443359,0.0957 -0.262751,-0.0015 -0.424329,-0.116218 -0.548829,-0.246093 -0.01225,-0.01425 -0.02441,-0.02834 -0.03516,-0.04297 0.0096,-0.0037 0.01974,-0.008 0.0293,-0.01172 0.05475,-0.0195 0.104453,-0.04005 0.158203,-0.06055 0.01462,-0.0069 0.03033,-0.01461 0.04883,-0.02148 0.062,-0.02688 0.124422,-0.05378 0.185547,-0.08203 0.0072,-0.0039 0.01523,-0.0088 0.02148,-0.01172 0.05475,-0.02638 0.108907,-0.05083 0.160157,-0.08008 0.01463,-0.0059 0.02694,-0.01316 0.03906,-0.01953 0.05762,-0.03213 0.114766,-0.06536 0.166016,-0.09961 0.162625,-0.105875 0.307547,-0.224547 0.419922,-0.373047 0.03412,-0.04638 0.06837,-0.09809 0.09375,-0.152343 0.05862,-0.11625 0.09375,-0.246688 0.09375,-0.382813 0,-0.02688 -3.1e-5,-0.0532 -0.0039,-0.08008 0.511625,-0.272875 1.044907,-0.539047 1.347657,-0.654297 0.215875,-0.0845 0.460906,-0.136719 0.691406,-0.136719 z m 3.720703,0 c 0.380875,0.01025 0.702141,0.115735 0.931641,0.458985 -0.06197,0.03306 -0.124549,0.06651 -0.183594,0.09961 -0.0074,0.0049 -0.01411,0.0093 -0.02148,0.01367 -0.06,0.03275 -0.117578,0.06495 -0.173829,0.0957 -0.01312,0.0072 -0.02648,0.01511 -0.03711,0.02148 -0.0625,0.03562 -0.121062,0.06931 -0.179687,0.101562 -0.1255,0.07275 -0.227,0.134297 -0.3125,0.185547 -0.07813,0.04775 -0.139188,0.08448 -0.179688,0.115234 l -0.0039,0 c -0.03762,0.02688 -0.07023,0.05474 -0.09961,0.08398 -0.0034,0.0025 -0.0073,0.0038 -0.0098,0.0078 -0.02775,0.02587 -0.05417,0.0532 -0.07617,0.08008 -0.0064,0.0069 -0.0102,0.01423 -0.01758,0.02148 -0.0185,0.024 -0.03711,0.04689 -0.05273,0.07227 -0.0089,0.0098 -0.0117,0.01955 -0.01758,0.0293 -0.01463,0.021 -0.02681,0.04341 -0.03906,0.06641 -0.0063,0.01075 -0.0117,0.02303 -0.01758,0.03516 -0.0089,0.0195 -0.01756,0.04092 -0.02344,0.06055 -0.0072,0.01262 -0.0083,0.02594 -0.01563,0.03906 -0.0039,0.01762 -0.0103,0.03706 -0.01367,0.05469 -0.0039,0.01363 -0.0074,0.02689 -0.0098,0.04102 -0.0025,0.01713 -0.0074,0.03366 -0.0098,0.05078 -0.0025,0.01275 -0.0029,0.02644 -0.0039,0.03906 -0.0015,0.01037 0,0.02 0,0.03125 l 0,0.002 c -0.180625,0.04838 -1.407719,0.374031 -1.855469,0.550781 -0.17475,0.06987 -0.317297,0.09375 -0.435547,0.09375 -0.263625,-0.0014 -0.426281,-0.114765 -0.550781,-0.24414 -0.0072,-0.0092 -0.01664,-0.01797 -0.02539,-0.02734 0.0077,-0.0028 0.01579,-0.005 0.02344,-0.0078 0.05613,-0.0215 0.111266,-0.04195 0.166016,-0.06445 0.01463,-0.0057 0.0303,-0.01316 0.04492,-0.01953 0.06587,-0.02688 0.13086,-0.05316 0.19336,-0.08203 0.0083,-0.0039 0.01511,-0.0083 0.02148,-0.01172 0.05612,-0.02538 0.107938,-0.0537 0.164063,-0.08008 0.01375,-0.0083 0.02581,-0.01561 0.03906,-0.02148 0.061,-0.03175 0.118125,-0.06548 0.171875,-0.09961 0.118125,-0.07475 0.225516,-0.157203 0.322266,-0.251953 0.0049,-0.0069 0.01133,-0.0117 0.01758,-0.01758 0.0049,-0.0039 0.0068,-0.0078 0.01172,-0.01172 0.02688,-0.03025 0.05528,-0.06158 0.08203,-0.0957 0.0099,-0.01225 0.02092,-0.02739 0.0293,-0.04102 0.06588,-0.09175 0.114703,-0.197796 0.142578,-0.310546 0.0087,-0.03813 0.01453,-0.07624 0.01953,-0.115235 l 0,-0.01758 c 8.75e-4,-0.02 0.002,-0.03897 0.002,-0.05859 0,-0.03625 -8.59e-4,-0.0747 -0.0059,-0.111328 0.499125,-0.26275 1.000516,-0.512797 1.291015,-0.623047 0.21875,-0.0855 0.462891,-0.139172 0.697266,-0.138672 z m 7.564453,0 c 0.234375,10e-4 0.450657,0.05024 0.628907,0.16211 0.121999,0.07713 0.233874,0.183687 0.328124,0.335937 -0.05652,0.03088 -0.114329,0.06219 -0.167968,0.0918 -0.0074,0.0059 -0.01714,0.01075 -0.02539,0.01563 -0.05038,0.02688 -0.09575,0.05225 -0.140625,0.07813 -0.0245,0.01312 -0.05039,0.02872 -0.07227,0.04297 -0.01962,0.01075 -0.03952,0.02 -0.05664,0.03125 -0.03025,0.0165 -0.06197,0.0327 -0.08984,0.04883 -0.192875,0.111375 -0.328047,0.193781 -0.419922,0.253906 -0.01463,0.01112 -0.0318,0.01955 -0.04492,0.0293 l 0,0.002 c -0.03813,0.02587 -0.06981,0.0517 -0.101562,0.08008 -0.0057,0.0054 -0.0093,0.01328 -0.01758,0.01953 -0.0235,0.023 -0.04691,0.04644 -0.06641,0.07031 -0.0089,0.0074 -0.01423,0.01569 -0.02148,0.02344 -0.01812,0.0225 -0.0352,0.04353 -0.04883,0.06641 -0.0074,0.0099 -0.01216,0.0205 -0.01953,0.03125 -0.01125,0.02188 -0.02681,0.04258 -0.03906,0.06445 -0.0034,0.01075 -0.0093,0.02 -0.01563,0.03125 -0.0083,0.0215 -0.01756,0.041 -0.02344,0.0625 -0.0049,0.01025 -0.0092,0.02245 -0.01172,0.0332 -0.0082,0.021 -0.01566,0.0415 -0.01953,0.0625 -0.0049,0.01025 -0.0059,0.01955 -0.0098,0.0293 -0.0035,0.022 -0.0059,0.041 -0.0098,0.0625 -10e-4,0.0087 -0.0039,0.01859 -0.0039,0.02734 -0.0014,0.0069 -5.78e-4,0.01416 -0.002,0.01953 l 0,0.0039 c -0.14025,0.03813 -1.481437,0.392532 -1.960937,0.582031 -0.17475,0.06925 -0.319297,0.09375 -0.435547,0.09375 -0.264625,-0.0015 -0.426735,-0.115718 -0.552735,-0.246093 -0.0205,-0.02587 -0.04205,-0.04934 -0.06055,-0.07422 0.01159,-0.0044 0.02363,-0.0092 0.03516,-0.01367 0.04787,-0.01912 0.09562,-0.03859 0.140625,-0.05859 0.01613,-0.0069 0.03125,-0.01216 0.04687,-0.01953 0.061,-0.02538 0.120109,-0.05416 0.177734,-0.08203 0.0059,-0.0039 0.0102,-0.0063 0.01758,-0.0098 0.05225,-0.02587 0.100641,-0.05262 0.150391,-0.07813 0.01225,-0.0072 0.02636,-0.01473 0.03711,-0.02148 0.05375,-0.03075 0.1065,-0.06391 0.15625,-0.09766 0.153875,-0.104 0.287578,-0.21961 0.392578,-0.365235 0.0185,-0.02388 0.03508,-0.04884 0.04883,-0.07422 0.07563,-0.13 0.127953,-0.282235 0.126953,-0.44336 l 0,-0.02344 c 0.5445,-0.294375 1.129875,-0.585938 1.453125,-0.710938 0.214875,-0.083 0.46389,-0.136719 0.697265,-0.136719 z m 7.697266,0 c 0.380875,0.0098 0.704516,0.115735 0.931641,0.458985 -0.05687,0.03099 -0.116838,0.06395 -0.171876,0.09375 -0.01962,0.01175 -0.03809,0.02158 -0.05859,0.0332 -0.05125,0.02688 -0.09716,0.0547 -0.144531,0.08008 -0.01462,0.0084 -0.02594,0.01556 -0.03906,0.02344 -0.0625,0.03412 -0.120656,0.06931 -0.175781,0.101562 -0.15475,0.08788 -0.274438,0.157719 -0.367188,0.214844 -0.05463,0.03225 -0.09661,0.06098 -0.130859,0.08398 0,10e-4 0,0.0024 0,0.0039 -0.110875,0.07963 -0.197219,0.171329 -0.261719,0.267578 -0.0024,0.0034 -0.0035,0.0068 -0.0059,0.0098 -0.01812,0.02825 -0.0352,0.05661 -0.04883,0.08398 -0.0049,0.0072 -0.0073,0.01619 -0.0098,0.02344 -0.01125,0.024 -0.02345,0.04889 -0.0332,0.07227 -0.0024,0.01125 -0.0049,0.02 -0.0098,0.03125 -0.0074,0.02 -0.01212,0.0425 -0.01563,0.0625 -0.0049,0.01225 -0.0073,0.02498 -0.0098,0.03711 -0.0039,0.01863 -0.0083,0.03511 -0.0098,0.05273 -0.0025,0.01312 -0.002,0.02681 -0.002,0.03906 -0.0025,0.01075 -0.0039,0.02 -0.0039,0.03125 l 0,0.002 c -0.151375,0.04 -1.40425,0.374937 -1.859375,0.554687 -0.17725,0.06925 -0.322782,0.09375 -0.441407,0.09375 -0.26225,-0.0015 -0.422375,-0.115718 -0.546875,-0.246093 -0.02925,-0.03075 -0.05222,-0.05959 -0.07422,-0.08984 0.0088,-0.0035 0.01858,-0.0062 0.02734,-0.0098 0.04975,-0.02 0.100688,-0.041 0.148438,-0.0625 0.01325,-0.0064 0.02739,-0.0117 0.04102,-0.01758 0.05962,-0.02538 0.117704,-0.0527 0.173829,-0.08008 0.0059,-0.0039 0.01273,-0.0078 0.02148,-0.01172 0.04738,-0.0235 0.09708,-0.0498 0.142578,-0.07617 0.01313,-0.0079 0.02727,-0.01556 0.04102,-0.02344 0.04975,-0.02975 0.100562,-0.06 0.148437,-0.09375 0,-5e-4 0.0039,-4.53e-4 0.0039,-0.002 0.01075,-0.0063 0.01955,-0.01373 0.0293,-0.02148 0.08687,-0.06163 0.165,-0.126922 0.234375,-0.201172 0.04387,-0.04337 0.08206,-0.08747 0.117188,-0.136719 0.102625,-0.142625 0.171875,-0.321344 0.171875,-0.511719 0,0 0,-0.002 0,-0.002 0.5605,-0.29825 1.164516,-0.604547 1.494141,-0.732422 0.214749,-0.085 0.459984,-0.137719 0.693359,-0.136719 z m 7.564453,0 c 0.232875,10e-4 0.448828,0.05024 0.626953,0.16211 0.123625,0.07713 0.232875,0.183187 0.328125,0.335937 l -0.01563,0.0078 c -0.19775,0.109375 -0.378906,0.212406 -0.535156,0.300781 -0.225625,0.132375 -0.380469,0.223156 -0.464844,0.285156 -0.272,0.193875 -0.393031,0.462438 -0.410156,0.679688 l -0.07813,0.02344 c -0.672375,0.20175 -1.394984,0.374532 -1.88086,0.566406 -0.175749,0.06925 -0.32025,0.09375 -0.4375,0.09375 -0.263624,-0.0015 -0.427281,-0.116218 -0.550781,-0.246093 -0.02437,-0.02587 -0.04495,-0.04984 -0.06445,-0.07422 0.0065,-0.0025 0.01305,-0.0053 0.01953,-0.0078 0.05712,-0.0215 0.112266,-0.04548 0.166016,-0.06836 0.01225,-0.0049 0.02303,-0.0087 0.03516,-0.01367 0.061,-0.02675 0.123016,-0.05561 0.181641,-0.08398 0.0049,-0.0024 0.0088,-0.0045 0.01367,-0.0059 0.05513,-0.02688 0.107375,-0.05523 0.15625,-0.08398 0.01212,-0.0059 0.02441,-0.01266 0.03516,-0.01953 0.05525,-0.03125 0.109328,-0.06195 0.158203,-0.0957 0.144,-0.09613 0.268016,-0.205063 0.369141,-0.335938 0.0087,-0.01025 0.01619,-0.01905 0.02344,-0.0293 0.01125,-0.01463 0.02,-0.02772 0.03125,-0.04297 0.08787,-0.13525 0.144531,-0.300735 0.144531,-0.47461 l 0,-0.0039 c -1.86e-4,-0.0072 -0.0036,-0.01426 -0.0039,-0.02148 0.549375,-0.2915 1.131422,-0.587938 1.451172,-0.710938 0.21975,-0.0835 0.466797,-0.136719 0.701172,-0.136719 z m 3.771484,0 c 0.2305,10e-4 0.443922,0.05078 0.623047,0.160157 0.121125,0.07325 0.229516,0.173281 0.322266,0.316406 -0.03114,0.01682 -0.03875,0.02113 -0.06836,0.03711 -0.01475,0.0079 -0.02789,0.01656 -0.04102,0.02344 -0.02587,0.01363 -0.04883,0.02391 -0.06445,0.03516 -0.0097,0.0049 -0.01702,0.0088 -0.02539,0.01367 -0.0585,0.03175 -0.115719,0.0625 -0.167969,0.09375 -0.01375,0.0063 -0.02403,0.01316 -0.03516,0.01953 -0.05862,0.03312 -0.115219,0.06533 -0.167969,0.0957 -0.0025,8.75e-4 -0.003,9.53e-4 -0.0039,0.002 -0.05038,0.02887 -0.09189,0.05375 -0.134766,0.07813 -0.0098,0.0054 -0.02,0.0122 -0.03125,0.01758 -0.09862,0.05813 -0.176734,0.10636 -0.240234,0.146485 -0.03025,0.02 -0.05417,0.03623 -0.07617,0.05273 l 0,0.002 c -0.0072,0.0025 -0.0088,0.0054 -0.01367,0.0078 -0.03075,0.023 -0.06101,0.04777 -0.08789,0.07227 -0.01225,0.01075 -0.02195,0.02145 -0.0332,0.0332 -0.01563,0.01713 -0.03461,0.03556 -0.05273,0.05469 -0.01125,0.01213 -0.02055,0.02644 -0.0293,0.03906 -0.01313,0.01713 -0.02681,0.03473 -0.03906,0.05273 -0.0097,0.01275 -0.01702,0.02639 -0.02539,0.04102 -0.01112,0.01713 -0.02345,0.03473 -0.0332,0.05273 -0.0074,0.01412 -0.01603,0.02834 -0.01953,0.04297 -0.0072,0.01713 -0.01523,0.03461 -0.02148,0.05273 -0.0074,0.01363 -0.01075,0.02822 -0.01563,0.04297 -0.0059,0.017 -0.0127,0.03416 -0.01758,0.05078 -0.0035,0.01363 -0.0043,0.02677 -0.0078,0.04102 -0.0039,0.017 -0.0073,0.03416 -0.0098,0.05078 -0.0024,0.01375 -0.0039,0.02739 -0.0039,0.04102 -0.001,0.0074 -0.002,0.01473 -0.002,0.02148 -0.144,0.03862 -1.438891,0.388187 -1.900391,0.570312 -0.17675,0.06925 -0.321328,0.09375 -0.439453,0.09375 -0.26375,-0.0015 -0.426703,-0.116218 -0.548828,-0.246093 -0.01463,-0.01425 -0.02694,-0.02834 -0.03906,-0.04297 0.29775,-0.11175 0.573344,-0.236344 0.808594,-0.386719 0.161125,-0.104875 0.304219,-0.222218 0.417969,-0.371093 0.109875,-0.145 0.190453,-0.332454 0.189453,-0.533204 0,-0.02875 -0.0015,-0.05561 -0.0039,-0.08398 0.515125,-0.272875 1.043922,-0.539047 1.341797,-0.654297 0.21875,-0.0845 0.46389,-0.136719 0.697265,-0.136719 z m 3.720704,0 c 0.38075,0.0098 0.70114,0.115282 0.93164,0.457032 l 0.19336,-0.103516 c -0.06588,0.03562 -0.132766,0.0718 -0.197266,0.107422 -0.06587,0.03463 -0.126922,0.06831 -0.185547,0.101562 0,0 -0.002,0.002 -0.002,0.002 -0.06737,0.03663 -0.133766,0.07425 -0.197266,0.109374 -0.0083,0.0059 -0.01469,0.0088 -0.02344,0.01367 -0.062,0.03562 -0.123438,0.07089 -0.179688,0.103516 -0.244125,0.140625 -0.410594,0.23725 -0.496093,0.296875 0,0 -0.0014,0.0025 -0.0039,0.0039 -0.109875,0.07963 -0.195265,0.172328 -0.259765,0.267578 -0.0015,0.0025 -0.0034,0.0074 -0.0059,0.0098 -0.0185,0.02938 -0.03558,0.05706 -0.04883,0.08594 -0.0039,0.0088 -0.0059,0.01619 -0.0098,0.02344 -0.01075,0.0235 -0.0225,0.04631 -0.03125,0.07031 -0.0035,0.01113 -0.0093,0.02341 -0.01172,0.03516 -0.0064,0.019 -0.01378,0.03947 -0.01953,0.05859 -0.0025,0.01363 -0.0054,0.02677 -0.0078,0.04102 -0.0025,0.01563 -0.0068,0.0332 -0.0078,0.04883 -0.0039,0.01475 -0.0039,0.02884 -0.0039,0.04297 -0.001,0.0098 -5.78e-4,0.01759 -0.002,0.02734 l 0,0.0039 c -0.110875,0.03025 -1.397453,0.372062 -1.861328,0.554687 -0.17575,0.06925 -0.317422,0.09375 -0.435547,0.09375 -0.26275,-0.0015 -0.423875,-0.115718 -0.546875,-0.246093 -0.0097,-0.0089 -0.01964,-0.01859 -0.02539,-0.02734 0.0083,-0.003 0.01708,-0.0048 0.02539,-0.0078 0.05613,-0.0215 0.110844,-0.04498 0.167969,-0.06836 0.01613,-0.0059 0.02834,-0.0098 0.04297,-0.01563 0.06688,-0.02688 0.132812,-0.05473 0.195312,-0.08398 0.0072,-0.0039 0.01411,-0.0073 0.02148,-0.01172 0.05512,-0.02538 0.107485,-0.0527 0.16211,-0.08008 0.01463,-0.0077 0.02739,-0.01473 0.04102,-0.02148 0.05862,-0.03175 0.118249,-0.06548 0.171874,-0.09961 0.109875,-0.07088 0.214313,-0.148953 0.304688,-0.236328 0.04637,-0.04387 0.08991,-0.08938 0.128906,-0.140625 0.09763,-0.128875 0.174281,-0.291547 0.191406,-0.466797 8.76e-4,-0.02538 1e-6,-0.0513 0,-0.07617 0,-0.03213 9.4e-5,-0.06395 -0.0039,-0.0957 l 0,-0.01367 c 0.494625,-0.263625 1.003016,-0.516203 1.291016,-0.626953 0.21875,-0.085 0.463766,-0.137719 0.697266,-0.136719 z m 7.5625,0 c 0.233,10e-4 0.452156,0.06349 0.628906,0.16211 0.165,0.09375 0.307219,0.311015 0.324218,0.33789 -0.201124,0.110875 -0.389125,0.216266 -0.546874,0.306641 -0.230376,0.132375 -0.381844,0.222656 -0.464844,0.285156 -0.256375,0.18175 -0.381328,0.431203 -0.408203,0.642578 l 0.0039,0.0332 c -0.6885,0.2075 -1.469672,0.397876 -1.966797,0.59375 -0.17575,0.06925 -0.32175,0.09375 -0.4375,0.09375 -0.262625,-0.0015 -0.423453,-0.115718 -0.548828,-0.246093 -0.022,-0.02587 -0.0455,-0.04984 -0.0625,-0.07422 0.282125,-0.109875 0.542922,-0.232359 0.763672,-0.380859 0.152875,-0.103 0.287578,-0.218782 0.392578,-0.363282 0.104875,-0.144 0.175328,-0.324203 0.173828,-0.517578 l 0,-0.02344 c 0.546875,-0.2925 1.129344,-0.588891 1.449219,-0.712891 0.219625,-0.0845 0.465844,-0.136719 0.699219,-0.136719 z m 3.77539,0 c 0.231875,0 0.448735,0.05119 0.63086,0.164063 0.122324,0.0777 0.230316,0.182586 0.324218,0.335937 l -0.002,0.002 c -0.206625,0.110874 -0.395484,0.215765 -0.552734,0.30664 -0.226125,0.130875 -0.377938,0.220703 -0.460938,0.283203 -0.26025,0.187 -0.385328,0.446782 -0.408203,0.660157 l 0,0.02148 c -0.698492,0.211337 -1.456418,0.387876 -1.960937,0.58789 -0.17575,0.06925 -0.319828,0.09375 -0.439453,0.09375 -0.261126,-0.0015 -0.424782,-0.116218 -0.550782,-0.246093 -0.01313,-0.01425 -0.02541,-0.02884 -0.03516,-0.04297 0.296375,-0.111875 0.576172,-0.236344 0.810547,-0.386719 0.161125,-0.105375 0.307672,-0.225172 0.419922,-0.373047 0.109875,-0.1455 0.1875,-0.331453 0.1875,-0.533203 0,-0.02725 -0.003,-0.05516 -0.0039,-0.08203 0.511125,-0.273875 1.044376,-0.539047 1.34375,-0.654297 0.21575,-0.0835 0.463766,-0.137719 0.697266,-0.136719 z m -40.453125,0.3125 c -0.08788,0.04838 -0.176219,0.0952 -0.261719,0.142578 l 0,-0.002 0.261719,-0.140625 z m 11.369141,0.111328 c -0.07575,0.04188 -0.146922,0.08305 -0.216797,0.123047 l 0,-0.0059 0.216797,-0.117188 z m 30.720703,0.847657 0,0.988281 c -0.101625,0.03275 -0.204078,0.06781 -0.283203,0.101562 -0.17475,0.06925 -0.320828,0.09375 -0.439453,0.09375 -0.263625,-0.002 -0.422953,-0.116218 -0.548829,-0.246093 -0.01325,-0.01462 -0.02498,-0.02834 -0.03711,-0.04297 0.297875,-0.11125 0.569858,-0.236344 0.802735,-0.386719 0.162624,-0.1055 0.307671,-0.225547 0.419921,-0.373047 0.02925,-0.043 0.06144,-0.08739 0.08594,-0.134765 z m -9.501953,1.074219 c 0.04738,0.081 0.115718,0.18364 0.214844,0.291015 0.196249,0.214375 0.53375,0.443359 1,0.443359 l 0.0078,0 c 0.206125,0 0.430219,-0.04147 0.667969,-0.136718 0.429625,-0.170875 1.180687,-0.34961 1.898437,-0.56836 0.04788,0.07575 0.113297,0.167969 0.201172,0.261719 0.194375,0.214375 0.534703,0.443359 1.001953,0.443359 l 0.0039,0 c 0.207625,0 0.430671,-0.04147 0.669921,-0.136718 0.427794,-0.171043 1.181957,-0.3482 1.904297,-0.56836 0.04626,0.07588 0.107704,0.167262 0.19336,0.261719 0.19775,0.214375 0.537109,0.443359 1.005859,0.443359 l 0.0039,0 c 0.204125,0 0.429672,-0.04147 0.669922,-0.136718 l 0.002,0 0.0078,-0.0039 c 0.0034,-0.002 0.01261,-0.0053 0.02148,-0.0078 0,0.19 0.002,1.830078 0.002,1.830078 0.001,2.772935 -0.285976,6.3714 -1.18164,10.464844 -0.005,-1.83e-4 -0.01059,1.8e-4 -0.01563,0 -0.1255,-0.0034 -0.246579,-0.0059 -0.361329,-0.0059 -0.714374,0 -1.225531,0.08 -1.660156,0.328124 -0.431125,0.249 -0.729875,0.62511 -1.09375,1.13086 -0.690875,0.967875 -1.245093,1.718797 -1.464844,2.013672 l -6.332031,0 c 0.17925,-0.371625 0.423297,-0.882813 0.591797,-1.273438 0.122,-0.283625 0.21725,-0.587469 0.21875,-0.902344 0.0049,-0.297875 -0.102609,-0.627468 -0.365234,-0.855468 -0.25975,-0.2295 -0.626969,-0.349141 -1.105469,-0.384766 -0.524875,-0.03713 -0.957578,-0.05859 -1.330078,-0.05859 -0.715375,0 -1.224125,0.07963 -1.65625,0.328125 -0.43125,0.25 -0.730422,0.627063 -1.091797,1.132813 -0.692375,0.967875 -1.246594,1.718797 -1.464844,2.013672 l -1.435547,0 -7.103515,-0.0059 0,-0.603515 c 0.294375,-0.21825 1.043844,-0.773469 2.011718,-1.464844 0.505376,-0.360375 0.88036,-0.658219 1.13086,-1.089844 0.247625,-0.432125 0.330078,-0.941422 0.330078,-1.654297 0,-0.374 -0.02155,-0.808609 -0.06055,-1.333984 -0.03663,-0.48 -0.155687,-0.845672 -0.382812,-1.107422 -0.228,-0.26325 -0.557594,-0.370562 -0.855469,-0.367187 -0.314875,0.002 -0.619219,0.0967 -0.902344,0.220703 -0.391625,0.168875 -0.900359,0.412172 -1.271484,0.591797 l 0,-6.578125 c 0.30175,-0.2265 1.072281,-0.806703 1.941406,-1.455078 0.372,-0.277376 0.759219,-0.565954 1.136719,-0.845704 0.13525,0.05025 0.287984,0.08008 0.458984,0.08008 l 0.0059,0 c 0.206126,8.75e-4 0.428172,-0.04147 0.669922,-0.136718 0.42625,-0.171375 1.179266,-0.34911 1.900391,-0.56836 0.04537,0.07625 0.106891,0.166969 0.197266,0.261719 0.194375,0.214875 0.535156,0.443359 1.003906,0.443359 l 0.0039,0 c 0.206,0 0.429672,-0.04052 0.669922,-0.134765 0.40925,-0.162625 1.116719,-0.336969 1.808594,-0.542969 l 0.0039,0.0039 0.04102,-0.01367 c 0.04637,0.07075 0.106046,0.156266 0.185547,0.244141 0.195374,0.214375 0.535156,0.443359 1.003906,0.443359 l 0.0059,0 c 0.205,0 0.427344,-0.04197 0.667969,-0.136718 0.402875,-0.161125 1.09675,-0.327078 1.78125,-0.533203 l 0,0.002 0.03906,-0.0098 c 0.043,0.06987 0.101563,0.150875 0.179688,0.234375 0.196375,0.214375 0.537531,0.443359 1.003906,0.443359 l 0.0059,0 c 0.205124,8.75e-4 0.429171,-0.04147 0.669921,-0.136718 0.442875,-0.18025 1.241735,-0.363282 1.990235,-0.597656 z m -44.234375,24.623046 1.429687,0 4.291016,0 c -0.09025,0.183625 -0.193375,0.398438 -0.296875,0.617188 -0.106375,0.227625 -0.211953,0.454094 -0.298828,0.652344 -0.01075,0.02788 -0.02441,0.05864 -0.03516,0.08789 -0.08688,0.214375 -0.152781,0.437016 -0.175781,0.666016 -0.0039,0.04937 -0.0078,0.09922 -0.0078,0.152344 -0.0025,0.185625 0.03906,0.383375 0.132812,0.5625 0.05762,0.108 0.13675,0.20464 0.234375,0.291015 0.24175,0.2115 0.571672,0.328094 0.998047,0.371094 0.03513,0.0049 0.0693,0.0087 0.107422,0.01172 0.26225,0.019 0.501531,0.03309 0.722656,0.04297 0.223125,0.01025 0.431141,0.01563 0.619141,0.01563 0.710375,0 1.218266,-0.08162 1.65039,-0.328126 0.430626,-0.252499 0.727516,-0.626406 1.087891,-1.128906 0.21575,-0.30225 0.417438,-0.584437 0.601563,-0.835937 0.402875,-0.555625 0.713406,-0.97511 0.863281,-1.177735 l 1.431641,0 5.353515,0 0,2.814454 c -0.372625,-0.18075 -0.881859,-0.422876 -1.271484,-0.59375 -0.0195,-0.0089 -0.04145,-0.01614 -0.06445,-0.02539 -0.2285,-0.09375 -0.467797,-0.1685 -0.716797,-0.1875 l -0.0039,0 c 0,0 -0.0035,-9.53e-4 -0.0059,-0.002 -0.03663,-0.0015 -0.07416,-0.002 -0.113281,-0.002 -0.295375,-0.0049 -0.625016,0.103109 -0.853516,0.365234 -0.206,0.232 -0.321765,0.548406 -0.36914,0.957031 -0.0072,0.0455 -0.0127,0.09416 -0.01758,0.144532 -0.03513,0.4785 -0.05277,0.880296 -0.05664,1.232421 l 0,0.105469 c 0,0.08637 0.0014,0.168953 0.0039,0.251953 0.0049,0.21825 0.02249,0.417485 0.05273,0.59961 0.05037,0.30525 0.134859,0.566312 0.271484,0.804687 0.185625,0.315875 0.434031,0.560047 0.753906,0.810547 0.117125,0.09175 0.24325,0.183625 0.375,0.28125 0.432125,0.306125 0.81975,0.585937 1.140625,0.820313 0.40675,0.295374 0.711375,0.522859 0.875,0.646484 l 0,5.716797 c -0.20175,-0.09762 -0.443375,-0.212922 -0.6875,-0.326172 -0.102625,-0.04788 -0.208469,-0.0977 -0.308594,-0.142578 -0.09663,-0.04537 -0.191297,-0.08555 -0.279297,-0.123047 -0.282125,-0.123625 -0.583562,-0.219328 -0.898437,-0.220703 -0.105,-0.0025 -0.214313,0.01081 -0.320313,0.03906 -0.197749,0.05225 -0.387156,0.15725 -0.535156,0.328125 -0.2075,0.236875 -0.323719,0.556578 -0.371094,0.970703 -0.0049,0.04637 -0.01162,0.09034 -0.01562,0.136719 -0.03263,0.475625 -0.05414,0.876359 -0.05664,1.22461 -0.0014,0.0365 0,0.07317 0,0.107421 0,0.084 0.0014,0.163485 0.0039,0.240235 0.0049,0.212375 0.02195,0.40864 0.04883,0.58789 0.05038,0.3155 0.136266,0.585422 0.275391,0.826172 0.05962,0.106875 0.129781,0.201172 0.207031,0.294922 0.234375,0.285625 0.541125,0.523828 0.921875,0.798828 l 0.0039,0 c 0.493125,0.35 0.929219,0.665047 1.277344,0.919922 0.335375,0.2455 0.587875,0.434516 0.734375,0.541016 l 0,4.496094 C 32.464328,77.637687 23.201219,70.676687 16.902344,58.257812 c -0.05375,0.04738 -0.149297,0.125547 -0.232422,0.185547 0.08312,-0.06 0.162531,-0.123484 0.238281,-0.193359 0.05462,-0.05125 0.106953,-0.1025 0.158203,-0.15625 0.01375,-0.01463 0.02727,-0.02834 0.04102,-0.04297 0.04387,-0.04975 0.08744,-0.101547 0.132812,-0.154297 0.0072,-0.0098 0.01411,-0.01519 0.02148,-0.02344 0.05125,-0.06162 0.09914,-0.128985 0.15039,-0.193359 0.01462,-0.022 0.0303,-0.0415 0.04492,-0.0625 0.04488,-0.05662 0.08977,-0.118188 0.134766,-0.179688 0.0072,-0.0097 0.0127,-0.01759 0.01758,-0.02734 0.346625,-0.484375 0.658656,-0.913515 0.910156,-1.259765 0.03175,-0.043 0.06142,-0.08405 0.0918,-0.123047 0.209,-0.284125 0.367641,-0.501985 0.462891,-0.63086 z m 26.859375,0 2.667968,0 c 0.157625,0.211875 0.490625,0.664516 0.921876,1.259766 0.166,0.231875 0.34814,0.483906 0.541015,0.753906 0.166,0.2295 0.317938,0.432625 0.476563,0.609375 0.100125,0.11475 0.201125,0.215844 0.3125,0.308594 0.09375,0.07813 0.191328,0.147937 0.298828,0.210937 0.432125,0.246501 0.940344,0.330001 1.652344,0.328126 0.373499,0 0.81064,-0.02142 1.33789,-0.06055 0.01863,-0.0015 0.03424,-0.002 0.05273,-0.002 0.3785,-0.03325 0.686,-0.122594 0.921876,-0.277344 0.01075,-0.0074 0.02092,-0.01273 0.0293,-0.02148 0.01212,-0.0059 0.02441,-0.01669 0.03516,-0.02344 0.0235,-0.01613 0.04594,-0.03702 0.07031,-0.05664 0,0 0.002,0 0.002,0 0.26125,-0.2285 0.365781,-0.556187 0.363282,-0.851562 -0.0024,-0.2945 -0.08348,-0.577578 -0.19336,-0.845703 -0.0084,-0.021 -0.02092,-0.041 -0.0293,-0.0625 -0.01463,-0.04 -0.03411,-0.07822 -0.05273,-0.121094 -0.15625,-0.3565 -0.359406,-0.780828 -0.519531,-1.111328 -0.0049,-0.01125 -0.01075,-0.02436 -0.01563,-0.03711 l 5.658203,0 c 0.21975,0.295375 0.775344,1.045922 1.464844,2.013672 0.0063,0.0097 0.01216,0.01859 0.01953,0.02734 0.345625,0.477625 0.634265,0.837906 1.041015,1.082031 0.0097,0.0074 0.01659,0.01116 0.02734,0.01953 0.432125,0.2465 0.938891,0.330001 1.650391,0.328126 0.32225,0 0.690344,-0.01455 1.121093,-0.04492 -1.486874,2.643125 -3.28425,5.331093 -5.4375,8.011718 -2.983499,3.711875 -6.65814,7.408719 -11.166015,10.949219 -0.06838,-0.165125 -0.154375,-0.308031 -0.265625,-0.425781 -0.0035,-0.0019 -0.0063,-0.0029 -0.0098,-0.0078 -0.226,-0.231875 -0.531328,-0.324765 -0.814453,-0.322265 -0.09525,0 -0.190031,0.0113 -0.285156,0.0293 -0.209,0.03425 -0.411219,0.102125 -0.605469,0.1875 -0.391625,0.1685 -0.900359,0.411593 -1.271484,0.589843 l 0,-6.578125 c 0.03413,-0.02438 0.07181,-0.05522 0.117187,-0.08984 0.3525,-0.25825 1.039032,-0.760266 1.894531,-1.369141 0.506751,-0.36375 0.88036,-0.6635 1.13086,-1.09375 0.1905,-0.333 0.282156,-0.707547 0.316406,-1.185547 0.01112,-0.147 0.01367,-0.30275 0.01367,-0.46875 0,-0.3775 -0.02155,-0.813015 -0.06055,-1.33789 -0.01225,-0.149001 -0.03072,-0.288563 -0.05859,-0.414063 -0.0405,-0.179125 -0.09808,-0.338906 -0.173828,-0.472656 -0.04387,-0.08113 -0.09276,-0.152422 -0.15039,-0.216797 -0.02687,-0.02988 -0.05461,-0.05773 -0.08398,-0.08398 -0.0014,-0.003 -0.0039,-0.0039 -0.0078,-0.0078 -0.01075,-0.01212 -0.02681,-0.0205 -0.03906,-0.03125 -0.214875,-0.172375 -0.477984,-0.244687 -0.724609,-0.242187 -0.28075,9.99e-4 -0.554625,0.07764 -0.8125,0.18164 -0.03175,0.01162 -0.06102,0.02541 -0.08789,0.03516 -0.393,0.169375 -0.902312,0.414954 -1.273437,0.595704 l 0,-9.658204 z m 20.736328,0 0.890625,0 c -0.144,0.308125 -0.297422,0.619688 -0.451172,0.929688 0.05351,0.117139 0.107468,0.234386 0.154297,0.339844 -0.171,-0.388625 -0.4145,-0.897907 -0.59375,-1.269532 z"
       transform="matrix(0.8,0,0,-0.8,0,92.63)"
       id="path130"
       inkscape:connector-curvature="0" /></g></svg>