<?xml version="1.0" encoding="UTF-8"?>
<!-- Created with Inkscape (http://www.inkscape.org/) -->
<svg width="150mm" height="66.657mm" version="1.1" viewBox="0 0 566.93 251.93" xmlns="http://www.w3.org/2000/svg">
 <g transform="matrix(1.3333 0 0 -1.3333 .066667 283)">
  <g transform="matrix(.089001 0 0 .089001 -.0054995 23.346)" fill="#fff">
   <path d="m364.36 2092.3c-46.035-19.85-86.004-46.69-119.86-80.54-33.883-33.88-60.719-73.53-80.543-118.9-19.82-45.39-29.719-94.28-29.719-146.7h-134.24v-199.42h134.24v-836.1h230.12v836.1h214.78v199.42h-214.78c0 26.86 5.411 51.77 16.289 74.8 10.848 23.01 25.911 43.15 45.082 60.39 19.168 17.27 41.52 31 67.106 41.25 25.562 10.2 53.051 15.34 82.473 15.34h3.832v184.08h-69.039c-51.145 0-99.707-9.93-145.74-29.72"/>
   <path d="m722.95 710.62h230.12v1380.7h-230.12v-1380.7"/>
   <path d="m1355.8 1324.3c10.2 35.76 25.89 68.71 46.96 98.76 21.1 30.02 45.71 55.9 73.85 77.65 28.09 21.73 59.44 38.67 93.95 50.82 34.53 12.13 70.96 18.22 109.3 18.22 38.37 0 74.81-6.09 109.31-18.22 34.53-12.15 66.16-29.09 94.93-50.82 28.76-21.75 53.37-47.63 73.82-77.65 20.45-30.05 35.78-63 46.03-98.76zm725.81 291.49c-51.77 49.84-111.86 89.16-180.25 117.92-68.41 28.77-142.23 43.16-221.5 43.16-77.98 0-151.48-14.39-220.52-43.16-69.03-28.76-129.13-68.08-180.24-117.92-51.15-49.87-91.77-108.06-121.79-174.51-30.05-66.48-45.06-137.45-45.06-212.88s15.01-146.4 45.06-212.85c30.02-66.489 70.64-124.65 121.79-174.52 51.11-49.84 111.21-89.16 180.24-117.92 69.04-28.773 142.54-43.16 220.52-43.16 60.1 0 117.96 8.648 173.56 25.887 55.61 17.273 106.43 41.55 152.46 72.871 46.01 31.332 86.58 68.39 121.77 111.24 35.15 42.828 62.94 89.789 83.42 140.93h-255.05c-29.43-43.479-68.42-78.311-116.98-104.49-48.59-26.218-101.64-39.32-159.18-39.32-39.64 0-77.35 6.711-113.14 20.152-35.78 13.399-68.06 31.918-96.83 55.598-28.76 23.633-53.4 51.451-73.82 83.421-20.47 31.93-35.18 67.11-44.1 105.45h889.77c3.83 25.56 5.76 51.12 5.76 76.71 0 75.43-14.71 146.4-44.1 212.88-29.42 66.45-70.02 124.64-121.79 174.51"/>
   <path d="m2602.2 1324.3c10.2 35.76 25.89 68.71 46.96 98.76 21.1 30.02 45.71 55.9 73.85 77.65 28.09 21.73 59.44 38.67 93.95 50.82 34.53 12.13 70.97 18.22 109.31 18.22 38.36 0 74.8-6.09 109.3-18.22 34.54-12.15 66.16-29.09 94.93-50.82 28.77-21.75 53.37-47.63 73.82-77.65 20.45-30.05 35.79-63 46.04-98.76zm725.81 291.49c-51.77 49.84-111.86 89.16-180.25 117.92-68.41 28.77-142.23 43.16-221.49 43.16-77.99 0-151.48-14.39-220.52-43.16-69.04-28.76-129.13-68.08-180.25-117.92-51.15-49.87-91.77-108.06-121.79-174.51-30.05-66.48-45.06-137.45-45.06-212.88s15.01-146.4 45.06-212.85c30.02-66.489 70.64-124.65 121.79-174.52 51.12-49.84 111.21-89.16 180.25-117.92 69.04-28.773 142.53-43.16 220.52-43.16 60.09 0 117.95 8.648 173.56 25.887 55.6 17.273 106.42 41.55 152.46 72.871 46 31.332 86.57 68.39 121.76 111.24 35.16 42.828 62.95 89.789 83.42 140.93h-255.05c-29.42-43.479-68.41-78.311-116.98-104.49-48.59-26.218-101.64-39.32-159.17-39.32-39.65 0-77.36 6.711-113.14 20.152-35.79 13.399-68.06 31.918-96.83 55.598-28.77 23.633-53.41 51.451-73.83 83.421-20.47 31.93-35.18 67.11-44.1 105.45h889.77c3.84 25.56 5.77 51.12 5.77 76.71 0 75.43-14.71 146.4-44.11 212.88-29.42 66.45-70.01 124.64-121.79 174.51"/>
   <path d="m4161.3 887.04h-9.6c-39.64 0-77.03 7.672-112.19 23-35.16 15.371-65.53 35.793-91.09 61.371-25.59 25.559-46.01 55.91-61.34 91.09-15.37 35.16-23.03 72.55-23.03 112.19v372.03h297.25v199.42h-297.25v345.19h-230.12v-912.8c0-69.04 13.1-133.95 39.32-194.64 26.18-60.743 61.67-113.49 106.42-158.22 44.73-44.762 97.48-80.242 158.23-106.43 60.69-26.179 125.59-39.316 194.63-39.316h615.39v207.12h-586.62"/>
   <path d="m2385.6 306.77h56.8v-46.09h1.27c3.79 8 8.83 15.261 15.14 21.781 6.32 6.527 13.37 12.098 21.16 16.73 7.77 4.649 16.3 8.321 25.56 11.059 9.24 2.719 18.51 4.109 27.77 4.109 9.25 0 17.68-1.277 25.25-3.808l-2.53-61.199c-4.64 1.25-9.26 2.308-13.88 3.148-4.64 0.84-9.26 1.25-13.89 1.25-27.77 0-49.03-7.781-63.75-23.359-14.73-15.551-22.1-39.75-22.1-72.571v-150.23h-56.8v299.18"/>
   <path d="m2672.7 157.2c0-15.179 2.31-29.148 6.95-41.988 4.62-12.832 11.15-23.789 19.56-32.82 8.42-9.0508 18.72-16.199 30.93-21.449 12.2-5.2812 25.88-7.9101 41.03-7.9101s28.81 2.6289 41.02 7.9101c12.21 5.25 22.52 12.398 30.93 21.449 8.42 9.0313 14.93 19.988 19.57 32.82 4.63 12.84 6.94 26.809 6.94 41.988 0 15.141-2.31 29.121-6.94 41.949-4.64 12.84-11.15 23.774-19.57 32.821-8.41 9.062-18.72 16.211-30.93 21.48-12.21 5.25-25.87 7.891-41.02 7.891s-28.83-2.641-41.03-7.891c-12.21-5.269-22.51-12.418-30.93-21.48-8.41-9.047-14.94-19.981-19.56-32.821-4.64-12.828-6.95-26.808-6.95-41.949zm-60.59 0c0 21.86 4.1 42.281 12.3 61.199 8.21 18.954 19.47 35.571 33.77 49.872 14.31 14.3 31.14 25.558 50.5 33.769s40.18 12.32 62.49 12.32c22.3 0 43.13-4.109 62.49-12.32 19.35-8.211 36.18-19.469 50.49-33.769 14.31-14.301 25.56-30.918 33.77-49.872 8.2-18.918 12.31-39.339 12.31-61.199 0-21.89-4.11-42.418-12.31-61.558-8.21-19.152-19.46-35.762-33.77-49.871-14.31-14.09-31.14-25.238-50.49-33.449-19.36-8.2109-40.19-12.32-62.49-12.32-22.31 0-43.13 4.1094-62.49 12.32-19.36 8.211-36.19 19.359-50.5 33.449-14.3 14.109-25.56 30.719-33.77 49.871-8.2 19.14-12.3 39.668-12.3 61.558"/>
   <path d="m3175.8 53.031c15.15 0 28.81 2.6289 41.03 7.9101 12.2 5.25 22.51 12.398 30.92 21.449 8.42 9.0313 14.94 19.988 19.58 32.82 4.62 12.84 6.93 26.809 6.93 41.988 0 15.141-2.31 29.121-6.93 41.949-4.64 12.84-11.16 23.774-19.58 32.821-8.41 9.062-18.72 16.211-30.92 21.48-12.22 5.25-25.88 7.891-41.03 7.891-15.14 0-28.83-2.641-41.03-7.891-12.21-5.269-22.51-12.418-30.93-21.48-8.41-9.047-14.94-19.981-19.56-32.821-4.64-12.828-6.95-26.808-6.95-41.949 0-15.179 2.31-29.148 6.95-41.988 4.62-12.832 11.15-23.789 19.56-32.82 8.42-9.0508 18.72-16.199 30.93-21.449 12.2-5.2812 25.89-7.9101 41.03-7.9101zm-155.27 431.74h56.8v-220.9h1.27c10.1 15.551 24.62 27.867 43.56 36.891 18.92 9.058 39.12 13.597 60.59 13.597 23.13 0 44.06-4.019 62.8-11.988 18.72-8.019 34.71-19.062 47.96-33.152 13.26-14.11 23.46-30.719 30.62-49.867 7.15-19.141 10.73-39.864 10.73-62.153 0-22.328-3.58-42.937-10.73-61.859-7.16-18.961-17.36-35.57-30.62-49.871-13.25-14.297-29.24-25.48-47.96-33.469-18.74-7.9688-39.67-12-62.8-12-20.2 0-39.87 4.4414-59.02 13.27-19.15 8.8399-34.19 21.242-45.13 37.23h-1.27v-42.91h-56.8v477.18"/>
   <path d="m3471.2 157.2c0-15.179 2.31-29.148 6.95-41.988 4.62-12.832 11.15-23.789 19.56-32.82 8.42-9.0508 18.73-16.199 30.93-21.449 12.2-5.2812 25.88-7.9101 41.04-7.9101 15.14 0 28.8 2.6289 41.01 7.9101 12.21 5.25 22.52 12.398 30.93 21.449 8.42 9.0313 14.93 19.988 19.57 32.82 4.63 12.84 6.94 26.809 6.94 41.988 0 15.141-2.31 29.121-6.94 41.949-4.64 12.84-11.15 23.774-19.57 32.821-8.41 9.062-18.72 16.211-30.93 21.48-12.21 5.25-25.87 7.891-41.01 7.891-15.16 0-28.84-2.641-41.04-7.891-12.2-5.269-22.51-12.418-30.93-21.48-8.41-9.047-14.94-19.981-19.56-32.821-4.64-12.828-6.95-26.808-6.95-41.949zm-60.59 0c0 21.86 4.1 42.281 12.3 61.199 8.21 18.954 19.47 35.571 33.77 49.872 14.31 14.3 31.14 25.558 50.5 33.769s40.19 12.32 62.5 12.32c22.29 0 43.12-4.109 62.48-12.32 19.35-8.211 36.18-19.469 50.49-33.769 14.31-14.301 25.56-30.918 33.78-49.872 8.19-18.918 12.3-39.339 12.3-61.199 0-21.89-4.11-42.418-12.3-61.558-8.22-19.152-19.47-35.762-33.78-49.871-14.31-14.09-31.14-25.238-50.49-33.449-19.36-8.2109-40.19-12.32-62.48-12.32-22.31 0-43.14 4.1094-62.5 12.32-19.36 8.211-36.19 19.359-50.5 33.449-14.3 14.109-25.56 30.719-33.77 49.871-8.2 19.14-12.3 39.668-12.3 61.558"/>
   <path d="m3979.3 257.53h-81.42v-135.68c0-8.43 0.22-16.75 0.64-24.942 0.41-8.211 1.98-15.582 4.73-22.102 2.73-6.5273 6.95-11.777 12.62-15.77 5.68-4 13.99-6.0078 24.93-6.0078 6.73 0 13.68 0.6484 20.83 1.8984s13.68 3.5586 19.58 6.9297v-51.738c-6.75-3.7813-15.47-6.4219-26.2-7.8906-10.73-1.4609-19.05-2.2305-24.93-2.2305-21.89 0-38.82 3.082-50.81 9.1719-11.99 6.0898-20.83 13.969-26.51 23.68-5.69 9.6484-9.06 20.5-10.1 32.488-1.06 12-1.58 24.102-1.58 36.301v155.89h-65.64v49.239h65.64v83.941h56.8v-83.941h81.42v-49.239"/>
   <path d="m4082.9 306.77h56.81v-299.18h-56.81zm-13.25 107.3c0 11.371 4.1 21.149 12.3 29.371 8.21 8.18 17.99 12.289 29.35 12.289 11.37 0 21.15-4.109 29.36-12.289 8.21-8.222 12.3-18 12.3-29.371s-4.09-21.129-12.3-29.34c-8.21-8.21-17.99-12.32-29.36-12.32-11.36 0-21.14 4.11-29.35 12.32-8.2 8.211-12.3 17.969-12.3 29.34"/>
   <path d="m4455.8 227.24c-10.52 10.934-21.56 19.25-33.13 24.934-11.58 5.687-25.36 8.508-41.35 8.508-15.56 0-29.13-2.821-40.7-8.508-11.58-5.684-21.26-13.461-29.04-23.352-7.79-9.898-13.68-21.242-17.67-34.07-4-12.859-6-26.219-6-40.078 0-13.902 2.31-27.063 6.95-39.461 4.62-12.422 11.15-23.25 19.56-32.52 8.42-9.2422 18.52-16.5 30.29-21.75 11.79-5.2812 25.04-7.9101 39.77-7.9101 15.99 0 29.66 2.8476 41.03 8.5273 11.37 5.6914 21.88 13.98 31.55 24.941l40.41-40.41c-14.74-16.418-31.88-28.191-51.44-35.352-19.57-7.1485-40.3-10.738-62.18-10.738-23.15 0-44.29 3.8086-63.43 11.371-19.16 7.5898-35.66 18.188-49.55 31.898-13.89 13.652-24.62 30.07-32.19 49.211-7.57 19.14-11.37 40.3-11.37 63.442 0 23.137 3.8 44.398 11.37 63.758 7.57 19.332 18.19 35.968 31.87 49.84 13.68 13.902 30.08 24.718 49.24 32.519 19.14 7.781 40.49 11.672 64.06 11.672 21.88 0 42.82-3.891 62.8-11.672 19.99-7.801 37.35-19.68 52.07-35.668l-42.92-39.133"/>
   <path d="m4724.1 231.67c-6.73 8.398-15.05 15.449-24.92 21.129-9.89 5.679-21.99 8.539-36.3 8.539-13.47 0-25.15-2.86-35.03-8.539-9.89-5.68-14.84-13.981-14.84-24.93 0-8.84 2.85-15.992 8.53-21.461 5.68-5.461 12.41-9.898 20.2-13.238 7.78-3.371 16.1-5.902 24.94-7.59 8.83-1.684 16.41-3.152 22.71-4.402 12.2-2.969 23.67-6.532 34.4-10.739 10.73-4.222 19.99-9.679 27.78-16.429 7.77-6.711 13.88-14.922 18.3-24.602 4.41-9.68 6.63-21.461 6.63-35.351 0-16.828-3.59-31.238-10.73-43.238-7.16-11.988-16.42-21.781-27.77-29.332-11.37-7.5899-24.31-13.059-38.82-16.43-14.52-3.3672-29.15-5.0586-43.87-5.0586-24.84 0-46.61 3.8086-65.33 11.371-18.73 7.5898-35.45 21.48-50.18 41.66l42.92 35.348c9.25-9.25 19.57-17.457 30.93-24.609 11.36-7.1484 25.25-10.738 41.66-10.738 7.15 0 14.41 0.7304 21.78 2.2304 7.36 1.4571 13.88 3.7774 19.56 6.9297 5.69 3.1484 10.31 7.1484 13.89 11.988 3.57 4.8398 5.37 10.422 5.37 16.719 0 8.4336-2.64 15.372-7.89 20.832-5.28 5.469-11.58 9.79-18.94 12.95-7.37 3.148-15.14 5.679-23.36 7.582-8.21 1.879-15.45 3.449-21.78 4.726-12.2 2.942-23.77 6.313-34.7 10.09-10.95 3.781-20.63 8.844-29.04 15.152-8.42 6.301-15.15 14.301-20.19 23.981-5.06 9.68-7.59 21.668-7.59 35.969 0 15.582 3.26 29.148 9.79 40.73 6.52 11.559 15.14 21.129 25.88 28.719 10.73 7.562 22.93 13.242 36.6 17.051 13.68 3.781 27.47 5.679 41.35 5.679 20.2 0 39.55-3.808 58.06-11.371 18.52-7.578 33.24-20.199 44.19-37.867l-44.19-33.449"/>
  </g>
 </g>
</svg>
