<?xml version="1.0" encoding="UTF-8" standalone="no"?>
<!-- Created with Inkscape (http://www.inkscape.org/) -->

<svg
   xmlns:dc="http://purl.org/dc/elements/1.1/"
   xmlns:cc="http://creativecommons.org/ns#"
   xmlns:rdf="http://www.w3.org/1999/02/22-rdf-syntax-ns#"
   xmlns:svg="http://www.w3.org/2000/svg"
   xmlns="http://www.w3.org/2000/svg"
   xmlns:sodipodi="http://sodipodi.sourceforge.net/DTD/sodipodi-0.dtd"
   xmlns:inkscape="http://www.inkscape.org/namespaces/inkscape"
   id="svg2"
   version="1.1"
   inkscape:version="0.91 r13725"
   xml:space="preserve"
   width="650"
   height="650"
   viewBox="0 0 649.99999 649.99998"
   sodipodi:docname="imperial-logo.svg"
   inkscape:export-filename="/home/jtebert/Copy/Projects/Programming/html/juliaebert.com/assets/imgs/logos/imperial-logo.png"
   inkscape:export-xdpi="90"
   inkscape:export-ydpi="90"><metadata
     id="metadata8"><rdf:RDF><cc:Work
         rdf:about=""><dc:format>image/svg+xml</dc:format><dc:type
           rdf:resource="http://purl.org/dc/dcmitype/StillImage" /><dc:title></dc:title></cc:Work></rdf:RDF></metadata><defs
     id="defs6" /><sodipodi:namedview
     pagecolor="#ffffff"
     bordercolor="#666666"
     borderopacity="1"
     objecttolerance="10"
     gridtolerance="10"
     guidetolerance="10"
     inkscape:pageopacity="0"
     inkscape:pageshadow="2"
     inkscape:window-width="1600"
     inkscape:window-height="900"
     id="namedview4"
     showgrid="false"
     inkscape:zoom="0.64426722"
     inkscape:cx="-70.392186"
     inkscape:cy="92.371407"
     inkscape:window-x="0"
     inkscape:window-y="0"
     inkscape:window-maximized="1"
     inkscape:current-layer="g10" /><g
     id="g10"
     inkscape:groupmode="layer"
     inkscape:label="ink_ext_XXXXXX"
     transform="matrix(1.25,0,0,-1.25,0,650)"><g
       id="g12"
       transform="matrix(0.14407495,0,0,0.14407495,-2.0321889e-6,191.78901)"
       style="fill:#f9f9f9;fill-opacity:1"><path
         d="m 0,548.484 74.4023,0 0,379.414 -74.4023,0 0,-379.414 z"
         style="fill:#f9f9f9;fill-opacity:1;fill-rule:nonzero;stroke:none"
         id="path14"
         inkscape:connector-curvature="0" /><path
         d="m 183.574,787.527 1.055,0 c 17.945,24.395 52.223,38.477 83.375,38.477 33.203,0 61.68,-13.555 77.539,-38.477 22.187,21.661 56.465,37.93 87.617,38.477 59.551,0.547 90.742,-36.875 91.797,-99.18 l 0,-177.793 -70.215,0 0,164.766 c 0,31.426 -10.547,63.945 -45.332,63.945 -33.769,0 -54.863,-20.566 -54.863,-67.715 l 0,-161.543 -70.195,0 0,165.313 c 0,37.93 -16.348,63.945 -46.426,63.945 -33.262,0 -53.805,-23.281 -53.805,-69.355 l 0,-159.903 -70.195,0 0,271.02 69.648,0 0,-31.977"
         style="fill:#f9f9f9;fill-opacity:1;fill-rule:nonzero;stroke:none"
         id="path16"
         inkscape:connector-curvature="0" /><path
         d="m 701.422,782.629 c 40.058,0 60.117,-46.625 60.117,-93.227 0,-47.695 -15.801,-104.062 -62.734,-104.062 -38.008,0 -64.922,38.476 -64.922,95.39 0,62.344 23.222,101.899 67.539,101.899 z m -67.539,36.875 -70.137,0 0,-406.547 70.137,0 0,169.141 c 19.551,-23.887 46.933,-40.094 79.101,-40.094 75.469,0 122.954,76.383 122.954,147.945 0,59.629 -33.735,136.055 -116.567,136.055 -31.66,0 -65.937,-16.27 -84.433,-43.887 l -1.055,0 0,37.387"
         style="fill:#f9f9f9;fill-opacity:1;fill-rule:nonzero;stroke:none"
         id="path18"
         inkscape:connector-curvature="0" /><path
         d="m 936.484,716.531 c -0.527,36.25 17.383,69.356 57.5,69.356 34.806,0 49.066,-28.184 46.406,-69.356 l -103.906,0 z m 169.926,-39.023 c 5.21,80.746 -29.09,148.496 -111.371,148.496 -75.449,0 -134.531,-53.125 -134.531,-136.602 0,-89.453 59.59,-147.398 139.277,-147.398 30.055,0 67.515,8.668 103.395,30.328 l -20.05,37.93 c -17.39,-12.442 -44.87,-21.699 -70.69,-21.699 -43.788,0 -78.592,37.968 -76.991,88.945 l 170.961,0"
         style="fill:#f9f9f9;fill-opacity:1;fill-rule:nonzero;stroke:none"
         id="path20"
         inkscape:connector-curvature="0" /><path
         d="m 1209.9,771.805 1.06,0 14.22,21.133 c 8.43,11.406 23.75,33.066 45.37,33.066 15.84,0 32.69,-8.691 47.5,-24.375 l -26.37,-49.902 c -11.6,5.976 -19,9.238 -33.24,9.238 -24.26,0 -48.03,-20.059 -48.03,-78.594 l 0,-133.887 -70.18,0 0,271.02 69.67,0 0,-47.699"
         style="fill:#f9f9f9;fill-opacity:1;fill-rule:nonzero;stroke:none"
         id="path22"
         inkscape:connector-curvature="0" /><path
         d="m 1410.66,819.504 0,-271.02 -70.13,0 0,271.02 70.13,0 z m -76.99,81.266 c 0,20.644 16.88,41.738 40.63,41.738 24.25,0 43.26,-20.586 43.26,-41.738 0,-23.282 -16.39,-45.489 -42.25,-45.489 -24.76,0 -41.64,22.207 -41.64,45.489"
         style="fill:#f9f9f9;fill-opacity:1;fill-rule:nonzero;stroke:none"
         id="path24"
         inkscape:connector-curvature="0" /><path
         d="m 1601.23,705.672 c 5.27,-79.649 -31.09,-115.449 -59.06,-115.449 -16.88,0 -31.7,16.25 -31.7,40.117 0,30.879 17.44,51.465 51.72,62.344 l 39.04,12.988 z m -1.03,-117.617 c 0,-14.629 1.56,-30.352 6.81,-39.571 l 74.42,0 c -8.46,18.985 -11.1,44.454 -11.1,66.133 l 0,110.547 c 0,84.57 -59.59,100.84 -108.14,100.84 -36.39,0 -68.56,-9.219 -101.31,-36.875 l 22.67,-34.141 c 18.5,16.27 39.61,27.641 69.71,27.641 22.68,0 44.28,-15.727 47.97,-40.649 l -62.27,-18.964 c -61.21,-17.871 -97.59,-47.149 -97.59,-98.672 0,-49.824 34.27,-82.34 75.43,-82.34 24.27,0 48.06,16.773 67.58,32.516 l 15.82,13.535"
         style="fill:#f9f9f9;fill-opacity:1;fill-rule:nonzero;stroke:none"
         id="path26"
         inkscape:connector-curvature="0" /><path
         d="m 1714.14,548.484 70.1289,0 0,398.398 -70.1289,0 0,-398.398 z"
         style="fill:#f9f9f9;fill-opacity:1;fill-rule:nonzero;stroke:none"
         id="path28"
         inkscape:connector-curvature="0" /><path
         d="m 2247.33,859.07 c -17.99,9.766 -48.03,21.133 -76.56,21.133 -75.94,0 -130.79,-54.746 -130.79,-140.937 0,-89.981 60.69,-143.086 132.91,-143.086 28.52,0 54.89,8.144 74.44,18.984 l 20.56,-47.168 c -22.67,-13.555 -62.24,-25.992 -98.14,-25.992 -128.24,0 -208.95,86.715 -208.95,198.336 0,103.539 80.24,194.062 209.97,194.062 38.55,0 74.45,-14.101 99.72,-29.273 l -23.16,-46.059"
         style="fill:#f9f9f9;fill-opacity:1;fill-rule:nonzero;stroke:none"
         id="path30"
         inkscape:connector-curvature="0" /><path
         d="m 2407.11,582.098 c -50.13,0 -63.82,57.441 -63.82,105.136 0,44.981 15.8,98.653 63.82,98.653 49.07,0 64.34,-53.672 64.34,-98.653 0,-47.695 -13.16,-105.136 -64.34,-105.136 z m 0,-40.094 c 82.87,0 138.71,61.207 138.71,145.23 0,87.813 -67.48,138.77 -138.71,138.77 -70.72,0 -138.22,-50.957 -138.22,-138.77 0,-84.023 55.92,-145.23 138.22,-145.23"
         style="fill:#f9f9f9;fill-opacity:1;fill-rule:nonzero;stroke:none"
         id="path32"
         inkscape:connector-curvature="0" /><path
         d="m 2576.08,548.484 70.2148,0 0,398.398 -70.2148,0 0,-398.398 z"
         style="fill:#f9f9f9;fill-opacity:1;fill-rule:nonzero;stroke:none"
         id="path34"
         inkscape:connector-curvature="0" /><path
         d="m 2690.51,548.484 70.1367,0 0,398.398 -70.1367,0 0,-398.398 z"
         style="fill:#f9f9f9;fill-opacity:1;fill-rule:nonzero;stroke:none"
         id="path36"
         inkscape:connector-curvature="0" /><path
         d="m 2865.82,716.531 c -0.58,36.25 17.37,69.356 57.45,69.356 34.86,0 49.08,-28.184 46.46,-69.356 l -103.91,0 z m 169.85,-39.023 c 5.29,80.746 -29.01,148.496 -111.31,148.496 -75.43,0 -134.59,-53.125 -134.59,-136.602 0,-89.453 59.63,-147.398 139.34,-147.398 30.03,0 67.5,8.668 103.41,30.328 l -20.06,37.93 c -17.38,-12.442 -44.86,-21.699 -70.7,-21.699 -43.77,0 -78.63,37.968 -77.03,88.945 l 170.94,0"
         style="fill:#f9f9f9;fill-opacity:1;fill-rule:nonzero;stroke:none"
         id="path38"
         inkscape:connector-curvature="0" /><path
         d="m 3438.83,716.531 c -0.51,36.25 17.4,69.356 57.52,69.356 34.79,0 49.08,-28.184 46.43,-69.356 l -103.95,0 z m 169.88,-39.023 c 5.26,80.746 -29,148.496 -111.3,148.496 -75.47,0 -134.55,-53.125 -134.55,-136.602 0,-89.453 59.59,-147.398 139.29,-147.398 30.08,0 67.54,8.668 103.4,30.328 l -20.04,37.93 c -17.42,-12.442 -44.84,-21.699 -70.7,-21.699 -43.81,0 -78.58,37.968 -77.03,88.945 l 170.93,0"
         style="fill:#f9f9f9;fill-opacity:1;fill-rule:nonzero;stroke:none"
         id="path40"
         inkscape:connector-curvature="0" /><path
         d="m 3199.69,782.629 c 42.23,0 63.83,-43.91 63.83,-91.059 0,-54.199 -20.06,-106.23 -67.03,-106.23 -40.61,0 -60.63,50.957 -60.63,103.539 0,52.555 18.46,93.75 63.83,93.75 z m 134.01,36.875 -70.18,0 0,-33.07 -1.04,0 c -14.76,24.394 -46.44,39.57 -78.63,39.57 -71.76,0 -122.4,-68.301 -122.4,-138.77 0,-86.718 45.92,-145.23 116.09,-145.23 40.12,0 67.52,22.75 84.94,45.523 l 1.04,0 0,-35.781 c 0,-62.867 -35.86,-92.148 -82.32,-92.148 -35.86,0 -65.94,7.05 -91.76,23.3 l -13.75,-44.433 c 31.15,-16.25 71.27,-25.508 110.8,-25.508 78.63,0 147.21,39.59 147.21,159.902 l 0,246.645"
         style="fill:#f9f9f9;fill-opacity:1;fill-rule:nonzero;stroke:none"
         id="path42"
         inkscape:connector-curvature="0" /><path
         d="m 0,385.84 74.9414,0 0,-328.3986 157.7146,0 0,-50.95702 L 0,6.48438 0,385.84"
         style="fill:#f9f9f9;fill-opacity:1;fill-rule:nonzero;stroke:none"
         id="path44"
         inkscape:connector-curvature="0" /><path
         d="m 644.348,245.508 c 25.031,26.015 59.949,38.496 94.945,38.496 64.957,0 96.066,-34.707 96.066,-102.988 l 0,-174.53162 -70.507,0 0,166.38662 c 0,37.918 -17.219,62.852 -55.536,62.852 -36.128,0 -64.421,-23.274 -64.421,-67.715 l 0,-161.52362 -70.524,0 0,270.97662 69.977,0 0,-31.953"
         style="fill:#f9f9f9;fill-opacity:1;fill-rule:nonzero;stroke:none"
         id="path46"
         inkscape:connector-curvature="0" /><path
         d="m 1017.97,240.586 c 44.44,0 67.19,-43.898 67.19,-91.016 0,-54.2302 -21.07,-106.2302 -70.53,-106.2302 -42.735,0 -63.829,50.9454 -63.829,103.5152 0,52.567 19.453,93.731 67.169,93.731 z m 67.19,-234.10162 70.52,0 0,398.33962 -70.52,0 0,-158.808 -1.12,0 c -16.65,23.886 -48.83,37.988 -84.919,37.988 C 924.68,284.004 872.5,215.691 872.5,145.234 872.5,58.5352 920.793,0 993.555,0 c 43.305,0 72.175,22.7539 90.485,45.5273 l 1.12,0 0,-39.04292"
         style="fill:#f9f9f9;fill-opacity:1;fill-rule:nonzero;stroke:none"
         id="path48"
         inkscape:connector-curvature="0" /><path
         d="m 1338.93,40.1172 c -52.72,0 -67.21,57.4297 -67.21,105.1168 0,44.969 16.64,98.633 67.21,98.633 51.67,0 67.73,-53.664 67.73,-98.633 0,-47.6871 -13.84,-105.1168 -67.73,-105.1168 z M 1338.93,0 c 87.16,0 146,61.25 146,145.234 0,87.774 -71.04,138.77 -146,138.77 -74.42,0 -145.49,-50.996 -145.49,-138.77 C 1193.44,61.25 1252.31,0 1338.93,0"
         style="fill:#f9f9f9;fill-opacity:1;fill-rule:nonzero;stroke:none"
         id="path50"
         inkscape:connector-curvature="0" /><path
         d="m 1593.24,245.508 c 25,26.015 59.97,38.496 94.94,38.496 64.96,0 96.08,-34.707 96.08,-102.988 l 0,-174.53162 -70.51,0 0,166.38662 c 0,37.918 -17.22,62.852 -55.56,62.852 -36.06,0 -64.4,-23.274 -64.4,-67.715 l 0,-161.52362 -70.52,0 0,270.97662 69.97,0 0,-31.953"
         style="fill:#f9f9f9;fill-opacity:1;fill-rule:nonzero;stroke:none"
         id="path52"
         inkscape:connector-curvature="0" /><path
         d="m 388.84,40.1172 c -52.805,0 -67.199,57.4297 -67.199,105.1168 0,44.969 16.64,98.633 67.199,98.633 51.633,0 67.742,-53.664 67.742,-98.633 0,-47.6871 -13.922,-105.1168 -67.742,-105.1168 z M 388.84,0 c 87.156,0 146.012,61.25 146.012,145.234 0,87.774 -71.082,138.77 -146.012,138.77 -74.426,0 -145.488,-50.996 -145.488,-138.77 C 243.352,61.25 302.191,0 388.84,0"
         style="fill:#f9f9f9;fill-opacity:1;fill-rule:nonzero;stroke:none"
         id="path54"
         inkscape:connector-curvature="0" /></g></g></svg>