<?xml version="1.0" standalone="no"?>
<!DOCTYPE svg PUBLIC "-//W3C//DTD SVG 20010904//EN"
 "http://www.w3.org/TR/2001/REC-SVG-20010904/DTD/svg10.dtd">
<svg version="1.0" xmlns="http://www.w3.org/2000/svg"
 width="700.000000pt" height="700.000000pt" viewBox="0 0 700.000000 700.000000"
 preserveAspectRatio="xMidYMid meet">
<metadata>
Created by potrace 1.11, written by Peter Selinger 2001-2013
</metadata>
<g transform="translate(0.000000,700.000000) scale(0.100000,-0.100000)"
fill="#000000" stroke="none">
<path d="M1553 6562 l-23 -3 0 -1089 c0 -861 3 -1089 13 -1092 6 -2 203 -4
437 -4 l425 1 2 645 c0 355 2 650 2 656 1 8 216 11 798 10 l797 -1 12 -24 c21
-41 82 -98 131 -121 67 -33 170 -33 235 -2 108 53 169 152 164 269 -3 81 -25
132 -81 188 -52 52 -106 78 -175 83 -105 8 -204 -40 -259 -124 l-31 -49 -905
1 -905 0 -1 -65 c0 -36 -1 -332 -1 -657 l0 -590 -219 0 -219 0 2 875 3 875
1845 1 c1015 0 1851 -1 1858 -3 9 -3 12 -435 12 -2112 0 -2038 -1 -2109 -18
-2114 -33 -11 -113 -96 -133 -141 -73 -165 25 -354 201 -391 135 -28 259 36
318 164 57 125 -1 296 -120 358 -15 8 -28 20 -28 27 -1 6 -1 1005 -1 2220 0
1682 -3 2207 -12 2208 -37 2 -4106 3 -4124 1z m2774 -678 c66 -41 58 -150 -13
-182 -73 -34 -153 13 -154 88 0 94 88 143 167 94z m1304 -3931 c69 -41 71
-141 5 -182 -46 -29 -85 -27 -125 7 -98 82 9 240 120 175z"/>
<path d="M4820 6063 c-61 -22 -142 -104 -163 -167 -50 -145 6 -279 151 -362 2
-1 4 -2899 2 -3300 0 -69 14 -49 -158 -229 -87 -91 -346 -364 -444 -469 -63
-67 -66 -69 -95 -58 -45 15 -139 6 -191 -19 -103 -50 -162 -149 -159 -266 7
-251 315 -365 489 -181 65 69 86 159 64 278 -6 33 -2 39 55 100 86 91 317 335
425 449 50 53 123 130 162 171 l71 75 1 1722 0 1723 38 24 c53 34 88 74 112
128 66 150 -4 319 -158 378 -63 24 -139 25 -202 3z m134 -163 c17 0 50 -29 64
-57 22 -41 15 -82 -22 -119 -39 -39 -89 -46 -132 -18 -51 34 -65 114 -26 157
21 24 72 48 90 42 8 -3 19 -5 26 -5z m-861 -4601 c82 -37 69 -174 -19 -198
-92 -25 -175 77 -124 154 33 51 90 68 143 44z"/>
<path d="M2903 5419 c-220 -42 -308 -308 -156 -470 104 -112 269 -122 387 -25
23 19 50 50 61 70 l20 36 470 0 470 0 0 -1291 0 -1291 -239 -239 -239 -239
-396 0 -396 0 -486 486 -486 486 -307 -307 c-168 -168 -306 -310 -306 -313 0
-4 276 -282 613 -618 l612 -612 299 2 299 1 23 -36 c35 -56 102 -108 163 -126
184 -53 362 79 363 270 2 247 -300 376 -475 204 -24 -23 -49 -54 -56 -69 l-13
-26 -257 -1 -256 0 -502 502 c-277 276 -503 506 -503 510 0 4 68 76 151 158
l152 151 441 -441 441 -441 486 0 485 0 305 305 304 305 1 1432 c0 788 -2
1439 -4 1446 -3 9 -128 12 -581 12 l-576 0 -20 36 c-52 96 -180 155 -292 133z
m130 -209 c77 -85 -21 -215 -126 -165 -80 38 -82 150 -3 190 44 22 95 13 129
-25z m426 -3926 c60 -50 49 -144 -21 -177 -37 -18 -49 -17 -93 1 -75 31 -82
138 -13 186 35 25 91 20 127 -10z"/>
<path d="M5027 1666 c-112 -41 -182 -130 -194 -245 -3 -36 0 -74 7 -96 l12
-38 -316 -316 -316 -316 -939 0 -940 1 -216 217 -217 217 8 42 c11 69 11 90
-2 142 -45 173 -237 261 -397 182 -103 -50 -158 -141 -158 -260 0 -115 85
-229 195 -261 55 -16 141 -16 177 -1 11 5 83 -60 268 -245 l252 -252 1030 0
1030 0 349 348 c345 345 348 348 378 337 84 -29 209 5 279 77 78 80 101 212
56 313 -57 126 -221 199 -346 154z m166 -194 c25 -25 34 -96 16 -128 -31 -59
-118 -72 -168 -25 -59 55 -34 159 42 179 38 10 84 -1 110 -26z m-3484 -188
c59 -49 48 -144 -22 -177 -88 -43 -187 55 -143 141 34 66 110 83 165 36z"/>
</g>
</svg>
