<?xml version="1.0" encoding="UTF-8"?>
<!-- Created with Inkscape (http://www.inkscape.org/) -->
<svg width="1920" height="1080" version="1.1" viewBox="0 0 508 285.75" xmlns="http://www.w3.org/2000/svg" xmlns:cc="http://creativecommons.org/ns#" xmlns:dc="http://purl.org/dc/elements/1.1/" xmlns:rdf="http://www.w3.org/1999/02/22-rdf-syntax-ns#" xmlns:xlink="http://www.w3.org/1999/xlink">
 <defs>
  <linearGradient id="linearGradient823" x1="33.276" x2="33.276" y1="38.396" y2="297" gradientTransform="matrix(1.0701 0 0 1.105 -543.61 -339.43)" gradientUnits="userSpaceOnUse">
   <stop stop-color="#121212" offset="0"/>
   <stop stop-color="#181628" offset=".39487"/>
   <stop stop-color="#1e132c" offset="1"/>
  </linearGradient>
 </defs>
 <metadata>
  <rdf:RDF>
   <cc:Work rdf:about="">
    <dc:format>image/svg+xml</dc:format>
    <dc:type rdf:resource="http://purl.org/dc/dcmitype/StillImage"/>
    <dc:title/>
   </cc:Work>
  </rdf:RDF>
 </metadata>
 <g transform="translate(0 -11.25)">
  <rect transform="scale(-1)" x="-508" y="-297" width="508" height="285.75" fill="url(#linearGradient823)"/>
  <circle id="path848" cx="4.877" cy="15.547" r=".4269" fill="#fff" opacity=".847"/>
  <use transform="matrix(.60848 0 0 .60848 6.0416 3.7712)" opacity=".87323" xlink:href="#path848"/>
  <use transform="matrix(1.0809 0 0 1.0809 4.8557 15.326)" opacity=".21421" xlink:href="#path848"/>
  <use transform="matrix(.72327 0 0 .72327 7.1703 32.567)" xlink:href="#path848"/>
  <use transform="matrix(1.0899 0 0 1.0899 9.7841 45.279)" opacity=".30437" xlink:href="#path848"/>
  <use transform="matrix(.51744 0 0 .51744 7.8078 70.881)" opacity=".70387" xlink:href="#path848"/>
  <use transform="matrix(.93289 0 0 .93289 -7.9885 79.274)" opacity=".11355" xlink:href="#path848"/>
  <use transform="matrix(.50814 0 0 .50814 3.0842 123.82)" opacity=".26214" xlink:href="#path848"/>
  <use transform="matrix(1.1399 0 0 1.1399 9.4006 126.22)" xlink:href="#path848"/>
  <use transform="matrix(.98623 0 0 .98623 2.8136 136.91)" opacity=".79474" xlink:href="#path848"/>
  <use transform="matrix(.94262 0 0 .94262 -3.627 152.52)" xlink:href="#path848"/>
  <use transform="matrix(1.1314 0 0 1.1314 -6.2343 173.01)" opacity=".86787" xlink:href="#path848"/>
  <use transform="matrix(1.2295 0 0 1.2295 7.7856 193.61)" opacity=".88731" xlink:href="#path848"/>
  <use transform="matrix(.53113 0 0 .53113 -3.1385 228.71)" opacity=".10245" xlink:href="#path848"/>
  <use transform="matrix(1.2407 0 0 1.2407 9.5996 220.08)" opacity=".1954" xlink:href="#path848"/>
  <use transform="matrix(1.0378 0 0 1.0378 -6.4546 243.11)" xlink:href="#path848"/>
  <use transform="matrix(1.114 0 0 1.114 6.8033 271.46)" xlink:href="#path848"/>
  <use transform="matrix(.73021 0 0 .73021 -2.7555 281.67)" xlink:href="#path848"/>
  <use transform="matrix(.88685 0 0 .88685 7.3275 -.41375)" xlink:href="#path848"/>
  <use transform="matrix(1.1421 0 0 1.1421 11.574 18.646)" xlink:href="#path848"/>
  <use transform="matrix(1.0907 0 0 1.0907 24.639 40.286)" xlink:href="#path848"/>
  <use transform="matrix(.64413 0 0 .64413 26.424 68.834)" opacity=".63736" xlink:href="#path848"/>
  <use transform="matrix(1.3167 0 0 1.3167 12.518 57.744)" xlink:href="#path848"/>
  <use transform="matrix(1.1005 0 0 1.1005 10.175 80.394)" opacity=".917" xlink:href="#path848"/>
  <use transform="matrix(.75925 0 0 .75925 19.427 102.29)" xlink:href="#path848"/>
  <use transform="matrix(1.1115 0 0 1.1115 24.963 127.67)" opacity=".62205" xlink:href="#path848"/>
  <use transform="matrix(.86924 0 0 .86924 12.88 148.72)" opacity=".35283" xlink:href="#path848"/>
  <use transform="matrix(1.0259 0 0 1.0259 12.509 164.68)" opacity=".37104" xlink:href="#path848"/>
  <use transform="matrix(.63638 0 0 .63638 24.623 179.67)" xlink:href="#path848"/>
  <use transform="matrix(.75047 0 0 .75047 8.0809 205.54)" opacity=".33231" xlink:href="#path848"/>
  <use transform="matrix(1.0508 0 0 1.0508 12.968 202.36)" opacity=".32259" xlink:href="#path848"/>
  <use transform="matrix(.775 0 0 .775 23.482 240.84)" xlink:href="#path848"/>
  <use transform="matrix(.95839 0 0 .95839 21.06 246.54)" xlink:href="#path848"/>
  <use transform="matrix(1.3732 0 0 1.3732 11.281 262.13)" opacity=".21826" xlink:href="#path848"/>
  <use transform="matrix(.59677 0 0 .59677 19.572 279.68)" opacity=".45739" xlink:href="#path848"/>
  <use transform="matrix(.62547 0 0 .62547 34.629 4.1045)" opacity=".055005" xlink:href="#path848"/>
  <use transform="matrix(.85331 0 0 .85331 34.385 27.651)" opacity=".7286" xlink:href="#path848"/>
  <use transform="matrix(1.2361 0 0 1.2361 28.69 33.135)" opacity=".59154" xlink:href="#path848"/>
  <use transform="matrix(1.4274 0 0 1.4274 41.401 39.942)" opacity=".060239" xlink:href="#path848"/>
  <use transform="matrix(1.3261 0 0 1.3261 38.278 63.007)" xlink:href="#path848"/>
  <use transform="matrix(.64788 0 0 .64788 42.953 97.669)" xlink:href="#path848"/>
  <use transform="matrix(.55446 0 0 .55446 38.661 122.96)" opacity=".24034" xlink:href="#path848"/>
  <use transform="matrix(1.1977 0 0 1.1977 31.141 113.02)" opacity=".92378" xlink:href="#path848"/>
  <use transform="matrix(1.2646 0 0 1.2646 41.244 135.3)" opacity=".77277" xlink:href="#path848"/>
  <use transform="matrix(.70198 0 0 .70198 29.593 166.51)" opacity=".34766" xlink:href="#path848"/>
  <use transform="matrix(1.0561 0 0 1.0561 39.247 185.73)" opacity=".0031041" xlink:href="#path848"/>
  <use transform="matrix(.63329 0 0 .63329 37.036 204.96)" xlink:href="#path848"/>
  <use transform="matrix(.98892 0 0 .98892 28.145 214.03)" opacity=".1455" xlink:href="#path848"/>
  <use transform="matrix(1.0203 0 0 1.0203 39.709 229.94)" xlink:href="#path848"/>
  <use transform="matrix(1.0251 0 0 1.0251 45.359 252.54)" xlink:href="#path848"/>
  <use transform="matrix(.88601 0 0 .88601 31.903 266.48)" xlink:href="#path848"/>
  <use transform="matrix(.85992 0 0 .85992 43.809 293.72)" xlink:href="#path848"/>
  <use transform="matrix(1.284 0 0 1.284 62.347 -6.3717)" xlink:href="#path848"/>
  <use transform="matrix(1.1185 0 0 1.1185 43.374 13.982)" xlink:href="#path848"/>
  <use transform="matrix(1.2445 0 0 1.2445 47.31 35.821)" xlink:href="#path848"/>
  <use transform="matrix(.63465 0 0 .63465 63.635 53.815)" xlink:href="#path848"/>
  <use transform="matrix(.68365 0 0 .68365 49.062 83.138)" opacity=".61705" xlink:href="#path848"/>
  <use transform="matrix(1.1529 0 0 1.1529 52.629 87.251)" xlink:href="#path848"/>
  <use transform="matrix(.62756 0 0 .62756 63.543 117.61)" xlink:href="#path848"/>
  <use transform="matrix(1.4956 0 0 1.4956 56.864 123.05)" opacity=".52902" xlink:href="#path848"/>
  <use transform="matrix(1.2002 0 0 1.2002 43.023 141.07)" xlink:href="#path848"/>
  <use transform="matrix(.82674 0 0 .82674 55.189 166.5)" xlink:href="#path848"/>
  <use transform="matrix(1.35 0 0 1.35 55.295 181.86)" xlink:href="#path848"/>
  <use transform="matrix(.89836 0 0 .89836 60.615 191.36)" xlink:href="#path848"/>
  <use transform="matrix(1.1471 0 0 1.1471 62.009 213.54)" opacity=".63101" xlink:href="#path848"/>
  <use transform="matrix(.8407 0 0 .8407 44.518 232.94)" xlink:href="#path848"/>
  <use transform="matrix(1.2483 0 0 1.2483 61.116 240.45)" opacity=".28132" xlink:href="#path848"/>
  <use transform="matrix(1.1754 0 0 1.1754 53.069 262.32)" opacity=".093757" xlink:href="#path848"/>
  <use transform="matrix(.87761 0 0 .87761 61.22 273.82)" xlink:href="#path848"/>
  <use transform="matrix(.77765 0 0 .77765 68.211 -5.8594)" opacity=".13473" xlink:href="#path848"/>
  <use transform="matrix(1.0594 0 0 1.0594 63.351 21.409)" opacity=".66937" xlink:href="#path848"/>
  <use transform="matrix(.73895 0 0 .73895 66.127 34.512)" xlink:href="#path848"/>
  <use transform="matrix(.92934 0 0 .92934 78.618 64.063)" xlink:href="#path848"/>
  <use transform="matrix(.73406 0 0 .73406 80.761 84.573)" opacity=".33455" xlink:href="#path848"/>
  <use transform="matrix(1.4069 0 0 1.4069 67.643 84.551)" xlink:href="#path848"/>
  <use transform="matrix(.50261 0 0 .50261 76.658 116.46)" xlink:href="#path848"/>
  <use transform="matrix(.71839 0 0 .71839 70.693 138.61)" opacity=".25214" xlink:href="#path848"/>
  <use transform="matrix(1.2226 0 0 1.2226 71.337 142.41)" opacity=".43848" xlink:href="#path848"/>
  <use transform="matrix(1.1997 0 0 1.1997 59.169 155.3)" opacity=".21781" xlink:href="#path848"/>
  <use transform="matrix(1.4943 0 0 1.4943 75.361 164.23)" opacity=".45863" xlink:href="#path848"/>
  <use transform="matrix(1.4299 0 0 1.4299 74.725 195.07)" opacity=".634" xlink:href="#path848"/>
  <use transform="matrix(1.3629 0 0 1.3629 66.34 200.12)" xlink:href="#path848"/>
  <use transform="matrix(.70677 0 0 .70677 74.606 229.69)" opacity=".42371" xlink:href="#path848"/>
  <use transform="matrix(1.0154 0 0 1.0154 81.417 247.15)" xlink:href="#path848"/>
  <use transform="matrix(.50144 0 0 .50144 80.4 279.02)" opacity=".62664" xlink:href="#path848"/>
  <use transform="matrix(.6769 0 0 .6769 79.804 282.44)" xlink:href="#path848"/>
  <use transform="matrix(1.4863 0 0 1.4863 81.484 2.0878)" xlink:href="#path848"/>
  <use transform="matrix(.97417 0 0 .97417 94.515 28.219)" xlink:href="#path848"/>
  <use transform="matrix(.51114 0 0 .51114 92.172 40.151)" opacity=".68446" xlink:href="#path848"/>
  <use transform="matrix(1.2451 0 0 1.2451 87.837 43.316)" xlink:href="#path848"/>
  <use transform="matrix(1.0242 0 0 1.0242 93.21 60.597)" opacity=".25369" xlink:href="#path848"/>
  <use transform="matrix(.8726 0 0 .8726 87.564 83.346)" opacity=".97083" xlink:href="#path848"/>
  <use transform="matrix(.76167 0 0 .76167 78.895 114.28)" xlink:href="#path848"/>
  <use transform="matrix(.75007 0 0 .75007 82.921 135.37)" xlink:href="#path848"/>
  <use transform="matrix(1.1463 0 0 1.1463 88.584 146.06)" opacity=".5698" xlink:href="#path848"/>
  <use transform="matrix(.82135 0 0 .82135 78.307 167.24)" xlink:href="#path848"/>
  <use transform="matrix(.64611 0 0 .64611 91.996 192.27)" opacity=".97985" xlink:href="#path848"/>
  <use transform="matrix(1.18 0 0 1.18 78.338 194.04)" opacity=".42483" xlink:href="#path848"/>
  <use transform="matrix(.87481 0 0 .87481 98.616 224.26)" xlink:href="#path848"/>
  <use transform="matrix(1.0158 0 0 1.0158 94.131 224.2)" xlink:href="#path848"/>
  <use transform="matrix(.89627 0 0 .89627 85.952 250.53)" xlink:href="#path848"/>
  <use transform="matrix(1.2747 0 0 1.2747 90.941 256.57)" xlink:href="#path848"/>
  <use transform="matrix(.56045 0 0 .56045 95.507 290.9)" opacity=".48831" xlink:href="#path848"/>
  <use transform="matrix(.66074 0 0 .66074 104.73 15.047)" opacity=".40526" xlink:href="#path848"/>
  <use transform="matrix(1.4078 0 0 1.4078 114.7 4.9428)" opacity=".33151" xlink:href="#path848"/>
  <use transform="matrix(1.4062 0 0 1.4062 94.781 23.558)" xlink:href="#path848"/>
  <use transform="matrix(1.4769 0 0 1.4769 94.117 55.005)" opacity=".30754" xlink:href="#path848"/>
  <use transform="matrix(1.1979 0 0 1.1979 106.98 67.314)" opacity=".43676" xlink:href="#path848"/>
  <use transform="matrix(.85924 0 0 .85924 102.14 83.858)" opacity=".48419" xlink:href="#path848"/>
  <use transform="matrix(1.2947 0 0 1.2947 97.505 101.44)" xlink:href="#path848"/>
  <use transform="matrix(1.1031 0 0 1.1031 96.179 123.23)" opacity=".22821" xlink:href="#path848"/>
  <use transform="matrix(1.4851 0 0 1.4851 110.22 137.42)" opacity=".25073" xlink:href="#path848"/>
  <use transform="matrix(1.0989 0 0 1.0989 110.52 162.25)" opacity=".55937" xlink:href="#path848"/>
  <use transform="matrix(1.2423 0 0 1.2423 110.54 167.95)" opacity=".37692" xlink:href="#path848"/>
  <use transform="matrix(1.1436 0 0 1.1436 100.31 183.81)" xlink:href="#path848"/>
  <use transform="matrix(.51381 0 0 .51381 118.47 212.91)" xlink:href="#path848"/>
  <use transform="matrix(1.0081 0 0 1.0081 97.976 232.39)" xlink:href="#path848"/>
  <use transform="matrix(.74668 0 0 .74668 99.289 241.19)" xlink:href="#path848"/>
  <use transform="matrix(.91683 0 0 .91683 116.68 274.3)" opacity=".6827" xlink:href="#path848"/>
  <use transform="matrix(.79817 0 0 .79817 112.42 280.44)" opacity=".062466" xlink:href="#path848"/>
  <use transform="matrix(1.3325 0 0 1.3325 128.09 .79343)" opacity=".89969" xlink:href="#path848"/>
  <use transform="matrix(1.2159 0 0 1.2159 119.76 8.6696)" xlink:href="#path848"/>
  <use transform="matrix(1.2767 0 0 1.2767 132.82 25.463)" xlink:href="#path848"/>
  <use transform="matrix(.6858 0 0 .6858 135.71 65.237)" opacity=".3064" xlink:href="#path848"/>
  <use transform="matrix(.77824 0 0 .77824 119.2 72.778)" xlink:href="#path848"/>
  <use transform="matrix(1.3264 0 0 1.3264 118.04 72.858)" opacity=".31038" xlink:href="#path848"/>
  <use transform="matrix(1.0213 0 0 1.0213 115.78 97.742)" opacity=".14304" xlink:href="#path848"/>
  <use transform="matrix(.51779 0 0 .51779 122.16 127.87)" opacity=".30932" xlink:href="#path848"/>
  <use transform="matrix(1.0908 0 0 1.0908 129.59 132.37)" opacity=".64311" xlink:href="#path848"/>
  <use transform="matrix(1.1681 0 0 1.1681 112.42 145.97)" xlink:href="#path848"/>
  <use transform="matrix(1.4863 0 0 1.4863 112.39 160.17)" opacity=".35926" xlink:href="#path848"/>
  <use transform="matrix(1.1868 0 0 1.1868 112.76 192.69)" opacity=".18057" xlink:href="#path848"/>
  <use transform="matrix(1.0145 0 0 1.0145 124.95 219.75)" opacity=".98547" xlink:href="#path848"/>
  <use transform="matrix(.96274 0 0 .96274 115.72 225.64)" xlink:href="#path848"/>
  <use transform="matrix(1.1029 0 0 1.1029 123.52 246.89)" xlink:href="#path848"/>
  <use transform="matrix(.6275 0 0 .6275 118.19 265.4)" opacity=".72901" xlink:href="#path848"/>
  <use transform="matrix(.73182 0 0 .73182 130.8 288.73)" xlink:href="#path848"/>
  <use transform="matrix(.65752 0 0 .65752 153.38 -3.6396)" opacity=".58566" xlink:href="#path848"/>
  <use transform="matrix(1.1736 0 0 1.1736 134.16 7.5554)" opacity=".53431" xlink:href="#path848"/>
  <use transform="matrix(1.1726 0 0 1.1726 138.63 34.367)" xlink:href="#path848"/>
  <use transform="matrix(1.0402 0 0 1.0402 150.01 60.977)" opacity=".41547" xlink:href="#path848"/>
  <use transform="matrix(1.321 0 0 1.321 148.55 57.043)" opacity=".40023" xlink:href="#path848"/>
  <use transform="matrix(1.0654 0 0 1.0654 139.27 89.524)" opacity=".026107" xlink:href="#path848"/>
  <use transform="matrix(1.3422 0 0 1.3422 137.99 101.75)" xlink:href="#path848"/>
  <use transform="matrix(1.2478 0 0 1.2478 141.74 115.73)" opacity=".61221" xlink:href="#path848"/>
  <use transform="matrix(.8969 0 0 .8969 135.25 137.51)" xlink:href="#path848"/>
  <use transform="matrix(.82354 0 0 .82354 134.69 161.87)" opacity=".85846" xlink:href="#path848"/>
  <use transform="matrix(.64503 0 0 .64503 146.47 191.54)" xlink:href="#path848"/>
  <use transform="matrix(1.0652 0 0 1.0652 135.42 187.44)" xlink:href="#path848"/>
  <use transform="matrix(1.1257 0 0 1.1257 130.4 214.95)" opacity=".7506" xlink:href="#path848"/>
  <use transform="matrix(1.2109 0 0 1.2109 132.97 222.4)" opacity=".87594" xlink:href="#path848"/>
  <use transform="matrix(.82082 0 0 .82082 150.81 244.08)" xlink:href="#path848"/>
  <use transform="matrix(1.3799 0 0 1.3799 131.03 268.94)" xlink:href="#path848"/>
  <use transform="matrix(.91693 0 0 .91693 145.69 292.08)" xlink:href="#path848"/>
  <use transform="matrix(.65736 0 0 .65736 152.98 -5.6424)" opacity=".47385" xlink:href="#path848"/>
  <use transform="matrix(.90312 0 0 .90312 167.75 20.08)" opacity=".62143" xlink:href="#path848"/>
  <use transform="matrix(1.156 0 0 1.156 147.9 37.318)" xlink:href="#path848"/>
  <use transform="matrix(.55901 0 0 .55901 154.14 67.814)" opacity=".43175" xlink:href="#path848"/>
  <use transform="matrix(.71453 0 0 .71453 155.41 67.339)" xlink:href="#path848"/>
  <use transform="matrix(.53469 0 0 .53469 151.17 104.82)" opacity=".93603" xlink:href="#path848"/>
  <use transform="matrix(1.4541 0 0 1.4541 154.71 90.064)" opacity=".42629" xlink:href="#path848"/>
  <use transform="matrix(1.0115 0 0 1.0115 155.39 129.69)" xlink:href="#path848"/>
  <use transform="matrix(.72447 0 0 .72447 155.27 141.01)" xlink:href="#path848"/>
  <use transform="matrix(.82519 0 0 .82519 168.31 157.49)" xlink:href="#path848"/>
  <use transform="matrix(.77001 0 0 .77001 168.03 178.17)" opacity=".63819" xlink:href="#path848"/>
  <use transform="matrix(.54633 0 0 .54633 165.44 210.99)" opacity=".99118" xlink:href="#path848"/>
  <use transform="matrix(1.1035 0 0 1.1035 164.56 206.23)" xlink:href="#path848"/>
  <use transform="matrix(.74354 0 0 .74354 163.04 241.88)" xlink:href="#path848"/>
  <use transform="matrix(1.2432 0 0 1.2432 167.16 252.35)" opacity=".99716" xlink:href="#path848"/>
  <use transform="matrix(.73155 0 0 .73155 163.04 259.81)" xlink:href="#path848"/>
  <use transform="matrix(1.4609 0 0 1.4609 166.43 266.81)" opacity=".41173" xlink:href="#path848"/>
  <use transform="matrix(1.0764 0 0 1.0764 181.09 -4.7786)" xlink:href="#path848"/>
  <use transform="matrix(.71134 0 0 .71134 179.23 14.84)" opacity=".105" xlink:href="#path848"/>
  <use transform="matrix(1.1613 0 0 1.1613 166.64 27.732)" opacity=".73909" xlink:href="#path848"/>
  <use transform="matrix(1.1992 0 0 1.1992 186.3 58.753)" opacity=".10393" xlink:href="#path848"/>
  <use transform="matrix(1.2785 0 0 1.2785 171.11 64.192)" opacity=".15582" xlink:href="#path848"/>
  <use transform="matrix(1.2469 0 0 1.2469 186.18 75.963)" opacity=".44263" xlink:href="#path848"/>
  <use transform="matrix(1.2355 0 0 1.2355 164.59 101.35)" xlink:href="#path848"/>
  <use transform="matrix(1.4176 0 0 1.4176 177.05 115.25)" xlink:href="#path848"/>
  <use transform="matrix(.60347 0 0 .60347 167.97 156.56)" opacity=".16299" xlink:href="#path848"/>
  <use transform="matrix(1.1067 0 0 1.1067 186.31 160.8)" xlink:href="#path848"/>
  <use transform="matrix(1.0869 0 0 1.0869 178.13 184.36)" xlink:href="#path848"/>
  <use transform="matrix(1.3041 0 0 1.3041 163.93 178.51)" xlink:href="#path848"/>
  <use transform="matrix(1.2466 0 0 1.2466 181.51 206.6)" xlink:href="#path848"/>
  <use transform="matrix(.86988 0 0 .86988 178.6 233.02)" opacity=".0467" xlink:href="#path848"/>
  <use transform="matrix(1.28 0 0 1.28 175.92 243.32)" opacity=".35746" xlink:href="#path848"/>
  <use transform="matrix(.87011 0 0 .87011 180.82 272.6)" xlink:href="#path848"/>
  <use transform="matrix(1.3033 0 0 1.3033 172.39 267.72)" opacity=".35414" xlink:href="#path848"/>
  <use transform="matrix(1.4949 0 0 1.4949 191 .61182)" opacity=".22505" xlink:href="#path848"/>
  <use transform="matrix(1.0318 0 0 1.0318 197.39 17.478)" xlink:href="#path848"/>
  <use transform="matrix(1.1038 0 0 1.1038 191.7 42.627)" xlink:href="#path848"/>
  <use transform="matrix(1.0404 0 0 1.0404 199.21 52.843)" opacity=".98199" xlink:href="#path848"/>
  <use transform="matrix(.72619 0 0 .72619 199.98 79.459)" opacity=".83573" xlink:href="#path848"/>
  <use transform="matrix(.75874 0 0 .75874 200.47 91.896)" xlink:href="#path848"/>
  <use transform="matrix(1.0319 0 0 1.0319 202.17 111.78)" opacity=".61092" xlink:href="#path848"/>
  <use transform="matrix(.69689 0 0 .69689 203.16 131.11)" opacity=".88831" xlink:href="#path848"/>
  <use transform="matrix(.81974 0 0 .81974 188.79 150.37)" opacity=".78753" xlink:href="#path848"/>
  <use transform="matrix(1.2434 0 0 1.2434 194.57 153.51)" xlink:href="#path848"/>
  <use transform="matrix(.96501 0 0 .96501 195.77 184.57)" opacity=".95703" xlink:href="#path848"/>
  <use transform="matrix(1.3974 0 0 1.3974 199.02 196.78)" opacity=".81599" xlink:href="#path848"/>
  <use transform="matrix(1.2956 0 0 1.2956 186.74 215.52)" xlink:href="#path848"/>
  <use transform="matrix(.93096 0 0 .93096 191.7 223.49)" xlink:href="#path848"/>
  <use transform="matrix(.67367 0 0 .67367 189.14 252.56)" opacity=".14825" xlink:href="#path848"/>
  <use transform="matrix(.5984 0 0 .5984 202.25 260.21)" xlink:href="#path848"/>
  <use transform="matrix(.58142 0 0 .58142 195.32 298.78)" xlink:href="#path848"/>
  <use transform="matrix(.76905 0 0 .76905 202.2 3.9236)" xlink:href="#path848"/>
  <use transform="matrix(.85173 0 0 .85173 215.52 21.029)" xlink:href="#path848"/>
  <use transform="matrix(.90281 0 0 .90281 205.16 28.313)" xlink:href="#path848"/>
  <use transform="matrix(.7054 0 0 .7054 218.31 56.282)" opacity=".24613" xlink:href="#path848"/>
  <use transform="matrix(.9553 0 0 .9553 201.05 71.987)" opacity=".71946" xlink:href="#path848"/>
  <use transform="matrix(1.4932 0 0 1.4932 219.3 72.533)" opacity=".78177" xlink:href="#path848"/>
  <use transform="matrix(.52007 0 0 .52007 211.9 108.19)" opacity=".71253" xlink:href="#path848"/>
  <use transform="matrix(.73224 0 0 .73224 207.82 131.82)" opacity=".095553" xlink:href="#path848"/>
  <use transform="matrix(.64372 0 0 .64372 223.94 140.37)" xlink:href="#path848"/>
  <use transform="matrix(.64454 0 0 .64454 206.59 164.31)" opacity=".25529" xlink:href="#path848"/>
  <use transform="matrix(.9696 0 0 .9696 213.13 176.26)" opacity=".24732" xlink:href="#path848"/>
  <use transform="matrix(.80324 0 0 .80324 216.34 190.71)" xlink:href="#path848"/>
  <use transform="matrix(.54192 0 0 .54192 203.68 214.53)" xlink:href="#path848"/>
  <use transform="matrix(.88989 0 0 .88989 219.11 232.21)" xlink:href="#path848"/>
  <use transform="matrix(1.4256 0 0 1.4256 204.24 242.2)" xlink:href="#path848"/>
  <use transform="matrix(.86726 0 0 .86726 214.39 262.83)" xlink:href="#path848"/>
  <use transform="matrix(1.0419 0 0 1.0419 214.62 287.51)" xlink:href="#path848"/>
  <use transform="matrix(.50587 0 0 .50587 229.81 .27122)" opacity=".2821" xlink:href="#path848"/>
  <use transform="matrix(1.0416 0 0 1.0416 236.64 22.832)" xlink:href="#path848"/>
  <use transform="matrix(.5279 0 0 .5279 239.48 36.149)" opacity=".1926" xlink:href="#path848"/>
  <use transform="matrix(.6884 0 0 .6884 236.75 53.881)" xlink:href="#path848"/>
  <use transform="matrix(1.3604 0 0 1.3604 224.06 64.719)" xlink:href="#path848"/>
  <use transform="matrix(.74453 0 0 .74453 225.12 91.865)" xlink:href="#path848"/>
  <use transform="matrix(1.3016 0 0 1.3016 230.6 104.95)" opacity=".99442" xlink:href="#path848"/>
  <use transform="matrix(.91665 0 0 .91665 233.57 124.43)" xlink:href="#path848"/>
  <use transform="matrix(1.1048 0 0 1.1048 225.43 140.18)" xlink:href="#path848"/>
  <use transform="matrix(1.3497 0 0 1.3497 216.81 152.85)" opacity=".21496" xlink:href="#path848"/>
  <use transform="matrix(.88788 0 0 .88788 226.59 171.23)" opacity=".35191" xlink:href="#path848"/>
  <use transform="matrix(.67446 0 0 .67446 227.65 209.75)" xlink:href="#path848"/>
  <use transform="matrix(1.194 0 0 1.194 224.79 214.63)" xlink:href="#path848"/>
  <use transform="matrix(.83966 0 0 .83966 225.68 222.85)" xlink:href="#path848"/>
  <use transform="matrix(.83299 0 0 .83299 240.52 251.81)" xlink:href="#path848"/>
  <use transform="matrix(1.3638 0 0 1.3638 236.61 257.98)" xlink:href="#path848"/>
  <use transform="matrix(1.3001 0 0 1.3001 222.78 271.03)" opacity=".1868" xlink:href="#path848"/>
  <use transform="matrix(1.312 0 0 1.312 246.59 -2.7035)" opacity=".098387" xlink:href="#path848"/>
  <use transform="matrix(1.1194 0 0 1.1194 246.13 11.05)" xlink:href="#path848"/>
  <use transform="matrix(1.1147 0 0 1.1147 250.68 32.888)" xlink:href="#path848"/>
  <use transform="matrix(1.0205 0 0 1.0205 238.45 58.317)" opacity=".82372" xlink:href="#path848"/>
  <use transform="matrix(1.3367 0 0 1.3367 238.05 64.901)" xlink:href="#path848"/>
  <use transform="matrix(.91724 0 0 .91724 248.24 81.691)" xlink:href="#path848"/>
  <use transform="matrix(1.2392 0 0 1.2392 248.21 101.59)" xlink:href="#path848"/>
  <use transform="matrix(1.2692 0 0 1.2692 242.69 116.48)" opacity=".6203" xlink:href="#path848"/>
  <use transform="matrix(1.4452 0 0 1.4452 246.76 144.81)" xlink:href="#path848"/>
  <use transform="matrix(1.1146 0 0 1.1146 244.27 159.32)" xlink:href="#path848"/>
  <use transform="matrix(.57562 0 0 .57562 244.54 189.57)" opacity=".71572" xlink:href="#path848"/>
  <use transform="matrix(.70173 0 0 .70173 253.57 204.73)" opacity=".49331" xlink:href="#path848"/>
  <use transform="matrix(.57189 0 0 .57189 245.04 213.96)" xlink:href="#path848"/>
  <use transform="matrix(.57391 0 0 .57391 259.96 234.83)" xlink:href="#path848"/>
  <use transform="matrix(.83453 0 0 .83453 250.62 253.68)" opacity=".56264" xlink:href="#path848"/>
  <use transform="matrix(.9255 0 0 .9255 252.13 255.59)" xlink:href="#path848"/>
  <use transform="matrix(1.4624 0 0 1.4624 249.55 282.24)" opacity=".9742" xlink:href="#path848"/>
  <use transform="matrix(1.0557 0 0 1.0557 260.17 -2.0571)" xlink:href="#path848"/>
  <use transform="matrix(.74394 0 0 .74394 265.41 26.577)" xlink:href="#path848"/>
  <use transform="matrix(1.4281 0 0 1.4281 270.39 29.893)" xlink:href="#path848"/>
  <use transform="matrix(.95704 0 0 .95704 275.13 55.999)" xlink:href="#path848"/>
  <use transform="matrix(.85655 0 0 .85655 274.3 70.682)" xlink:href="#path848"/>
  <use transform="matrix(1.0457 0 0 1.0457 269.03 93.833)" opacity=".52561" xlink:href="#path848"/>
  <use transform="matrix(.66339 0 0 .66339 274.74 111.69)" xlink:href="#path848"/>
  <use transform="matrix(.71833 0 0 .71833 266.02 127.95)" opacity=".076067" xlink:href="#path848"/>
  <use transform="matrix(.70441 0 0 .70441 256.28 154.98)" xlink:href="#path848"/>
  <use transform="matrix(.52688 0 0 .52688 275.75 171.97)" opacity=".79531" xlink:href="#path848"/>
  <use transform="matrix(1.1619 0 0 1.1619 269.7 166.94)" xlink:href="#path848"/>
  <use transform="matrix(.89232 0 0 .89232 262.52 197.28)" opacity=".14467" xlink:href="#path848"/>
  <use transform="matrix(1.341 0 0 1.341 267.01 214.28)" opacity=".032598" xlink:href="#path848"/>
  <use transform="matrix(.94717 0 0 .94717 273.92 236.01)" xlink:href="#path848"/>
  <use transform="matrix(1.0478 0 0 1.0478 261.93 251.53)" opacity=".38167" xlink:href="#path848"/>
  <use transform="matrix(.69206 0 0 .69206 267.99 268.06)" xlink:href="#path848"/>
  <use transform="matrix(.96311 0 0 .96311 265.33 279.44)" xlink:href="#path848"/>
  <use transform="matrix(.63838 0 0 .63838 284.63 12.019)" xlink:href="#path848"/>
  <use transform="matrix(1.4257 0 0 1.4257 284.58 2.5831)" xlink:href="#path848"/>
  <use transform="matrix(.96399 0 0 .96399 280.53 35.1)" xlink:href="#path848"/>
  <use transform="matrix(1.1179 0 0 1.1179 278.82 49.941)" opacity=".28805" xlink:href="#path848"/>
  <use transform="matrix(.57435 0 0 .57435 274.24 85.67)" xlink:href="#path848"/>
  <use transform="matrix(1.3249 0 0 1.3249 284.73 81.099)" opacity=".58333" xlink:href="#path848"/>
  <use transform="matrix(1.0818 0 0 1.0818 279.34 95.464)" opacity=".93779" xlink:href="#path848"/>
  <use transform="matrix(.69981 0 0 .69981 286.92 125.4)" opacity=".60032" xlink:href="#path848"/>
  <use transform="matrix(1.255 0 0 1.255 271.3 139.41)" xlink:href="#path848"/>
  <use transform="matrix(.60365 0 0 .60365 274.96 165.25)" opacity=".75083" xlink:href="#path848"/>
  <use transform="matrix(1.0906 0 0 1.0906 283.78 174.42)" opacity=".88959" xlink:href="#path848"/>
  <use transform="matrix(.79272 0 0 .79272 289.59 192.6)" xlink:href="#path848"/>
  <use transform="matrix(.74539 0 0 .74539 290.04 210.29)" xlink:href="#path848"/>
  <use transform="matrix(1.4291 0 0 1.4291 274.84 227.81)" opacity=".78661" xlink:href="#path848"/>
  <use transform="matrix(.69548 0 0 .69548 284.63 252.02)" opacity=".85063" xlink:href="#path848"/>
  <use transform="matrix(.67657 0 0 .67657 284.39 270.62)" xlink:href="#path848"/>
  <use transform="matrix(.73278 0 0 .73278 284.15 281.66)" xlink:href="#path848"/>
  <use transform="matrix(1.4761 0 0 1.4761 287.76 -8.0893)" xlink:href="#path848"/>
  <use transform="matrix(.95702 0 0 .95702 290.86 19.828)" xlink:href="#path848"/>
  <use transform="matrix(.5355 0 0 .5355 297.76 34.283)" opacity=".079094" xlink:href="#path848"/>
  <use transform="matrix(.66277 0 0 .66277 293.62 63.959)" opacity=".073579" xlink:href="#path848"/>
  <use transform="matrix(.84419 0 0 .84419 307.31 80.182)" opacity=".9058" xlink:href="#path848"/>
  <use transform="matrix(1.2609 0 0 1.2609 297.07 82.666)" xlink:href="#path848"/>
  <use transform="matrix(1.2566 0 0 1.2566 293.13 107.31)" xlink:href="#path848"/>
  <use transform="matrix(.9719 0 0 .9719 308.69 125.96)" xlink:href="#path848"/>
  <use transform="matrix(1.4037 0 0 1.4037 291.02 129.11)" opacity=".072292" xlink:href="#path848"/>
  <use transform="matrix(.97723 0 0 .97723 291.01 152.87)" opacity=".14069" xlink:href="#path848"/>
  <use transform="matrix(1.006 0 0 1.006 295.53 167.69)" opacity=".59133" xlink:href="#path848"/>
  <use transform="matrix(.73881 0 0 .73881 300.74 202.53)" xlink:href="#path848"/>
  <use transform="matrix(1.1462 0 0 1.1462 294.86 211.18)" opacity=".44011" xlink:href="#path848"/>
  <use transform="matrix(1.1163 0 0 1.1163 303.54 230.79)" opacity=".28672" xlink:href="#path848"/>
  <use transform="matrix(1.3733 0 0 1.3733 302.33 242.95)" xlink:href="#path848"/>
  <use transform="matrix(.7134 0 0 .7134 300.08 270.58)" opacity=".12197" xlink:href="#path848"/>
  <use transform="matrix(.78466 0 0 .78466 301.82 288.81)" xlink:href="#path848"/>
  <use transform="matrix(1.3054 0 0 1.3054 309.57 -9.43)" opacity=".85053" xlink:href="#path848"/>
  <use transform="matrix(1.017 0 0 1.017 310.35 24.936)" xlink:href="#path848"/>
  <use transform="matrix(1.2289 0 0 1.2289 325.47 27.533)" xlink:href="#path848"/>
  <use transform="matrix(.88253 0 0 .88253 326.22 58.668)" xlink:href="#path848"/>
  <use transform="matrix(1.1808 0 0 1.1808 309.68 60.088)" opacity=".071303" xlink:href="#path848"/>
  <use transform="matrix(1.0301 0 0 1.0301 327.41 87.718)" opacity=".56571" xlink:href="#path848"/>
  <use transform="matrix(1.3305 0 0 1.3305 325.66 108.54)" xlink:href="#path848"/>
  <use transform="matrix(1.4345 0 0 1.4345 315.07 127.35)" xlink:href="#path848"/>
  <use transform="matrix(.81921 0 0 .81921 310.62 133.83)" opacity=".51293" xlink:href="#path848"/>
  <use transform="matrix(1.1177 0 0 1.1177 312.37 147.33)" opacity=".77137" xlink:href="#path848"/>
  <use transform="matrix(1.1028 0 0 1.1028 314.54 180.36)" xlink:href="#path848"/>
  <use transform="matrix(.61578 0 0 .61578 320.04 194.37)" opacity=".37003" xlink:href="#path848"/>
  <use transform="matrix(.6871 0 0 .6871 312.19 212.74)" xlink:href="#path848"/>
  <use transform="matrix(.55579 0 0 .55579 329.83 237.26)" xlink:href="#path848"/>
  <use transform="matrix(1.2662 0 0 1.2662 315.78 243)" opacity=".52911" xlink:href="#path848"/>
  <use transform="matrix(1.2408 0 0 1.2408 308.82 253.36)" xlink:href="#path848"/>
  <use transform="matrix(1.2314 0 0 1.2314 318.67 283.38)" opacity=".10618" xlink:href="#path848"/>
  <use transform="matrix(1.037 0 0 1.037 344.47 .78267)" opacity=".26113" xlink:href="#path848"/>
  <use transform="matrix(1.2579 0 0 1.2579 332.39 9.1456)" opacity=".085201" xlink:href="#path848"/>
  <use transform="matrix(1.1156 0 0 1.1156 336.94 42.069)" xlink:href="#path848"/>
  <use transform="matrix(.68094 0 0 .68094 344.36 65.853)" opacity=".86011" xlink:href="#path848"/>
  <use transform="matrix(1.1128 0 0 1.1128 332.72 68.143)" opacity=".45101" xlink:href="#path848"/>
  <use transform="matrix(.71871 0 0 .71871 337.15 88.347)" xlink:href="#path848"/>
  <use transform="matrix(.93432 0 0 .93432 328.07 107.09)" opacity=".88522" xlink:href="#path848"/>
  <use transform="matrix(.87989 0 0 .87989 341.52 119.39)" opacity=".098999" xlink:href="#path848"/>
  <use transform="matrix(1.033 0 0 1.033 329.9 146.55)" xlink:href="#path848"/>
  <use transform="matrix(1.139 0 0 1.139 329.89 165.19)" opacity=".82081" xlink:href="#path848"/>
  <use transform="matrix(.74214 0 0 .74214 327.78 171.65)" xlink:href="#path848"/>
  <use transform="matrix(.94274 0 0 .94274 329.87 184.9)" opacity=".23265" xlink:href="#path848"/>
  <use transform="matrix(.91287 0 0 .91287 334.57 208.57)" opacity=".84975" xlink:href="#path848"/>
  <use transform="matrix(.63978 0 0 .63978 333.1 229.72)" opacity=".1028" xlink:href="#path848"/>
  <use transform="matrix(1.2227 0 0 1.2227 339.37 246.7)" xlink:href="#path848"/>
  <use transform="matrix(1.2565 0 0 1.2565 324.96 257.47)" xlink:href="#path848"/>
  <use transform="matrix(.54458 0 0 .54458 338.07 294.08)" xlink:href="#path848"/>
  <use transform="matrix(1.0489 0 0 1.0489 358.63 -4.9067)" opacity=".063792" xlink:href="#path848"/>
  <use transform="matrix(1.04 0 0 1.04 343.65 14.458)" xlink:href="#path848"/>
  <use transform="matrix(1.077 0 0 1.077 353.41 27.873)" opacity=".88274" xlink:href="#path848"/>
  <use transform="matrix(.64088 0 0 .64088 354.1 57.94)" xlink:href="#path848"/>
  <use transform="matrix(.54799 0 0 .54799 345.99 76.347)" opacity=".9205" xlink:href="#path848"/>
  <use transform="matrix(1.4287 0 0 1.4287 346.51 81.001)" opacity=".32664" xlink:href="#path848"/>
  <use transform="matrix(.82593 0 0 .82593 358.18 107.04)" xlink:href="#path848"/>
  <use transform="matrix(1.4913 0 0 1.4913 354.76 122.69)" opacity=".36484" xlink:href="#path848"/>
  <use transform="matrix(1.2236 0 0 1.2236 347.75 132.02)" opacity=".72505" xlink:href="#path848"/>
  <use transform="matrix(.84356 0 0 .84356 351.36 167)" opacity=".77452" xlink:href="#path848"/>
  <use transform="matrix(.77251 0 0 .77251 361.86 181.96)" xlink:href="#path848"/>
  <use transform="matrix(1.0957 0 0 1.0957 348.46 197.11)" xlink:href="#path848"/>
  <use transform="matrix(1.4495 0 0 1.4495 360.94 207.95)" opacity=".63604" xlink:href="#path848"/>
  <use transform="matrix(.97477 0 0 .97477 352.94 219.74)" xlink:href="#path848"/>
  <use transform="matrix(.55979 0 0 .55979 358.45 252.79)" xlink:href="#path848"/>
  <use transform="matrix(1.116 0 0 1.116 344.85 271.53)" opacity=".95403" xlink:href="#path848"/>
  <use transform="matrix(1.0155 0 0 1.0155 344.95 287.41)" opacity=".068636" xlink:href="#path848"/>
  <use transform="matrix(.98989 0 0 .98989 378.26 2.3466)" opacity=".024782" xlink:href="#path848"/>
  <use transform="matrix(.51075 0 0 .51075 370.69 34.726)" xlink:href="#path848"/>
  <use transform="matrix(.65799 0 0 .65799 364.05 44.078)" opacity=".19684" xlink:href="#path848"/>
  <use transform="matrix(.69205 0 0 .69205 365.61 67.988)" opacity=".96661" xlink:href="#path848"/>
  <use transform="matrix(1.1556 0 0 1.1556 375.04 76.004)" opacity=".60531" xlink:href="#path848"/>
  <use transform="matrix(.65726 0 0 .65726 368.27 88.582)" opacity=".085073" xlink:href="#path848"/>
  <use transform="matrix(.89582 0 0 .89582 362.3 103.81)" xlink:href="#path848"/>
  <use transform="matrix(1.1788 0 0 1.1788 367.04 123.54)" xlink:href="#path848"/>
  <use transform="matrix(1.4506 0 0 1.4506 364.39 130.9)" xlink:href="#path848"/>
  <use transform="matrix(.74274 0 0 .74274 371.41 170.01)" opacity=".43013" xlink:href="#path848"/>
  <use transform="matrix(1.0438 0 0 1.0438 364.19 185.84)" xlink:href="#path848"/>
  <use transform="matrix(.96253 0 0 .96253 361.72 189.02)" xlink:href="#path848"/>
  <use transform="matrix(1.2173 0 0 1.2173 368.82 212.29)" xlink:href="#path848"/>
  <use transform="matrix(.54354 0 0 .54354 371.32 235.32)" xlink:href="#path848"/>
  <use transform="matrix(.63345 0 0 .63345 369.69 252.36)" opacity=".92847" xlink:href="#path848"/>
  <use transform="matrix(1.1454 0 0 1.1454 368.33 256.38)" xlink:href="#path848"/>
  <use transform="matrix(1.3439 0 0 1.3439 372 272.97)" opacity=".72328" xlink:href="#path848"/>
  <use transform="matrix(.91483 0 0 .91483 392.19 7.9389)" opacity=".3115" xlink:href="#path848"/>
  <use transform="matrix(.84078 0 0 .84078 384.55 11.474)" opacity=".3271" xlink:href="#path848"/>
  <use transform="matrix(.72665 0 0 .72665 379.45 38.132)" xlink:href="#path848"/>
  <use transform="matrix(.93078 0 0 .93078 382.04 59.507)" xlink:href="#path848"/>
  <use transform="matrix(.56319 0 0 .56319 400.82 74.789)" xlink:href="#path848"/>
  <use transform="matrix(.81917 0 0 .81917 396.87 89.446)" opacity=".40906" xlink:href="#path848"/>
  <use transform="matrix(.79837 0 0 .79837 396.47 107.9)" opacity=".095791" xlink:href="#path848"/>
  <use transform="matrix(1.4441 0 0 1.4441 383.74 109.03)" xlink:href="#path848"/>
  <use transform="matrix(1.1347 0 0 1.1347 387.09 140.43)" xlink:href="#path848"/>
  <use transform="matrix(.89605 0 0 .89605 386.12 159.69)" opacity=".32675" xlink:href="#path848"/>
  <use transform="matrix(.65079 0 0 .65079 393.47 175.1)" xlink:href="#path848"/>
  <use transform="matrix(.65232 0 0 .65232 392.3 202.06)" opacity=".71646" xlink:href="#path848"/>
  <use transform="matrix(1.1623 0 0 1.1623 377.9 205.7)" opacity=".5801" xlink:href="#path848"/>
  <use transform="matrix(.75527 0 0 .75527 393.16 232.48)" xlink:href="#path848"/>
  <use transform="matrix(.88865 0 0 .88865 385.02 255.74)" xlink:href="#path848"/>
  <use transform="matrix(.54118 0 0 .54118 396.7 277.37)" xlink:href="#path848"/>
  <use transform="matrix(.88377 0 0 .88377 378.49 284.85)" xlink:href="#path848"/>
  <use transform="matrix(.76568 0 0 .76568 412.52 -7.0335)" opacity=".4745" xlink:href="#path848"/>
  <use transform="matrix(1.3954 0 0 1.3954 405.77 14.916)" xlink:href="#path848"/>
  <use transform="matrix(1.4232 0 0 1.4232 414.45 20.483)" opacity=".25545" xlink:href="#path848"/>
  <use transform="matrix(1.1932 0 0 1.1932 409.02 44.538)" opacity=".90319" xlink:href="#path848"/>
  <use transform="matrix(1.3884 0 0 1.3884 407.11 67.499)" opacity=".29189" xlink:href="#path848"/>
  <use transform="matrix(1.1508 0 0 1.1508 406.7 80.794)" xlink:href="#path848"/>
  <use transform="matrix(1.039 0 0 1.039 405.13 112.34)" opacity=".25953" xlink:href="#path848"/>
  <use transform="matrix(.82452 0 0 .82452 409.23 129.59)" xlink:href="#path848"/>
  <use transform="matrix(.95139 0 0 .95139 406.38 138.67)" xlink:href="#path848"/>
  <use transform="matrix(.52 0 0 .52 404.45 174.76)" opacity=".44561" xlink:href="#path848"/>
  <use transform="matrix(.83767 0 0 .83767 401.92 187.93)" opacity=".24828" xlink:href="#path848"/>
  <use transform="matrix(1.2268 0 0 1.2268 400.15 180.66)" opacity=".46674" xlink:href="#path848"/>
  <use transform="matrix(1.3295 0 0 1.3295 398.92 198.73)" xlink:href="#path848"/>
  <use transform="matrix(1.4247 0 0 1.4247 410.19 228.02)" opacity=".10225" xlink:href="#path848"/>
  <use transform="matrix(1.1415 0 0 1.1415 405.47 254.99)" opacity=".68338" xlink:href="#path848"/>
  <use transform="matrix(.53539 0 0 .53539 417.32 269.09)" opacity=".46865" xlink:href="#path848"/>
  <use transform="matrix(.69215 0 0 .69215 399.99 287.86)" xlink:href="#path848"/>
  <use transform="matrix(.86519 0 0 .86519 432.16 2.5207)" opacity=".018944" xlink:href="#path848"/>
  <use transform="matrix(1.0097 0 0 1.0097 419.56 12.998)" xlink:href="#path848"/>
  <use transform="matrix(1.163 0 0 1.163 416.2 25.895)" xlink:href="#path848"/>
  <use transform="matrix(1.3113 0 0 1.3113 422.71 58.624)" xlink:href="#path848"/>
  <use transform="matrix(1.4411 0 0 1.4411 425.1 54.488)" xlink:href="#path848"/>
  <use transform="matrix(.90096 0 0 .90096 428.03 92.317)" xlink:href="#path848"/>
  <use transform="matrix(.50085 0 0 .50085 433.08 112.67)" xlink:href="#path848"/>
  <use transform="matrix(.59344 0 0 .59344 428.98 129.36)" xlink:href="#path848"/>
  <use transform="matrix(.75852 0 0 .75852 428.05 136.21)" opacity=".93215" xlink:href="#path848"/>
  <use transform="matrix(1.2723 0 0 1.2723 426.5 165.33)" xlink:href="#path848"/>
  <use transform="matrix(.98635 0 0 .98635 415.87 186.78)" opacity=".4811" xlink:href="#path848"/>
  <use transform="matrix(1.2555 0 0 1.2555 421.71 195.26)" opacity=".65523" xlink:href="#path848"/>
  <use transform="matrix(.9505 0 0 .9505 434.51 205.91)" opacity=".50445" xlink:href="#path848"/>
  <use transform="matrix(1.1296 0 0 1.1296 411.93 237.52)" opacity=".35102" xlink:href="#path848"/>
  <use transform="matrix(.62244 0 0 .62244 415.58 254.71)" xlink:href="#path848"/>
  <use transform="matrix(.71033 0 0 .71033 433.6 273.9)" xlink:href="#path848"/>
  <use transform="matrix(1.381 0 0 1.381 427.92 274.16)" opacity=".88582" xlink:href="#path848"/>
  <use transform="matrix(1.426 0 0 1.426 430.86 4.1705)" xlink:href="#path848"/>
  <use transform="matrix(1.3294 0 0 1.3294 441.26 17.458)" xlink:href="#path848"/>
  <use transform="matrix(.73432 0 0 .73432 433.54 42.41)" xlink:href="#path848"/>
  <use transform="matrix(.98194 0 0 .98194 451.18 42.357)" opacity=".54159" xlink:href="#path848"/>
  <use transform="matrix(.93481 0 0 .93481 433.86 72.21)" opacity=".53825" xlink:href="#path848"/>
  <use transform="matrix(.51631 0 0 .51631 451.11 94.641)" xlink:href="#path848"/>
  <use transform="matrix(1.264 0 0 1.264 438.11 110.53)" opacity=".71615" xlink:href="#path848"/>
  <use transform="matrix(1.2551 0 0 1.2551 430.67 128.58)" opacity=".22129" xlink:href="#path848"/>
  <use transform="matrix(.84346 0 0 .84346 450.35 145.74)" opacity=".14653" xlink:href="#path848"/>
  <use transform="matrix(1.0964 0 0 1.0964 446.46 151.88)" xlink:href="#path848"/>
  <use transform="matrix(.62325 0 0 .62325 441.28 189.49)" xlink:href="#path848"/>
  <use transform="matrix(1.4736 0 0 1.4736 432.56 186.38)" xlink:href="#path848"/>
  <use transform="matrix(1.1557 0 0 1.1557 438.46 215.93)" opacity=".65466" xlink:href="#path848"/>
  <use transform="matrix(.66239 0 0 .66239 451.08 237.76)" xlink:href="#path848"/>
  <use transform="matrix(.82307 0 0 .82307 450.29 248.31)" xlink:href="#path848"/>
  <use transform="matrix(.61805 0 0 .61805 452.64 275.43)" xlink:href="#path848"/>
  <use transform="matrix(1.4506 0 0 1.4506 446.35 280.83)" opacity=".15042" xlink:href="#path848"/>
  <use transform="matrix(.69647 0 0 .69647 461.92 9.9775)" xlink:href="#path848"/>
  <use transform="matrix(.83846 0 0 .83846 455.41 12.225)" xlink:href="#path848"/>
  <use transform="matrix(.60033 0 0 .60033 458.4 44.269)" opacity=".17065" xlink:href="#path848"/>
  <use transform="matrix(1.1442 0 0 1.1442 448.19 47.555)" opacity=".13217" xlink:href="#path848"/>
  <use transform="matrix(.58533 0 0 .58533 471.69 72.167)" opacity=".76927" xlink:href="#path848"/>
  <use transform="matrix(.98249 0 0 .98249 454.5 96.048)" xlink:href="#path848"/>
  <use transform="matrix(1.074 0 0 1.074 457.78 103.21)" opacity=".23267" xlink:href="#path848"/>
  <use transform="matrix(.66838 0 0 .66838 454.53 117.84)" opacity=".53054" xlink:href="#path848"/>
  <use transform="matrix(1.4349 0 0 1.4349 455.48 129.89)" xlink:href="#path848"/>
  <use transform="matrix(.51647 0 0 .51647 469.39 170.96)" xlink:href="#path848"/>
  <use transform="matrix(.63862 0 0 .63862 459.73 177.91)" xlink:href="#path848"/>
  <use transform="matrix(1.1012 0 0 1.1012 459.13 188.92)" opacity=".29834" xlink:href="#path848"/>
  <use transform="matrix(.67272 0 0 .67272 460.29 219.56)" xlink:href="#path848"/>
  <use transform="matrix(.71233 0 0 .71233 466.93 228.28)" xlink:href="#path848"/>
  <use transform="matrix(.66513 0 0 .66513 463.09 249.1)" opacity=".17943" xlink:href="#path848"/>
  <use transform="matrix(.78381 0 0 .78381 469.33 272.2)" opacity=".85447" xlink:href="#path848"/>
  <use transform="matrix(.83042 0 0 .83042 458.38 287.48)" xlink:href="#path848"/>
  <use transform="matrix(.66405 0 0 .66405 474.75 13.733)" xlink:href="#path848"/>
  <use transform="matrix(1.1824 0 0 1.1824 483.51 21.016)" opacity=".50907" xlink:href="#path848"/>
  <use transform="matrix(.83471 0 0 .83471 482.65 34.162)" opacity=".82299" xlink:href="#path848"/>
  <use transform="matrix(.94242 0 0 .94242 476.6 61.867)" opacity=".32561" xlink:href="#path848"/>
  <use transform="matrix(1.1894 0 0 1.1894 480.16 57.065)" opacity=".29323" xlink:href="#path848"/>
  <use transform="matrix(.71456 0 0 .71456 468.19 86.113)" opacity=".43194" xlink:href="#path848"/>
  <use transform="matrix(1.1248 0 0 1.1248 478.49 103.8)" xlink:href="#path848"/>
  <use transform="matrix(.82573 0 0 .82573 485.76 118.15)" xlink:href="#path848"/>
  <use transform="matrix(1.4107 0 0 1.4107 482.83 134.16)" xlink:href="#path848"/>
  <use transform="matrix(1.2142 0 0 1.2142 485.63 162.24)" xlink:href="#path848"/>
  <use transform="matrix(.77182 0 0 .77182 472.58 186.56)" opacity=".18898" xlink:href="#path848"/>
  <use transform="matrix(1.3618 0 0 1.3618 484.92 191.78)" opacity=".91724" xlink:href="#path848"/>
  <use transform="matrix(.88764 0 0 .88764 471.56 220.06)" xlink:href="#path848"/>
  <use transform="matrix(1.3011 0 0 1.3011 472.2 218.86)" opacity=".84482" xlink:href="#path848"/>
  <use transform="matrix(1.3097 0 0 1.3097 470.11 232.97)" xlink:href="#path848"/>
  <use transform="matrix(1.0088 0 0 1.0088 468.73 266.05)" opacity=".14158" xlink:href="#path848"/>
  <use transform="matrix(1.2071 0 0 1.2071 472.2 284.78)" xlink:href="#path848"/>
  <use transform="matrix(.83738 0 0 .83738 494.72 12.934)" opacity=".30456" xlink:href="#path848"/>
  <use transform="matrix(.85801 0 0 .85801 492.43 16.384)" opacity=".69835" xlink:href="#path848"/>
  <use transform="matrix(1.343 0 0 1.343 493.14 20.801)" xlink:href="#path848"/>
  <use transform="matrix(1.3074 0 0 1.3074 499.58 43.993)" opacity=".78857" xlink:href="#path848"/>
  <use transform="matrix(.98894 0 0 .98894 493.27 71.195)" xlink:href="#path848"/>
  <use transform="matrix(1.1313 0 0 1.1313 496.14 96.23)" opacity=".92322" xlink:href="#path848"/>
  <use transform="matrix(1.3282 0 0 1.3282 500.53 102.2)" opacity=".041415" xlink:href="#path848"/>
  <use transform="matrix(.79449 0 0 .79449 492.53 123.91)" opacity=".29519" xlink:href="#path848"/>
  <use transform="matrix(.66999 0 0 .66999 501.09 153.75)" opacity=".6009" xlink:href="#path848"/>
  <use transform="matrix(1.4299 0 0 1.4299 496.62 151.65)" opacity=".83742" xlink:href="#path848"/>
  <use transform="matrix(.9838 0 0 .9838 503.62 173.45)" xlink:href="#path848"/>
  <use transform="matrix(.65596 0 0 .65596 492.97 208.74)" xlink:href="#path848"/>
  <use transform="matrix(1.3672 0 0 1.3672 496.63 203.5)" xlink:href="#path848"/>
  <use transform="matrix(1.2953 0 0 1.2953 493.12 224.06)" xlink:href="#path848"/>
  <use transform="matrix(.67039 0 0 .67039 485.19 253.19)" opacity=".40911" xlink:href="#path848"/>
  <use transform="matrix(1.3143 0 0 1.3143 499.8 266.26)" xlink:href="#path848"/>
  <use transform="matrix(1.4375 0 0 1.4375 483.77 279.86)" opacity=".79099" xlink:href="#path848"/>
  <use transform="matrix(.81869 0 0 .81869 506.2 -5.8487)" xlink:href="#path848"/>
  <use transform="matrix(.84174 0 0 .84174 510.07 11.619)" opacity=".73577" xlink:href="#path848"/>
  <use transform="matrix(.51269 0 0 .51269 524.08 33.098)" xlink:href="#path848"/>
  <use transform="matrix(.55618 0 0 .55618 522.25 69.077)" xlink:href="#path848"/>
  <use transform="matrix(1.2353 0 0 1.2353 509.32 61.862)" opacity=".57929" xlink:href="#path848"/>
  <use transform="matrix(.94746 0 0 .94746 506.55 98.324)" xlink:href="#path848"/>
  <use transform="matrix(.82649 0 0 .82649 514.01 117.83)" xlink:href="#path848"/>
  <use transform="matrix(.50313 0 0 .50313 518.12 141.55)" opacity=".27752" xlink:href="#path848"/>
  <use transform="matrix(.7243 0 0 .7243 518.79 149.58)" xlink:href="#path848"/>
  <use transform="matrix(.75386 0 0 .75386 508.49 158.21)" opacity=".48274" xlink:href="#path848"/>
  <use transform="matrix(.59506 0 0 .59506 508.85 181.14)" xlink:href="#path848"/>
  <use transform="matrix(1.1767 0 0 1.1767 520.81 183.61)" opacity=".27564" xlink:href="#path848"/>
  <use transform="matrix(.93265 0 0 .93265 518.27 218.46)" xlink:href="#path848"/>
  <use transform="matrix(.56141 0 0 .56141 522.42 241.51)" xlink:href="#path848"/>
  <use transform="matrix(1.1061 0 0 1.1061 516.99 243.42)" xlink:href="#path848"/>
  <use transform="matrix(1.1813 0 0 1.1813 502.71 253.71)" opacity=".75784" xlink:href="#path848"/>
  <use transform="matrix(1.4337 0 0 1.4337 502.22 271.2)" xlink:href="#path848"/>
 </g>
</svg>
