<?xml version="1.0" encoding="UTF-8"?>
<!-- Generator: Adobe Illustrator 27.0.1, SVG Export Plug-In . SVG Version: 6.00 Build 0)  -->
<svg width="136.4" height="59.419" version="1.1" viewBox="0 0 136.4 59.419" xml:space="preserve" xmlns="http://www.w3.org/2000/svg">
<style type="text/css">
	.st0{fill:#224BA0;}
	.st1{fill:#EE254A;}
</style><path class="st0" d="m119.5 35.419h-0.3c-1.1 0-2.2-0.2-3.2-0.7-1-0.4-1.9-1-2.6-1.8-0.7-0.7-1.3-1.6-1.8-2.6-0.4-1-0.7-2.1-0.7-3.2v-10.7h8.5v-5.7h-8.5v-9.9h-6.5v26.2c0 2 0.4 3.8 1.1 5.6 0.8 1.7 1.8 3.3 3.1 4.5 1.3 1.3 2.8 2.3 4.5 3.1s3.6 1.1 5.6 1.1h17.7v-6h-16.9zm-44.7-12.6c0.3-1 0.7-2 1.3-2.8 0.6-0.9 1.3-1.6 2.1-2.2s1.7-1.1 2.7-1.5c1-0.3 2-0.5 3.1-0.5s2.1 0.2 3.1 0.5 1.9 0.8 2.7 1.5c0.8 0.6 1.5 1.4 2.1 2.2s1 1.8 1.3 2.8zm20.8-8.4c-1.5-1.4-3.2-2.6-5.2-3.4s-4.1-1.2-6.4-1.2c-2.2 0-4.4 0.4-6.3 1.2-2 0.8-3.7 2-5.2 3.4s-2.6 3.1-3.5 5-1.3 3.9-1.3 6.1 0.4 4.2 1.3 6.1 2 3.6 3.5 5 3.2 2.6 5.2 3.4 4.1 1.2 6.3 1.2c1.7 0 3.4-0.2 5-0.7s3.1-1.2 4.4-2.1 2.5-2 3.5-3.2 1.8-2.6 2.4-4h-7.3c-0.8 1.2-2 2.2-3.4 3s-2.9 1.1-4.6 1.1c-1.1 0-2.2-0.2-3.3-0.6-1-0.4-2-0.9-2.8-1.6s-1.5-1.5-2.1-2.4-1-1.9-1.3-3h25.6c0.1-0.7 0.2-1.5 0.2-2.2 0-2.2-0.4-4.2-1.3-6.1-0.7-1.9-1.9-3.5-3.4-5m-56.7 8.4c0.3-1 0.7-2 1.3-2.8 0.6-0.9 1.3-1.6 2.1-2.2s1.7-1.1 2.7-1.5c1-0.3 2-0.5 3.1-0.5s2.1 0.2 3.1 0.5 1.9 0.8 2.7 1.5c0.8 0.6 1.5 1.4 2.1 2.2s1 1.8 1.3 2.8zm20.9-8.4c-1.5-1.4-3.2-2.6-5.2-3.4s-4.1-1.2-6.4-1.2c-2.2 0-4.4 0.4-6.3 1.2-2 0.8-3.7 2-5.2 3.4s-2.6 3.1-3.5 5-1.3 3.9-1.3 6.1 0.4 4.2 1.3 6.1 2 3.6 3.5 5 3.2 2.6 5.2 3.4 4.1 1.2 6.3 1.2c1.7 0 3.4-0.2 5-0.7s3.1-1.2 4.4-2.1 2.5-2 3.5-3.2 1.8-2.6 2.4-4h-7.3c-0.8 1.2-2 2.2-3.4 3s-2.9 1.1-4.6 1.1c-1.1 0-2.2-0.2-3.3-0.6-1-0.4-2-0.9-2.8-1.6s-1.5-1.5-2.1-2.4-1-1.9-1.3-3h25.7c0.1-0.7 0.2-1.5 0.2-2.2 0-2.2-0.4-4.2-1.3-6.1s-2-3.5-3.5-5m-39-13.6h6.6v39.7h-6.6zm-10.3 0c-1.3 0.6-2.5 1.3-3.4 2.3-1 1-1.7 2.1-2.3 3.4s-0.9 2.7-0.9 4.2h-3.9v5.7h3.9v24h6.6v-24h6.2v-5.7h-6.2c0-0.8 0.2-1.5 0.5-2.1 0.3-0.7 0.7-1.2 1.3-1.7s1.2-0.9 1.9-1.2 1.5-0.4 2.4-0.4h0.1v-5.3h-2c-1.5-0.1-2.9 0.2-4.2 0.8" style="fill:#fff"/><path class="st1" d="m67.8 56.519c0 0.3 0.1 0.6 0.4 0.9 0.3 0.2 0.6 0.4 1.1 0.4s0.8-0.1 1.1-0.4c0.3-0.2 0.4-0.5 0.4-0.9 0-0.3-0.1-0.5-0.4-0.7-0.2-0.2-0.6-0.4-1-0.4-0.5-0.1-0.9-0.2-1.3-0.4s-0.8-0.3-1.1-0.6c-0.3-0.2-0.6-0.5-0.7-0.8-0.2-0.3-0.3-0.6-0.3-1s0.1-0.7 0.2-1.1c0.2-0.3 0.4-0.6 0.7-0.9 0.3-0.2 0.6-0.4 1-0.6 0.4-0.1 0.8-0.2 1.2-0.2 0.5 0 0.9 0.1 1.3 0.2s0.8 0.4 1.1 0.6c0.3 0.3 0.5 0.6 0.7 0.9s0.3 0.7 0.3 1.1h-2c0-0.3-0.1-0.6-0.4-0.8s-0.6-0.3-0.9-0.3-0.6 0.1-0.8 0.3-0.3 0.4-0.3 0.7c0 0.2 0.1 0.3 0.2 0.4s0.3 0.2 0.5 0.3 0.4 0.2 0.7 0.3 0.5 0.1 0.8 0.2c0.4 0.1 0.7 0.2 1 0.3s0.6 0.3 0.8 0.5 0.4 0.5 0.6 0.8c0.1 0.3 0.2 0.6 0.2 1s-0.1 0.8-0.3 1.2-0.4 0.7-0.7 1-0.7 0.5-1.1 0.6c-0.4 0.2-0.9 0.2-1.4 0.2s-0.9-0.1-1.3-0.2c-0.4-0.2-0.8-0.4-1.1-0.6-0.3-0.3-0.6-0.6-0.7-0.9s-0.3-0.7-0.3-1.1zm-8 1.1c0.5 0 1-0.1 1.4-0.4s0.8-0.6 1-1h2.1c-0.2 0.5-0.4 0.9-0.7 1.3s-0.6 0.7-1.1 1c-0.4 0.3-0.8 0.5-1.3 0.7s-1 0.2-1.5 0.2c-0.7 0-1.3-0.1-1.9-0.4-0.6-0.2-1.1-0.6-1.6-1-0.4-0.4-0.8-0.9-1-1.5-0.3-0.6-0.4-1.2-0.4-1.8 0-0.7 0.1-1.3 0.4-1.8 0.3-0.6 0.6-1.1 1-1.5s1-0.8 1.6-1 1.2-0.4 1.9-0.4c0.5 0 1.1 0.1 1.5 0.2 0.5 0.2 0.9 0.4 1.3 0.7s0.8 0.6 1.1 1 0.5 0.8 0.7 1.3h-2.1c-0.3-0.4-0.6-0.8-1-1.1s-0.9-0.4-1.5-0.4c-0.4 0-0.8 0.1-1.1 0.2-0.4 0.2-0.7 0.4-0.9 0.6-0.3 0.3-0.5 0.6-0.6 0.9s-0.2 0.7-0.2 1.1 0.1 0.8 0.2 1.1 0.4 0.7 0.6 0.9c0.3 0.3 0.6 0.5 0.9 0.6 0.5 0.4 0.8 0.5 1.2 0.5m-6.8 1.5h-2v-8.9h2zm0.2-11.1c0 0.3-0.1 0.6-0.3 0.8s-0.5 0.3-0.8 0.3-0.6-0.1-0.8-0.3-0.3-0.5-0.3-0.8 0.1-0.6 0.3-0.8 0.5-0.3 0.8-0.3 0.6 0.1 0.8 0.3 0.3 0.5 0.3 0.8m-4.2 11.4h-0.2c-0.6 0-1.2-0.1-1.7-0.3s-1-0.5-1.4-0.9-0.7-0.8-0.9-1.4c-0.2-0.5-0.3-1.1-0.3-1.7v-7.9h2v3h2.6v1.7h-2.7v3.2c0 0.3 0.1 0.7 0.2 1s0.3 0.6 0.5 0.8 0.5 0.4 0.8 0.5 0.6 0.2 1 0.2h0.1zm-11.1-1.8c0.4 0 0.8-0.1 1.1-0.2 0.4-0.2 0.7-0.4 0.9-0.6 0.3-0.3 0.5-0.6 0.6-0.9 0.1-0.4 0.2-0.7 0.2-1.1s-0.1-0.8-0.2-1.1c-0.1-0.4-0.4-0.7-0.6-0.9-0.3-0.3-0.6-0.5-0.9-0.6-0.4-0.2-0.7-0.2-1.1-0.2s-0.8 0.1-1.1 0.2c-0.4 0.2-0.7 0.4-0.9 0.6-0.3 0.3-0.5 0.6-0.6 0.9-0.1 0.4-0.2 0.7-0.2 1.1s0.1 0.8 0.2 1.1c0.1 0.4 0.4 0.7 0.6 0.9 0.3 0.3 0.6 0.5 0.9 0.6s0.7 0.2 1.1 0.2m0-7.7c0.7 0 1.3 0.1 1.9 0.4 0.6 0.2 1.1 0.6 1.6 1 0.4 0.4 0.8 0.9 1 1.5 0.3 0.6 0.4 1.2 0.4 1.8s-0.1 1.3-0.4 1.8c-0.3 0.6-0.6 1.1-1 1.5s-1 0.8-1.6 1-1.2 0.4-1.9 0.4-1.3-0.1-1.9-0.4c-0.6-0.2-1.1-0.6-1.6-1-0.4-0.4-0.8-0.9-1-1.5-0.3-0.6-0.4-1.2-0.4-1.8s0.1-1.3 0.4-1.8c0.3-0.6 0.6-1.1 1-1.5s1-0.8 1.6-1 1.2-0.4 1.9-0.4m-11.2 7.7c0.4 0 0.8-0.1 1.1-0.2 0.4-0.2 0.7-0.4 0.9-0.6 0.3-0.3 0.5-0.6 0.6-0.9 0.2-0.4 0.2-0.7 0.2-1.1s-0.1-0.8-0.2-1.1c-0.2-0.4-0.4-0.7-0.6-0.9-0.3-0.3-0.6-0.5-0.9-0.6-0.4-0.2-0.7-0.2-1.1-0.2s-0.8 0.1-1.1 0.2c-0.4 0.2-0.7 0.4-0.9 0.6-0.3 0.3-0.5 0.6-0.6 0.9-0.2 0.4-0.2 0.7-0.2 1.1s0.1 0.8 0.2 1.1c0.2 0.4 0.4 0.7 0.6 0.9 0.3 0.3 0.6 0.5 0.9 0.6s0.7 0.2 1.1 0.2m0-7.7c0.7 0 1.3 0.1 1.9 0.4 0.6 0.2 1.1 0.6 1.5 1s0.8 0.9 1 1.5c0.3 0.6 0.4 1.2 0.4 1.8s-0.1 1.3-0.4 1.8c-0.3 0.6-0.6 1.1-1 1.5s-1 0.8-1.5 1c-0.6 0.2-1.2 0.4-1.9 0.4-0.6 0-1.2-0.1-1.7-0.4s-1-0.6-1.3-1v1.1h-1.9v-11.9h2v3.9c0.4-0.4 0.8-0.7 1.3-0.9 0.5-0.1 1-0.2 1.6-0.2m-11.6 7.7c0.4 0 0.8-0.1 1.1-0.2 0.4-0.2 0.7-0.4 0.9-0.6 0.3-0.3 0.5-0.6 0.6-0.9 0.1-0.4 0.2-0.7 0.2-1.1s-0.1-0.8-0.2-1.1c-0.1-0.4-0.4-0.7-0.6-0.9-0.3-0.3-0.6-0.5-0.9-0.6-0.4-0.2-0.7-0.2-1.1-0.2s-0.8 0.1-1.1 0.2c-0.4 0.2-0.7 0.4-0.9 0.6-0.3 0.3-0.5 0.6-0.6 0.9-0.1 0.4-0.2 0.7-0.2 1.1s0.1 0.8 0.2 1.1c0.1 0.4 0.4 0.7 0.6 0.9 0.3 0.3 0.6 0.5 0.9 0.6s0.7 0.2 1.1 0.2m0-7.7c0.7 0 1.3 0.1 1.9 0.4 0.6 0.2 1.1 0.6 1.6 1 0.4 0.4 0.8 0.9 1 1.5 0.3 0.6 0.4 1.2 0.4 1.8s-0.1 1.3-0.4 1.8c-0.3 0.6-0.6 1.1-1 1.5s-1 0.8-1.6 1-1.2 0.4-1.9 0.4-1.3-0.1-1.9-0.4c-0.6-0.2-1.1-0.6-1.6-1-0.4-0.4-0.8-0.9-1-1.5-0.3-0.6-0.4-1.2-0.4-1.8s0.1-1.3 0.4-1.8c0.3-0.6 0.6-1.1 1-1.5s1-0.8 1.6-1 1.2-0.4 1.9-0.4m-6.2 1.8c-0.3 0-0.7 0.1-1 0.2s-0.6 0.3-0.8 0.5-0.4 0.5-0.5 0.8-0.2 0.6-0.2 1v4.9h-2v-4.8c0-0.6 0.1-1.2 0.3-1.7s0.5-1 0.9-1.4 0.9-0.7 1.4-0.9 1.1-0.3 1.7-0.3h0.1v1.7z" style="fill:#fff"/></svg>
