<?xml version="1.0" encoding="UTF-8"?>
<!-- Created with Inkscape (http://www.inkscape.org/) -->
<svg width="130.84" height="152" version="1.1" viewBox="0 0 130.84 152" xml:space="preserve" xmlns="http://www.w3.org/2000/svg" xmlns:cc="http://creativecommons.org/ns#" xmlns:dc="http://purl.org/dc/elements/1.1/" xmlns:rdf="http://www.w3.org/1999/02/22-rdf-syntax-ns#"><metadata><rdf:RDF><cc:Work rdf:about=""><dc:format>image/svg+xml</dc:format><dc:type rdf:resource="http://purl.org/dc/dcmitype/StillImage"/><dc:title/></cc:Work></rdf:RDF></metadata><g transform="matrix(1.25 0 0 -1.25 -35.363 173.6)"><path d="m30.473 136.77h100.3v-27.997h-100.3zm88.292-4.5055c-2.169-1.0803-2.3119-0.47068-3.0375-0.61732-0.72569-0.14427-3.3284 3e-3 -3.5165 0.0983-0.19203 0.0969-1.4005-0.0491-1.4005-0.0491-0.77169-0.0943-0.96436-0.66646-0.96436-0.66646l-0.0491-3.0036c0.12659-0.21484 0.15057-0.43919 0.15057-0.43919 0.95959-2.4953 1.7813-6.1271 1.7813-6.1271 0.24194-0.46997 0.66951-0.84766 0.66951-0.84766 0.82162-0.27656 0-0.51903 0-0.51903-0.33788-0.13976-1.4466 0.0491-1.4466 0.0491-0.57198 0.089-0.33169 0.28562-0.33169 0.28562 0.2457 0.23332 0.046 1.1794 0.046 1.1794-0.046 0.37464-0.48217 0.98586-0.48217 0.98586-0.19184 0.10123-0.53132-0.33169-0.53132-0.33169s-0.0338-0.01-0.0798-0.0246l0.0798-1.9011c0.19577-2.1735 0-4.3888 0-4.3888 0-0.61424 0.24878-0.65724 0.24878-0.65724 1.1518 0.51911 2.2144 0.47297 2.2144 0.47297 6.6492-0.18732 5.5927-0.0491 5.5927-0.0491 1.6814 0.0959 1.5909 1.1333 1.5909 1.1333l-0.0983 2.3526c0.14211 0.52068 0.14428 7.8777 0.14428 7.8777-0.19578 0.75793 0 4.7635 0 4.7635 0 0.37543-0.58048 0.42383-0.58048 0.42383zm-47.85-0.0277s-0.57731-0.0513-0.53132-0.43304l-0.14427-15.132s-0.04305-0.70567 1.1548-0.85073c0 0 1.4013-0.1429 1.7352 0 0 0 0.92274 0.046 3.2801-0.043 0 0 0.57576-0.56744 0.62962 0.1382 0 0 0.37851 12.261 0.19046 14.809 0 0-0.0454 1.0772-0.86303 1.1364 0 0-3.6663-0.2856-4.0079 0l-1.4435 0.37469zm13.882-0.0859c-0.12128-0.0135-0.281-0.0582-0.48831-0.15358 0 0 0.10221-0.38239-4.4779-0.2334 0 0-1.7323 0.0407-1.8243-0.70331 0 0-0.15037-7.1252-0.10437-7.3648l-0.09218-5.9858-0.19046-2.0792s0.28255-0.42079 0.52825-0.14127c0 0 1.5448 0.37923 2.5123 0.24262 0 0 3.0812-0.28707 3.707 0.18428 0 0 0.48068-0.23968 0.62653 0.51903 0 0 0.1944 13.202 0.09828 13.44 0 0 0.1942 1.8888 0.09828 2.0761 0 0-0.02929 0.24052-0.39312 0.19964zm-42.712-0.0277s-0.58209-0.0521-0.52823-0.4269l-0.14427-15.132s-0.05071-0.71641 1.1548-0.8538c0 0 1.4011-0.13976 1.7353 0 0 0 0.92054 0.0454 3.2739-0.043 0 0 0.57967-0.57577 0.6296 0.14127 0 0 0.38862 12.256 0.19656 14.797 0 0-0.05071 1.0902-0.87223 1.1364 0 0-3.6648-0.27657-3.9987 0l-1.4466 0.38083zm58.028 0c-0.34496-0.0135-0.34398-0.28256-0.34398-0.28256 0.14585-0.3764 0.09513-1.1364 0.09513-1.1364 0.09985-0.36697-0.0399-3.6271-0.0399-3.6271-0.09985-0.33159 0-3.8667 0-3.8667 0.14192-0.23725-0.10142-6.6953-0.10142-6.6953 0.14192-0.85012 1.8366-0.80159 1.8366-0.80159 0.18811-0.18201 6.3605-0.0461 6.3605-0.0461 1.0135-0.42221 1.0596 0.0461 1.0596 0.0461 0.24177 1.4074-0.0277 4.176 0.0491 4.7604 0.0883 0.64098 0.10437 1.2944 0.10437 1.726-0.0269 0.013-0.0474 0.0316-0.0552 0.0614-0.0497 0.18575-0.38392 0.37776-0.38392 0.37776-0.58732 0-0.82615-1.4097-0.82615-1.4097 0.33395-1.1815 0-0.99815 0-0.99815-0.28796-0.37169-1.2008-0.0891-1.2008-0.0891-0.44147 0.089-0.14427 0.42075-0.14427 0.42075 0.5297 0.10045 0.67567 0.66646 0.67567 0.66646 0.24194 0.32098 1.7813 6.4526 1.7813 6.4526 0.0267 0.0491 0.0507 0.10745 0.0737 0.16892l-0.0246 0.0737 0.0491 2.9238c-0.29169 1.0319-1.2592 0.84766-1.2592 0.84766-0.62191 0.18438-3.0866 0-3.0866 0-1.1094-0.14211-2.2696 0.0491-2.2696 0.0491-1.5894-0.2402-1.8765 0.28562-1.8765 0.28562-0.20442 0.071-0.35797 0.0966-0.47296 0.0921zm-44.14-0.0277c-0.11951-0.0129-0.27561-0.0568-0.47909-0.15049 0 0 0.08983-0.38454-4.4901-0.24263 0 0-1.7313 0.0485-1.8274-0.70637 0 0-0.1482-7.1207-0.09828-7.3556l-0.09218-5.9858-0.19962-2.0792s0.29328-0.41784 0.53132-0.14127c0 0 1.5411 0.38226 2.5123 0.23956 0 0 3.082-0.28329 3.7039 0.19042 0 0 0.48768-0.23252 0.6296 0.51597 0 0 0.19577 13.204 0.09218 13.44 0 0 0.1966 1.8849 0.10437 2.0761 0 0-0.0285 0.23805-0.38698 0.19963zm12.273-0.31634c-0.19685-5e-3 -0.48546-0.12304-0.90295-0.49446l-0.04305-1.938s-7.07e-4 -1.081-1.0104-1.0258c0 0-1.1548 0.0461-1.6922-0.46989 0 0-0.28562-1.0403 0.82-0.85687 0 0 1.7405 3e-3 1.8366-0.70639l-0.09828-7.1191s0.3839-1.1701-0.96744-1.1701c0 0-1.6332 0.0831-1.5909-0.8968 0 0 0.3447-0.85225 1.7383-0.57432 0 0 1.0104-0.19105 0.96437-1.1302v-1.7967s-0.10142-0.70405 0.86608-0.74631h7.5214s0.38698-0.0524 0.38698 0.42076c0 0-0.04678 0.37776-0.62653 0.37776l-6.2684 0.0891s-1.0135-0.32931-1.1056 1.1333c0 0 0.09199 13.295 0.046 13.532-0.04619 0.23173 0.046-0.18428 0.046-0.18428s-0.14427 2.3119 0.48524 3.2524c0 0-0.07725 0.31166-0.40538 0.30405zm53.835-0.1014c-0.21353-9e-3 -0.42613-0.0572-0.49139-0.0737 0 6e-3 -0.0269 0.0167-0.12278 0.0399-0.19204 0.0513-0.19342-0.32862-0.19342-0.32862 0.62584-0.61052 0.43306-1.6001 0.43306-1.6001-0.0463-12.594 0-13.059 0-13.059l-0.13818-0.4791s-0.0553-1.2692-0.0553-1.6462c0-0.37071-0.23957-0.65725-0.23957-0.65725l-0.58046-0.18734c-0.38407-0.33631-2.844-0.15048-2.844-0.15048s-5.6372-0.13676-6.0288-0.043c-0.37622 0.0951-0.95516-0.18428-0.95516-0.18428-0.1997-0.66554 0.57739-0.76166 0.57739-0.76166 1.2938 0.0945 9.5945 0.0461 9.5945 0.0461 1.2977-0.0883 1.4466 0.52211 1.4466 0.52211 0.23802 0.19263 0.043 1.2746 0.043 1.2746 0.0961 0.22878 0.24263 1.551 0.24263 1.551-0.14585 0.56668 1.8765 0.5221 1.8765 0.5221 1.0634 0.0454 0.67873 0.99815 0.67873 0.99815 0 0.41395-1.4926 0.37162-1.4926 0.37162-1.2092-0.0483-1.21 0.70024-1.21 0.70024s0.1482 6.4258 0.0523 7.3157c-0.0961 0.89218 0.6726 1.035 0.6726 1.035l1.1609 0.0952c0.86369-0.14054 0.86302 0.70332 0.86302 0.70332 0 0.38171-1.2469 0.51903-1.2469 0.51903-0.58339-0.13661-0.87223 0.15048-0.87223 0.15048-0.72569 0-0.6296 1.3636-0.6296 1.3636 0.33769 0.66044-0.046 1.7875-0.046 1.7875-0.067 0.14967-0.28092 0.18358-0.49447 0.17505zm-82.665-0.0116c-0.1967-4e-3 -0.48404-0.12253-0.90293-0.49448l-0.046-1.9349s-7.09e-4 -1.085-1.0104-1.0412c0 0-1.1555 0.0522-1.6892-0.46376 0 0-0.29022-1.0418 0.82309-0.85073 0 0 1.7345-1.4e-4 1.8304-0.70638l-0.09513-7.1252s0.38698-1.1732-0.96436-1.1732c0 0-1.6362 0.0884-1.594-0.8968 0 0 0.33771-0.84921 1.7352-0.56204 0 0 1.0106-0.18881 0.96437-1.1333v-1.7971s-0.09376-0.69879 0.86608-0.75245h7.5214s0.39003-0.0492 0.39003 0.4269c0 0-0.04993 0.37776-0.6296 0.37776l-6.2653 0.0921s-1.0159-0.32786-1.1118 1.1302c0 0 0.09749 13.304 0.05523 13.529-0.05366 0.24355 0.0399-0.18428 0.0399-0.18428s-0.14034 2.3103 0.48526 3.2524c0 0-0.07449 0.31386-0.40234 0.30713zm47.997-6e-3c-0.34496-0.0928-0.34398-0.51289-0.34398-0.51289 0.18811-0.14585 0.33784-0.84766 0.33784-0.84766 0.06133-1.6401-0.01573-3.4114-0.01573-5.089-0.03066-5.6656-0.2764-10.801-0.2764-10.801 0-1.1324-0.62962-0.80774-0.62962-0.80774l-6.7444-0.0461c-0.67952 0-0.68178-0.37162-0.68182-0.37162 0.09966-0.52146 0.76782-0.32862 0.76782-0.32862 0.62562-0.14132 7.3341-0.0522 7.3341-0.0522 1.0135-0.13975 0.91828 1.1794 0.91828 1.1794 0.14585 2.216 0.33784 2.4539 0.33784 2.4539 0.24196 0.1889 1.3513 0.13514 1.3513 0.13514 1.7851-0.0914 0.96129 1.0841 0.96129 1.0841-0.2343 0.38309-1.4435 0.34398-1.4435 0.34398-1.1632-0.0584-1.0626 1.121-1.0626 1.121l0.14742 6.8427c-0.14585 0.56137 0.33783 0.85072 0.33783 0.85072h1.0995c1.5471-0.10062 1.164 0.84153 1.164 0.84153-0.05366 0.46761-1.3452 0.66644-1.3452 0.66644-1.3053-0.1995-1.164 0.51598-1.164 0.51598l-0.046 1.6462c0.19204 1.085-0.53132 1.1333-0.53132 1.1333-0.20442 0.0701-0.35799 0.0739-0.47298 0.043zm9.8494-0.0645c-0.57965-0.092-0.53132-2.4969-0.53132-2.4969-0.04993-1.1794-1.1087-0.98586-1.1087-0.98586-1.3973 0.18889-1.8765-0.65724-1.8765-0.65724-0.09611-0.81002 1.296-0.81081 1.296-0.81081 0.24196 0.0943 1.0104 0.0553 1.0104 0.0553 0.82533-0.0553 0.67874-1.2776 0.67874-1.2776l-0.14427-6.9809c0.2457-0.94289-0.96438-0.74631-0.96438-0.74631-1.6391 0.0898-1.8765-0.61424-1.8765-0.61424 0.04599-0.99282 1.7291-0.71253 1.7291-0.71253 1.2055-0.13975 1.1118-0.79851 1.1118-0.79851 0.09592-0.23725 0.09513-1.511 0.09513-1.511 0-1.3674 0.38696-1.4158 0.38696-1.4158 0.14585-0.27715 2.5522-0.1382 2.5522-0.1382 3.6202-0.13897 7.6259 0.23955 7.6259 0.23955 0.52599-0.10122 0.52516 0.23342 0.52516 0.23342 0.28405 0.37228-0.47911 0.51596-0.47911 0.51596-0.53739 0.14428-9.0171-0.0461-9.0171-0.0461-0.8678-0.28088-0.77088 0.85073-0.77088 0.85073v2.5399c-0.04993 0.37484 0 1.5141 0 1.5141s0.09513 5.9413 0.04914 6.1793c-0.04993 0.23194 0 2.2635 0 2.2635l0.046 3.1511c-0.046 0.2396 0.53438 1.2807 0.53438 1.2807 0.33397 0.32924-0.87221 0.36855-0.87221 0.36855zm-38.685-0.0491c-0.34818-0.0943-0.34704-0.51596-0.34704-0.51596 0.19577-0.14447 0.34091-0.84766 0.34091-0.84766 0.06526-1.647-0.0079-3.4077-0.01185-5.089-0.03066-5.6634-0.27644-10.802-0.27644-10.802 0-1.1294-0.62038-0.80466-0.62038-0.80466l-6.7567-0.043c-0.6679 0-0.66952-0.37776-0.66952-0.37776 0.09592-0.52049 0.7678-0.3317 0.7678-0.3317 0.62584-0.14211 7.331-0.0491 7.331-0.0491 1.0137-0.14192 0.91524 1.1886 0.91524 1.1886 0.13838 2.2083 0.34398 2.4478 0.34398 2.4478 0.23801 0.19106 1.339 0.14129 1.339 0.14129 1.7851-0.0951 0.96437 1.0811 0.96437 1.0811-0.23803 0.377-1.4404 0.33169-1.4404 0.33169-1.1632-0.0515-1.0688 1.1302-1.0688 1.1302l0.15056 6.8427c-0.14958 0.55822 0.33476 0.84152 0.33476 0.84152h1.1087c1.5471-0.0922 1.1609 0.85072 1.1609 0.85072-0.04973 0.46742-1.3483 0.65417-1.3483 0.65417-1.3053-0.18751-1.1578 0.52211-1.1578 0.52211l-0.04304 1.6492c0.18811 1.0882-0.53747 1.1364-0.53747 1.1364-0.20635 0.0694-0.36306 0.0745-0.47913 0.043zm27.638-6e-3c-0.16039 0.0539-0.34227-0.0165-0.54669-0.29791l-0.04607-14.905s0.37778-1.3175 1.0074-1.1794c0 0 0.09828 0.27801 0.14427 0.75859l0.19341 14.189s-0.27145 1.2729-0.75244 1.4343zm34.069-0.083c-0.15548 0.0227-0.31019-0.0514-0.31019-0.42691l-0.10142-14.465-0.046-0.33784s0.58185-1.0857 0.86607-1.2254c0 0 0.52823-0.61203 0.39004 0.47297l0.0922 13.581s-0.13818 0.47064 0 1.2254l-0.58046 1.035s-0.15469 0.11866-0.31019 0.14126zm-62.896-0.0307c-0.16078 0.053-0.34649-0.0207-0.55282-0.30406l-0.04914-14.895s0.38765-1.3252 1.0135-1.1794c0 0 0.09533 0.2796 0.14133 0.74938l0.19656 14.195s-0.26728 1.2753-0.74938 1.4343zm12.27-0.0399c-0.91382 0.0906-1.0074-1.6585-1.0074-1.6585l-0.10142-14.143c0.04993-0.66259 0.29177-0.5651 0.29177-0.5651 0.92147 0.51832 0.77088 1.551 0.77088 1.551s0.15056 13.394 0.15056 13.633c0 0.23724-0.10437 1.1824-0.10437 1.1824zm29.247-0.0706c-0.67952-0.47089-0.73096-1.555-0.73096-1.555l-0.19341-14.518c0-0.80235 0.43919-0.29483 0.43919-0.29483 0.81375 0.62112 0.6726 1.5602 0.6726 1.5602l0.10142 14.241c0.04207 0.56589-0.28869 0.56511-0.28869 0.56511zm-58.074-0.0489c-0.90967 0.0923-1.0135-1.6492-1.0135-1.6492l-0.09521-14.146c0.04993-0.66024 0.28868-0.56818 0.28868-0.56818 0.91754 0.51891 0.76475 1.5602 0.76475 1.5602s0.15056 13.39 0.15056 13.624c0 0.23645-0.09513 1.1793-0.09513 1.1793zm61.538-3.4367s0.43923-0.28329 0.82309-0.37469h2.2666l0.82003 0.37469s0.33855-0.0492 0.24263-0.4699c0 0 0.14427-1.0841-0.48527-1.2254 0 0-0.38555 0.14121-0.57739 0.66031 0 0-0.62881 0.32393-0.67873-0.76165 0 0 0.14584-3.4881 0-3.9588l-0.0491-0.75245s0.19636-0.52213 0.48831-0.70945c0 0 0.23895-0.65803-0.34089-0.6081 0 0-1.2009 0.0905-1.4926 0.043 0 0-0.67183 7.6e-4 0 0.84459 0 0 0.23729 0.33781 0.18732 1.1824 0 0-2e-3 3.9581 0.10143 4.2014 0 0 0.0937 0.52059-0.2365 0.6511l-0.58046-0.043-0.72172-0.66031s-0.14978-0.70867-0.4914 0.0522v0.36854l0.43917 1.1364 0.28562 0.0491zm14.247-0.30098c0.30936 0.0731 0.36241-0.22113 0.36241-0.22113l0.0951-0.70945c0.0999-0.8515-0.28255-0.85381-0.28255-0.85381-0.28798 0.10204-0.77397 0.66953-0.77397 0.66953-1.3053 0.7601-1.64-0.66953-1.64-0.66953 0.24196-0.7878 1.3022-1.2653 1.3022-1.2653 1.1096-0.46604 1.7352-1.4189 1.7352-1.4189 0.8676-1.3177-0.3409-2.3986-0.3409-2.3986-1.1017-1.2737-2.4109-0.23341-2.4109-0.23341l-0.3839 0.0952c-0.72176-0.62427-0.72174 0-0.72174 0-0.14192 1.5508 0.19046 1.6462 0.19046 1.6462 0.28403 0.0914 0.53132-0.4269 0.53132-0.4269-0.0423-0.42299 0.72174-0.79851 0.72174-0.79851 1.5933-0.80235 1.7905 0.79851 1.7905 0.79851 0.0959 0.89533-1.4005 1.6062-1.4005 1.6062-2.0269 0.84521-1.8335 2.1683-1.8335 2.1683 0.0462 1.9394 1.8765 1.7905 1.8765 1.7905 0.14978-0.23567 0.78008 0 0.78008 0 0.16786 0.12992 0.29922 0.19676 0.40234 0.22113zm-36.05-0.32249 0.48218-0.0921c0.33788 0.0423 0.67874-0.0983 0.67874-0.0983 0.34162-0.52286-0.24263-0.80773-0.24263-0.80773l-0.19041-0.60525c-0.04993-0.51754 0-4.9969 0-4.9969 0.09219-0.23489 0.47911-0.66339 0.47911-0.66339 0-0.42614-0.52825-0.33169-0.52825-0.33169l-1.4035-0.0522c-0.4338 0.0515-0.28564 0.52518-0.28564 0.52518 0.48375 0.24039 0.6204 1.0811 0.6204 1.0811v4.6713l-0.42997 0.94286c-0.13818 0.37622 0.82002 0.4269 0.82002 0.4269zm-8.4213-0.0522c0.21738-5e-3 0.42384-0.0399 0.42384-0.0399h2.0209c1.9273-0.62113 1.6339-1.984 1.6339-1.984 0.14978-1.3698-1.3483-1.9349-1.3483-1.9349l-0.09219-0.75553 1.3974-2.1683c0.24196-0.18732 0.19341-0.37469 0.19341-0.37469-0.19204-0.51753-0.96742 0-0.96742 0l-1.7322 2.6412c-0.14585 0.18673-0.43919-0.14435-0.43919-0.14435l-0.09218-1.465 0.43917-0.70638c0.28403-0.37228-0.19656-0.66339-0.19656-0.66339l-1.5448 0.15049c-0.29562 0.1429 0 0.61424 0 0.61424 0.3839 0.23037 0.43612 0.84152 0.43612 0.84152l-0.05228 2.7395 0.05228 1.981c0 0.22722-0.38392 0.65416-0.38392 0.65416-0.34555 0.052-0.24261 0.47605-0.24261 0.47605 0.04816 0.11828 0.27711 0.14319 0.49446 0.13819zm-19.06-0.089c0.24196 0.0913 0.3839-0.23957 0.3839-0.23957l0.24261-0.79544c-0.24194-0.66554-0.48218-0.0983-0.48218-0.0983-0.09592 0.27557-1.0565 0.47297-1.0565 0.47297-0.82161 0.0893-0.72176-1.0903-0.72176-1.0903-0.24194-0.60422 0.14132-1.3636 0.14132-1.3636 0.82142-0.33474 1.1056 0.2334 1.1056 0.2334 0.04973 0.18595 0.47911 0.14129 0.47911 0.14129 0.34162-0.46899 0-1.2224 0-1.2224-0.14585-0.24117-1.0565 0.3317-1.0565 0.3317-0.82161 0.043-0.7709-0.47297-0.7709-0.47297v-2.0823c0-0.3709 0.38698-0.70638 0.38698-0.70638 1.7313-0.22958 1.8796 0.52825 1.8796 0.52825 0.4798 0.88982 0.6296 0.27948 0.6296 0.27948 0.33395-1.7016-1.0166-1.4619-1.0166-1.4619-3.5204 0.0415-3.0866 0.33169-3.0866 0.33169-0.34162 0.046 0.14427 0.65724 0.14427 0.65724l0.14132 0.37162 0.05228 5.0061c1.9e-5 0.18732-0.14427 0.27333-0.14427 0.27333-0.57965 0.24334-0.3839 0.71254-0.3839 0.71254l1.3022 0.14435c0.19577-0.18969 1.8305 0.0491 1.8305 0.0491zm-10.703-0.0491 1.7813-0.0491s0.5804-0.47361-0.18732-0.99508c0 0 0.09199-0.744 1.1056-3.6271 0 0 0.28623-1.0841 0.62038-0.28255l0.97053 3.3476-0.28871 0.99507s-0.29625 0.46604 0.14133 0.51597c0 0 1.0113 0.096 1.1609-0.28256l-0.43304-0.89372s-1.0602-4.5815-1.64-5.5221c0 0-0.09435-0.94213-0.91213-0.18734 0 0-1.8842 5.8016-1.984 5.995l-0.62346 0.41462s-0.38313 0.52132 0.2887 0.57125zm31.557-0.48526c-0.26535-0.025-0.50677-0.0859-0.50677-0.0859l-0.13818-0.33263c0.04226-1.029 0.04305-2.4478 0.04305-2.4478 0.91754-0.70564 1.4466 0.28562 1.4466 0.28562 1.2055 1.1347-0.0014 2.1646-0.19341 2.4539-0.09789 0.1425-0.38573 0.15098-0.65108 0.12588zm35.377-1.0137-0.53132-0.33477c-0.0537-0.22505-0.39005-1.551-0.39005-1.551l0.29791-0.4699s0.76874-0.0461 1.0565-0.0461c0.28796 0 0.33784 0.23194 0.33784 0.46683 0 0.23567-0.53747 1.6554-0.53747 1.6554zm10.347-9.8433c-0.17592 0.032-0.36546-0.17812-0.36546-0.17812-0.34184-0.41985-1.4957-0.42076-1.4957-0.42076s0.81235 0.19184-0.53132-0.0491c-1.3514-0.22958-5.737 0.0491-5.737 0.0491-0.33768 0.0906-1.2008-0.47297-1.2008-0.47297-0.14978-0.80156 1.3421-0.56817 1.3421-0.56817 0.2457 0.0515 8.1019 0.0522 8.1019 0.0522 0.81768-0.0515 0.77086 0.41769 0.77086 0.41769l-0.72172 1.0381c-0.048 0.0812-0.10418 0.1214-0.16275 0.13207zm-20.092-0.0339-0.37776-0.32555c-0.37641-0.44776-0.87982-1.0995-0.33476-1.1886l0.86301 0.0553 7.8992-0.0952c0.87155-0.18889 0.97358 0.37776 0.97358 0.37776 0.0421 0.37248-0.67567 0.42383-0.67567 0.42383l-6.557 0.086c-1.1133-0.0438-1.7905 0.66646-1.7905 0.66647zm-58.111-0.25887s-0.48078 0.18732-0.91832-0.61425c0 0-0.1942-0.65717 0.53134-0.51289h4.9662l1.3483-0.28256s1.3973 0.32322 0 1.078c0 0-4.4379-0.0469-4.8218 0.0522 0 0-0.91753 0.23585-1.1056 0.27949zm28.826-0.0215s-0.48363 0.18897-0.92137-0.61732c0 0-0.18673-0.65862 0.53132-0.50982h4.9754l1.3421-0.2887s1.4013 0.3325 0 1.0841c0 0-4.4379-0.0436-4.8218 0.0491 0 0-0.90987 0.23499-1.1056 0.28256zm15.061-0.0368c-0.28558 0.0187-0.69102-0.0584-0.69102-0.0584-0.82535-0.57199-5.6388-0.14742-5.6388-0.14742-0.29562 0-0.73094-0.47297-0.73094-0.47297-0.14211-0.84992 1.3514-0.51904 1.3514-0.51904 0.28401 0 5.7401 0.0461 5.7401 0.0461 0.86761-0.2343 0.91828 0.19349 0.91828 0.19349 0 0.32864-0.72172 0.89986-0.72172 0.89986-0.04895 0.0332-0.13209 0.0521-0.22728 0.0583zm-28.833-0.0768c-0.28664 0.0204-0.69411-0.0614-0.69411-0.0614-0.81393-0.56117-5.6388-0.14128-5.6388-0.14128-0.28794 0-0.72479-0.46683-0.72479-0.46683-0.14192-0.85011 1.3544-0.52211 1.3544-0.52211 0.28798 0 5.734 0.0491 5.734 0.0491 0.87154-0.23488 0.91828 0.18428 0.91828 0.18428 0 0.33631-0.72172 0.89679-0.72172 0.89679-0.04895 0.0363-0.13169 0.0546-0.22728 0.0614zm52.847-1.0442c-0.66812-0.1374-0.90992-0.88751-0.76781-1.5049 0.13818-0.60737 0.67125-0.76081 1.1548-0.66646 0.47999 0.0983 0.43304 0.52211 0.43304 1.2838 0 0.75164-0.82001 0.88759-0.82001 0.88759zm-60.454-0.26721c-0.05602 0.0144-0.11164 0.0108-0.1659-0.0122 0 0-0.92129-1.2e-4 -0.87529-1.1824 0 0 0.09985-0.8968 1.0596-0.8968 0 0 0.876 0.14209 0.78008 1.0903 0 0-0.40646 0.90023-0.79852 1.0012zm28.728-0.0215c-0.05602 0.014-0.11165 0.0119-0.1659-0.0122 0 0-0.91229-7.4e-4 -0.86609-1.1732 0 0 0.09454-0.8968 1.0657-0.8968 0 0 0.85607 0.13751 0.7678 1.0841 0 0-0.40882 0.90108-0.80158 0.99815zm-47.122-6.5755s1.4588 2e-3 1.5971 0h98.615l6e-3 -0.74323-0.0157-9e-3 0.0214-4.5055 4e-3 3e-3 0.0337-3.2401c0-4.3909-0.44849-10.055-1.8458-16.496-2.1332 0.08731 8e-5 0.01082 0-0.0093l-0.13818-0.62039c-1.1593-5.175-2.9577-10.829-5.6296-16.726-0.11145-0.24491-0.22333-0.48904-0.33475-0.73709-4e-3 -4e-3 -8e-3 -0.01159-0.0116-0.0215l-0.14427-0.31019h4e-3c-0.49144-0.99965-0.98424-1.9986-1.4772-2.9975-0.20738-0.40235-0.42378-0.80764-0.63882-1.2131-0.13818-0.26103-0.27864-0.51972-0.42075-0.77702l-0.11971-0.21498h4e-3c-5.7112-10.331-14.371-21.201-27.175-31.164l-0.01185-0.0093-0.22726-0.17812c-3.4627-2.6759-7.2205-5.2932-11.32-7.8316l-0.23033-0.14127-0.24878 0.10441c-0.023 0.0079-1.9632 0.80252-5.0767 2.5645-0.2457 0.1429-0.49515 0.28346-0.75244 0.43304-0.01966 0.01237-0.03342 0.01631-0.04914 0.02764l-0.26413 0.15357c-8.3498 4.934-23.45 16.009-33.701 36.102h-4e-3l-0.27949 0.55282c-0.06919 0.13425-0.13366 0.2701-0.20269 0.40847-2.457 4.9584-4.6077 10.455-6.2929 16.52l-0.18732 0.67567c2.2153-0.0019 0 0.0014 0 0.0031-1.9612 7.1789-2.9875 13.795-3.4674 21.901v3.5872l-0.01573 4.9078zm1.1763-0.95822c-0.06526 0-0.12816-5e-3 -0.19341-9e-3v-2.2604c0.01573 0.0191 0.03145 0.04 0.04304 0.0614 0.0079 9e-3 0.01376 0.0199 0.02143 0.0307 0.02693 0.0423 0.05759 0.0814 0.09219 0.12285 4e-3 6e-3 0.0079 0.0151 0.01573 0.0215 0.03833 0.0476 0.08295 0.0921 0.12894 0.13514 4e-3 3e-3 0.0019 4e-3 0.0059 6e-3 0.04992 0.0438 0.09985 0.0844 0.15351 0.12592 4e-3 2e-3 0.0059 5e-3 0.0098 6e-3 0.12285 0.0861 0.33244 0.21418 0.6511 0.39619 0.0079 5e-3 0.01769 0.01 0.02457 0.0153 0.06526 0.037 0.13287 0.0752 0.20578 0.11671 0.01185 8e-3 0.02771 0.0169 0.04305 0.0246 0.14978 0.0845 0.30942 0.17416 0.48218 0.27027-0.16118 0.29641-0.36853 0.49833-0.59889 0.64496-0.31481 0.19734-0.69255 0.29176-1.0841 0.29176zm29.963-0.0215c-0.36481 0-0.74867-0.0823-1.0903-0.21498-0.47606-0.18123-1.3137-0.59899-2.1161-1.0289 4e-3 -0.0423 0.0059-0.0837 0.0059-0.12591 0-0.21484-0.05523-0.41916-0.14742-0.60196-0.04226-0.0845-0.09356-0.16664-0.14742-0.23955-0.17651-0.23332-0.40695-0.42012-0.66032-0.58661-0.08059-0.0538-0.17278-0.10534-0.26105-0.15664-0.01966-0.01-0.04147-0.0209-0.06447-0.0307-0.08078-0.0462-0.16059-0.0844-0.24878-0.12592-0.0079-5e-3 -0.02221-0.0122-0.03381-0.0185-0.09592-0.0444-0.19184-0.0867-0.29177-0.129-0.02693-0.0108-0.05385-0.023-0.07685-0.0338-0.08432-0.0322-0.16354-0.0645-0.25183-0.0952-0.01572-8e-3 -0.03047-0.0138-0.046-0.0185 0.01966-0.023 0.03931-0.0459 0.05838-0.0676 0.19577-0.20501 0.44933-0.38461 0.85994-0.38697 0.18811 0 0.41621 0.04 0.70024 0.15048 0.77542 0.30113 1.9133 0.57189 2.9883 0.8968 0 0.01 0.0019 0.0216 0.0059 0.0338 0 0.0185 0.0019 0.0393 0.0059 0.0583 4e-3 0.0277 4e-3 0.0554 0.01185 0.0829 4e-3 0.0208 0.0079 0.0399 0.01185 0.0584 0.0079 0.0307 0.02045 0.0608 0.02752 0.0891 0.0079 0.0193 0.0098 0.0399 0.01769 0.0584 0.01573 0.0338 0.03066 0.0668 0.046 0.0983 0.0079 0.0169 0.01769 0.0353 0.02457 0.0522 0.01966 0.0375 0.03852 0.0738 0.06152 0.11056 0.01185 0.0116 0.01376 0.0245 0.02457 0.0368 0.02693 0.0438 0.06133 0.0844 0.09218 0.12592 4e-3 8e-3 0.01376 0.0124 0.01769 0.0185 0.08432 0.0975 0.17966 0.1896 0.29484 0.27334l4e-3 3e-3c0.01572 0.01 0.03047 0.0215 0.046 0.0307 0.14192 0.0959 0.37926 0.23734 0.70948 0.42997 0.01966 0.0108 0.03912 0.023 0.05838 0.0338 0.06526 0.0369 0.13071 0.0737 0.19962 0.11362 0.02693 0.0147 0.05897 0.0309 0.0859 0.0491 0.06919 0.0385 0.14211 0.0737 0.21498 0.11363 0.02693 0.0177 0.05209 0.033 0.08295 0.0491 0.08433 0.0462 0.16963 0.0929 0.25798 0.14126v3e-3h-4e-3v3e-3c-0.14211 0.22506-0.30944 0.37928-0.49755 0.49446-0.28029 0.17121-0.61882 0.25184-0.97971 0.25184zm-23.664-0.0246c-0.36462 2e-3 -0.74847-0.0829-1.0903-0.21498-0.51439-0.20266-1.4481-0.66953-2.3157-1.1364v-3e-3l-0.04914-0.0276c4e-3 -9e-3 4e-3 -0.0138 4e-3 -0.0215-4e-3 -0.15115-0.02771-0.29422-0.07371-0.4269-0.11125-0.33493-0.35318-0.60655-0.6296-0.82001-0.04993-0.0391-0.10359-0.079-0.15351-0.11364-4e-3 -3e-3 -0.0059-3e-3 -0.0098-6e-3 -0.07292-0.0468-0.15056-0.0959-0.22726-0.14128-0.023-0.0106-0.04226-0.0224-0.06133-0.0338-0.07685-0.0415-0.14978-0.0799-0.23033-0.11978-0.0079-4e-3 -0.01572-8e-3 -0.02771-0.0122-0.08825-0.043-0.18044-0.0875-0.2764-0.129-0.01966-8e-3 -0.03302-0.0153-0.05228-0.0215-0.08059-0.0354-0.16668-0.0693-0.25492-0.10443-0.01185-2e-3 -0.01966-6e-3 -0.03066-9e-3 0.03459-0.0454 0.07449-0.0905 0.11675-0.13514 0.19184-0.20501 0.44839-0.38154 0.86303-0.3839 0.18418 0 0.41154 0.0377 0.68795 0.14742 0.76013 0.30034 1.8718 0.55746 2.9238 0.8753 0 0.0161 4e-3 0.0322 4e-3 0.0491 0 0.02 0.0059 0.0385 0.0098 0.0584 0 0.0277 4e-3 0.0598 0.01185 0.0891 4e-3 0.0191 0.0059 0.036 0.0098 0.0553 0.0079 0.0307 0.01966 0.0638 0.03066 0.0952 4e-3 0.0177 0.01185 0.0362 0.01573 0.0553 0.01572 0.033 0.03066 0.0675 0.046 0.10134 0.0079 0.0153 0.01769 0.0315 0.02457 0.0461 0.01966 0.0377 0.03852 0.0744 0.06133 0.11056 0.0079 0.0138 0.01573 0.0275 0.02771 0.0399 0.02673 0.0415 0.05543 0.0791 0.08609 0.11978 0.0079 9e-3 0.01376 0.0193 0.02143 0.0276 0.03852 0.043 0.08078 0.0875 0.12285 0.129 4e-3 5e-3 0.0079 9e-3 0.01572 0.0153 0.04973 0.043 0.09966 0.0844 0.15351 0.12591 4e-3 0 0.0019 2e-3 0.0059 3e-3 0.10752 0.0767 0.29179 0.19034 0.55282 0.3409 0.06919 0.0431 0.14663 0.0853 0.22726 0.13207 0.01185 8e-3 0.02535 0.0169 0.03695 0.0246 0.07292 0.0407 0.15135 0.0829 0.22419 0.12591 0.02693 0.0153 0.05602 0.0307 0.08295 0.0461 0.08059 0.046 0.17042 0.0929 0.25492 0.14126 0.01966 8e-3 0.03066 0.0155 0.046 0.0246 0.09218 0.0515 0.18673 0.10526 0.28255 0.15971-0.36088 0.53817-0.86212 0.7064-1.465 0.72173zm5.7923 0c-0.36853 0-0.75636-0.0807-1.1056-0.21806-0.44147-0.16589-1.2046-0.54756-1.9687-0.95208 0.01185-0.0692 0.01769-0.13757 0.01769-0.20577 0-0.13523-0.02712-0.26503-0.06133-0.39004-0.05759-0.17435-0.14447-0.33786-0.25185-0.47604-0.18437-0.23803-0.42828-0.42678-0.69717-0.59582-0.08432-0.0537-0.17828-0.10513-0.27025-0.15664-0.02319-0.0113-0.04697-0.0224-0.07371-0.0338-0.08078-0.0438-0.16354-0.0852-0.25183-0.12591-0.01185-6e-3 -0.02771-0.0106-0.04304-0.0185-0.09985-0.0444-0.19959-0.0892-0.30712-0.13207-0.023-9e-3 -0.05071-0.0185-0.07371-0.0276-0.08826-0.0362-0.18123-0.0714-0.27335-0.10441-0.01185-6e-3 -0.02457-0.0108-0.0399-0.0153 0.0079-9e-3 0.01376-0.0183 0.02143-0.0246 0.19577-0.20501 0.44847-0.38154 0.86301-0.3839 0.18437 0 0.41159 0.0361 0.68795 0.14435 0.84088 0.33396 2.1207 0.62192 3.2647 0.9828 4e-3 0.0336 0.0079 0.0691 0.01185 0.10134 4e-3 0.0147 0.0079 0.0269 0.01185 0.0399 0.01185 0.0415 0.02457 0.0852 0.0399 0.129 0.0079 0.0169 0.01376 0.0347 0.01769 0.0522 0.01573 0.0316 0.02771 0.0615 0.04304 0.0921 0.0079 0.0193 0.01966 0.0362 0.03066 0.0553 0.01573 0.0293 0.02988 0.0608 0.04914 0.0891 0.01185 0.02 0.02457 0.036 0.0399 0.0553 0.01966 0.0299 0.04088 0.0606 0.06761 0.0891 0.01185 0.0177 0.02457 0.0367 0.0399 0.0522 0.02673 0.0322 0.06054 0.063 0.09513 0.0952 0.0079 0.0122 0.02221 0.0269 0.03381 0.0399 0.04599 0.043 0.09985 0.0822 0.15351 0.12284 0.01185 8e-3 0.02221 0.0161 0.03381 0.0246 0.0079 4e-3 0.01376 9e-3 0.02143 0.0122v3e-3c0.08059 0.056 0.1828 0.11754 0.31326 0.19655 0.08825 0.0523 0.19498 0.1128 0.31021 0.18121 0.08059 0.0468 0.16963 0.0967 0.25798 0.14742 4e-3 2e-3 0.0059 2e-3 0.0098 3e-3 0.16511 0.0938 0.34012 0.19589 0.52825 0.29791-0.15371 0.27184-0.33405 0.4553-0.53747 0.5866-0.28798 0.18497-0.63424 0.26642-1.0104 0.2672zm6.1056 0c-0.37246 0-0.76094-0.0862-1.1026-0.21806-0.49906-0.19361-1.4189-0.65719-2.2789-1.1179 4e-3 -0.0113 4e-3 -0.0239 4e-3 -0.0369 0-0.0293-4e-3 -0.0584-4e-3 -0.0891-0.01966-0.26967-0.12344-0.52058-0.27333-0.7248-0.16118-0.2288-0.37841-0.41157-0.6204-0.57432-0.08059-0.0529-0.16334-0.10443-0.25183-0.15357-0.01573-9e-3 -0.03066-0.0177-0.046-0.0276-0.08452-0.0444-0.16589-0.0898-0.25798-0.13207 0-3e-3 -4e-3 -6e-3 -0.01185-9e-3 -0.09219-0.046-0.19184-0.0915-0.29177-0.13514-0.01573-7e-3 -0.02457-0.0108-0.0399-0.0185-0.09219-0.0375-0.18024-0.0746-0.2764-0.11057-0.0079-3e-3 -0.01376-7e-3 -0.02143-9e-3 0.02673-0.0407 0.06309-0.0799 0.10142-0.11978 0.19204-0.20501 0.44933-0.38154 0.85994-0.3839 0.18811 0 0.40988 0.036 0.69411 0.14435 0.79074 0.31626 1.9794 0.59584 3.0774 0.93058 0 7e-3 0.0059 0.0124 0.0059 0.0185 0 0.0177 4e-3 0.0339 4e-3 0.0522 4e-3 0.0293 0.0079 0.059 0.01573 0.0891 4e-3 0.0191 0.01185 0.0399 0.01573 0.0584 0.0079 0.0299 0.01769 0.0577 0.02457 0.086 0.0079 0.0214 0.01376 0.0416 0.02143 0.0614 0.01573 0.0285 0.02457 0.0569 0.0399 0.086 0.01185 0.0222 0.01966 0.0431 0.03066 0.0645 0.01966 0.0277 0.03381 0.0552 0.04914 0.0829 0.01185 0.0222 0.02555 0.0446 0.03695 0.0645 0.023 0.0277 0.04521 0.0539 0.06447 0.0798 0.01966 0.0208 0.03361 0.0429 0.04914 0.0645 0.023 0.0267 0.04993 0.0514 0.07685 0.0768 0.01966 0.0193 0.03597 0.0399 0.05523 0.0584 0.03459 0.033 0.07843 0.0628 0.11675 0.0921 0.01573 0.0106 0.02771 0.0207 0.04305 0.0307 0.06133 0.0491 0.15744 0.10899 0.2764 0.18427 0.12285 0.0737 0.27103 0.15898 0.45147 0.26413 0.07292 0.0423 0.14978 0.0874 0.23035 0.13207 0.04226 0.0238 0.08373 0.0469 0.12599 0.0706 0.04226 0.0246 0.08668 0.0478 0.12894 0.0737 0.08432 0.0454 0.16452 0.0896 0.24878 0.1382 0.04619 0.0238 0.08923 0.0491 0.13504 0.0737-0.14585 0.23941-0.32412 0.4039-0.51597 0.52518-0.28422 0.17592-0.62431 0.25641-0.98894 0.25798zm5.9305 0c-0.36461 0-0.74865-0.0854-1.0903-0.21806-0.47606-0.18122-1.3137-0.59591-2.1161-1.0258 4e-3 -0.0423 0.0059-0.0867 0.0059-0.12899 0-0.21483-0.05523-0.41916-0.14742-0.60196-0.04226-0.0845-0.09061-0.16355-0.14427-0.23648-0.17651-0.23331-0.40695-0.42012-0.66032-0.5866-0.08078-0.0539-0.17278-0.10534-0.26105-0.15664-0.01966-0.0101-0.04442-0.0209-0.06761-0.0307-0.08059-0.0462-0.16059-0.0875-0.24876-0.12898-0.0079-5e-3 -0.02221-0.0122-0.03381-0.0185-0.09592-0.0444-0.19184-0.0867-0.29177-0.12898-0.02693-0.0108-0.05385-0.0199-0.07685-0.0307-0.08452-0.0322-0.16059-0.0676-0.24878-0.0983-0.01573-8e-3 -0.03066-0.0138-0.046-0.0185 0.01966-0.023 0.03617-0.046 0.05523-0.0676 0.19577-0.20501 0.44914-0.38154 0.85994-0.3839 0.18811 0 0.41621 0.037 0.70024 0.14742 0.77542 0.30113 1.9164 0.57189 2.9914 0.8968 0 0.01-8.46e-4 0.0247 4e-3 0.0369 0 0.0185 0.0019 0.0362 0.0059 0.0553 4e-3 0.0277 4e-3 0.0554 0.01185 0.0829 4e-3 0.0208 0.0079 0.0429 0.01185 0.0614 0.0079 0.0307 0.02064 0.0608 0.02771 0.0891 0.0079 0.0193 0.0098 0.0399 0.01769 0.0584 0.01573 0.0338 0.03066 0.0668 0.046 0.0983 0.0079 0.0169 0.01769 0.0322 0.02457 0.0491 0.01966 0.0375 0.03833 0.0738 0.06133 0.11057 0.01185 0.0116 0.01376 0.0245 0.02457 0.0369 0.02673 0.0438 0.06152 0.0844 0.09218 0.12592 4e-3 8e-3 0.01376 0.0153 0.01769 0.0215 0.08432 0.0975 0.17985 0.18653 0.29484 0.27027l4e-3 3e-3v3e-3c0.01573 0.01 0.03066 0.0185 0.04599 0.0276 0.14211 0.0959 0.37924 0.23734 0.70946 0.42997 0.01966 0.0108 0.03912 0.023 0.05838 0.0338 0.06526 0.037 0.13071 0.0737 0.19962 0.11363 0.02693 0.0147 0.05916 0.0309 0.08609 0.0491 0.06919 0.0385 0.14211 0.0768 0.21498 0.11671 0.02673 0.0177 0.05228 0.033 0.08295 0.0491 0.08373 0.0458 0.16747 0.0934 0.2549 0.14127v3e-3c-0.14211 0.22506-0.30944 0.38236-0.49753 0.49754-0.28029 0.1712-0.61884 0.25184-0.97973 0.25184zm11.64 0c-0.37228 7.9e-4 -0.76096-0.0807-1.1026-0.21806-0.4454-0.16589-1.2123-0.54606-1.9686-0.94901v-0.0122c0.0079-0.0653 0.01185-0.1313 0.01185-0.19655 4e-3 -0.32708-0.12816-0.62963-0.31634-0.86609-0.18418-0.23803-0.42539-0.42835-0.6941-0.59582-0.08826-0.0552-0.18044-0.10612-0.2764-0.15663-0.01966-0.0108-0.04207-0.0224-0.06133-0.0338-0.08825-0.0438-0.17592-0.0891-0.26412-0.129-0.01185-7e-3 -0.023-0.01-0.03066-0.0153-0.10732-0.046-0.20796-0.0907-0.31941-0.13514-0.01966-8e-3 -0.04226-0.0161-0.06133-0.0246-0.09219-0.0354-0.183-0.0729-0.28255-0.1075-0.0079-5e-3 -0.02202-8e-3 -0.03695-0.0124 0.0079-8e-3 0.01769-0.0169 0.02457-0.0246 0.19577-0.20501 0.44847-0.38154 0.86301-0.3839 0.18437 0 0.41533 0.0377 0.68796 0.14742 0.84068 0.33258 2.1177 0.61805 3.2616 0.97972 0.0079 0.0436 0.01769 0.0882 0.02457 0.13207 0.01185 0.0468 0.03066 0.0937 0.04599 0.14127 0 0.0147 0.0079 0.0254 0.01185 0.0399 0.01573 0.0346 0.03066 0.0698 0.046 0.10444 0.0079 0.0169 0.01769 0.0315 0.02457 0.0491 0.01966 0.0322 0.03538 0.0676 0.05838 0.0983 0.01185 0.0169 0.01966 0.033 0.03066 0.0491 0.023 0.033 0.04678 0.0638 0.07371 0.0952 0.01573 0.0153 0.02752 0.0307 0.04304 0.0461 0.02674 0.033 0.05385 0.0666 0.09219 0.0983 0.01185 0.0122 0.02143 0.0252 0.03676 0.0369 0.046 0.0438 0.09592 0.0852 0.15351 0.12591 0.07292 0.0552 0.18555 0.12217 0.33169 0.20885 0.09966 0.0592 0.20888 0.12814 0.34704 0.20577 0.22644 0.13209 0.4959 0.28486 0.79545 0.4484-0.15351 0.27184-0.3371 0.45451-0.54054 0.5866-0.28796 0.18496-0.63422 0.2672-1.0104 0.2672zm6.1056 0c-0.36481 0-0.75854-0.0845-1.0964-0.21498-0.51048-0.19735-1.432-0.65582-2.2881-1.1179v-0.0399c4e-3 -0.25336-0.08059-0.49294-0.19962-0.69716-0.01966-0.0393-0.04678-0.0761-0.07371-0.11363-0.16511-0.22879-0.37556-0.41385-0.61733-0.57739-0.08078-0.0531-0.16137-0.10272-0.2457-0.15048-0.01966-0.0113-0.03616-0.0224-0.05523-0.0338-0.08078-0.0407-0.15528-0.0852-0.23956-0.12592-0.01185-6e-3 -0.01966-9e-3 -0.03066-0.0153-0.08826-0.0438-0.18044-0.0852-0.2764-0.12592-0.02693-0.0113-0.05071-0.0199-0.07371-0.0307-0.07292-0.0314-0.1482-0.0621-0.22113-0.0921-0.01966-7e-3 -0.03597-0.0153-0.05523-0.0215 0.02693-0.0399 0.06054-0.0799 0.09513-0.11978 0.19577-0.2058 0.45069-0.38154 0.86916-0.3839 0.18044 0 0.41226 0.0377 0.68487 0.14742 0.79842 0.31488 1.9886 0.59048 3.0866 0.92443v0.0246c0 0.014 0.0019 0.0293 0.0059 0.043 4e-3 0.0338 0.0079 0.0637 0.01573 0.0983 4e-3 0.0153 0.0079 0.033 0.01573 0.0491 4e-3 0.033 0.01573 0.0653 0.03066 0.0983 4e-3 0.0169 0.0079 0.033 0.01572 0.0491 0.01185 0.0338 0.02771 0.0675 0.04304 0.10134 0.0079 0.0177 0.01769 0.0322 0.02457 0.0491 0.01966 0.0346 0.03971 0.0669 0.05523 0.10135 0.01185 0.0161 0.02536 0.0307 0.03676 0.0461 0.01966 0.036 0.04619 0.0691 0.07685 0.10444 0.01185 0.0122 0.01966 0.0285 0.03066 0.0399 0.03066 0.0377 0.06683 0.0744 0.10142 0.11057 0.01573 0.01 0.01966 0.0193 0.03066 0.0276 0.05366 0.0446 0.10221 0.0875 0.1598 0.129 0.023 0.0153 0.04757 0.0307 0.07056 0.0491 0.14192 0.0936 0.35703 0.22184 0.6603 0.39619 0.04599 0.0254 0.09435 0.0531 0.14427 0.0798 0.02673 0.0169 0.05543 0.0322 0.08609 0.0491 0.03459 0.0222 0.07528 0.0436 0.11361 0.0645 0.07292 0.0407 0.14447 0.0837 0.22115 0.12592 0.01573 8e-3 0.0285 0.013 0.0399 0.0215 0.08845 0.0478 0.17592 0.0975 0.26414 0.14742-0.14585 0.23941-0.32393 0.4039-0.51598 0.52518-0.28029 0.17592-0.62038 0.25641-0.98894 0.25798zm5.9398 0c-0.37228 7.9e-4 -0.76009-0.0822-1.1056-0.21806-0.47213-0.18122-1.3069-0.59879-2.113-1.0288 4e-3 -0.0444 4e-3 -0.0882 4e-3 -0.13207 0-0.17573-0.03676-0.34415-0.09828-0.50061-0.04993-0.12207-0.1197-0.23582-0.19656-0.33784-0.17277-0.23193-0.39931-0.41842-0.66034-0.58353-0.07685-0.0529-0.16668-0.10362-0.2549-0.15357-0.02693-0.0116-0.04835-0.0245-0.06761-0.0369-0.08059-0.0423-0.16196-0.0822-0.24263-0.11978-0.01572-7e-3 -0.03164-0.0144-0.04305-0.0215-0.09592-0.0436-0.19184-0.086-0.29177-0.12592-0.023-0.0116-0.04993-0.023-0.07685-0.0338-0.08059-0.0322-0.1596-0.063-0.23648-0.0952-0.01966-6e-3 -0.03597-0.0124-0.05523-0.0185 0.02319-0.0238 0.04226-0.049 0.06152-0.0706 0.19577-0.2058 0.44912-0.38076 0.85992-0.38391 0.18418 0 0.41159 0.0377 0.68795 0.14742 0.85621 0.33867 2.1767 0.6343 3.3323 1.0074 4e-3 0.0254 0.01185 0.0491 0.01573 0.0737 0 0.014 0.0059 0.027 0.0098 0.0399 0.01185 0.0454 0.02457 0.0914 0.0399 0.1382 4e-3 0.0147 0.01376 0.0285 0.01769 0.043 0.01572 0.0322 0.02457 0.0645 0.0399 0.0983 0.01572 0.0208 0.02438 0.0421 0.0399 0.0645 0.01185 0.026 0.02516 0.05 0.03676 0.0768 0.01966 0.0224 0.03695 0.0431 0.05228 0.0645 0.01573 0.0254 0.03321 0.0461 0.05228 0.0706 0.01573 0.023 0.03597 0.0454 0.05523 0.0676 0.01966 0.0224 0.04128 0.0453 0.06447 0.0676 0.01966 0.02 0.03852 0.0407 0.06152 0.0584 0.03833 0.0383 0.08885 0.0762 0.13504 0.11057 4e-3 4e-3 0.0014 8e-3 0.0098 9e-3 0.01966 0.014 0.03321 0.0253 0.05228 0.0369 4e-3 2e-3 0.0019 3e-3 0.0059 3e-3 0.13052 0.0938 0.3278 0.20659 0.60809 0.36855 0.06919 0.0423 0.14585 0.0868 0.23035 0.13514 0.01966 9e-3 0.03381 0.0169 0.04914 0.0276 0.14978 0.0843 0.31027 0.17592 0.47911 0.27027-0.15351 0.2858-0.33932 0.47823-0.54667 0.61424h-4e-3c-0.28776 0.18418-0.63115 0.2672-1.0074 0.2672zm6.164 0c-0.36481 2e-3 -0.75238-0.0821-1.0903-0.21498-0.5183-0.20187-1.4703-0.68253-2.3495-1.1517v-6e-3c0-0.29857-0.10909-0.5781-0.27027-0.80159-0.05759-0.079-0.11499-0.14966-0.18418-0.21805-0.11125-0.11676-0.2341-0.22042-0.36855-0.31634-0.01572-0.0132-0.02988-0.0245-0.04914-0.0338l-4e-3 -3e-3c-0.07292-0.0529-0.15567-0.10063-0.23648-0.14742-0.01966-0.0116-0.04128-0.0239-0.06447-0.0369-0.06899-0.0415-0.14447-0.082-0.22113-0.11978-0.01185-5e-3 -0.02536-9e-3 -0.03676-0.0153-0.08825-0.0429-0.17435-0.0868-0.27025-0.12591-0.01966-0.01-0.04462-0.0207-0.06762-0.0307-0.07292-0.0338-0.15292-0.0638-0.23341-0.0952-0.01185-6e-3 -0.02771-0.0108-0.04304-0.0153 0.03459-0.0476 0.07371-0.0966 0.1197-0.14435 0.19577-0.2058 0.4454-0.38154 0.85994-0.3839 0.18437 0 0.41468 0.0377 0.69104 0.14742 0.76007 0.30034 1.8788 0.55746 2.9269 0.8753 0 0.0153-8.45e-4 0.033 4e-3 0.0491 0 0.0191 0.0059 0.0377 0.0098 0.0584 0 0.0277 0.0059 0.0575 0.0098 0.086 4e-3 0.0193 0.0098 0.0391 0.01769 0.0584 0.0079 0.0322 0.01376 0.063 0.02457 0.0952 0.0079 0.0169 0.01185 0.0345 0.01572 0.0522 0.01572 0.0368 0.03695 0.073 0.05228 0.11057 4e-3 0.0116 0.0098 0.026 0.01769 0.0368 0.01966 0.0436 0.04599 0.0876 0.07685 0.13206 4e-3 5e-3 0.0059 0.0132 0.0098 0.0185 0.10359 0.15135 0.23178 0.29634 0.40849 0.42076v6e-3c0.05366 0.0362 0.12049 0.0808 0.20884 0.13207 0.14585 0.089 0.32863 0.19965 0.57432 0.33783 0.08452 0.0507 0.18024 0.10278 0.2764 0.15664 0.023 0.0122 0.03852 0.0239 0.06133 0.0369 0.07685 0.0399 0.14663 0.0844 0.22728 0.12591 0.03459 0.0185 0.06152 0.0339 0.09218 0.0522 0.09219 0.0483 0.18201 0.0992 0.27025 0.15048-0.35695 0.53897-0.86605 0.70641-1.465 0.72174zm5.7893 0c-0.36853 2e-3 -0.75787-0.0815-1.0995-0.21806-0.44147-0.16668-1.2116-0.54685-1.9717-0.94901 0.01185-0.0692 0.01572-0.13678 0.01572-0.20577v-9e-3c0-0.28344-0.09985-0.54734-0.2457-0.76474-0.01966-0.033-0.04521-0.0636-0.06447-0.0921-0.02693-0.0344-0.05916-0.0638-0.08609-0.0952-0.17258-0.1942-0.38079-0.35536-0.61116-0.50061-0.08826-0.0545-0.18044-0.10592-0.27642-0.15664-0.01966-0.0138-0.04383-0.0269-0.07057-0.0399-0.08078-0.0407-0.16511-0.0799-0.2457-0.11979-0.01573-7e-3 -0.0344-0.0136-0.046-0.0215-0.10359-0.0444-0.20576-0.0898-0.31328-0.13207-0.023-9e-3 -0.0513-0.0185-0.07057-0.0276-0.09219-0.0362-0.18654-0.0745-0.28257-0.10751-0.0079-5e-3 -0.01966-8e-3 -0.03381-0.0124 0.01185-9e-3 0.01769-0.0183 0.02457-0.0246 0.19577-0.20501 0.44847-0.38155 0.86301-0.38391 0.18811 0 0.41839 0.0361 0.69102 0.14436 0.84068 0.33395 2.1146 0.62112 3.2586 0.98279 0.01185 0.0898 0.03381 0.18205 0.06447 0.27641 0.0079 0.013 0.01572 0.0239 0.01572 0.0369 0.01966 0.0354 0.03066 0.0707 0.046 0.1075 0.0079 0.0161 0.02045 0.0299 0.02771 0.0461 0.01966 0.0322 0.03931 0.0677 0.05838 0.10135 0.01185 0.0155 0.02221 0.0307 0.03381 0.0461 0.01966 0.0338 0.04305 0.0653 0.07371 0.0983 0.0079 0.0153 0.02221 0.0285 0.03381 0.043 0.03066 0.0346 0.06447 0.066 0.09513 0.10135 0.01573 0.0108 0.02457 0.023 0.0399 0.0338 0.04619 0.0438 0.09592 0.0844 0.15351 0.12591 0.08432 0.0621 0.21574 0.14439 0.39618 0.24877 0.08452 0.0507 0.17592 0.10512 0.27949 0.16586 0.02693 0.013 0.05385 0.029 0.07685 0.043 0.046 0.0246 0.08983 0.05 0.13209 0.0768 0.04226 0.02 0.07842 0.0454 0.11676 0.0676 0.04993 0.0277 0.10123 0.0531 0.14742 0.0829 0.0344 0.0177 0.06978 0.0362 0.10437 0.0553 0.06899 0.0399 0.14211 0.0783 0.215 0.11978-0.14978 0.27322-0.3371 0.45838-0.54054 0.58968-0.28403 0.18496-0.62808 0.26719-1.0043 0.26719zm6.1025 0c-0.36855 0-0.75089-0.0862-1.0964-0.21806-0.50297-0.19361-1.4213-0.65648-2.285-1.1148 4e-3 -0.0132 4e-3 -0.0238 4e-3 -0.0338v-9e-3c0-0.27341-0.08609-0.53056-0.22421-0.74324-0.01572-0.0238-0.03066-0.0446-0.046-0.0676-0.01185-0.0161-0.02831-0.033-0.0399-0.0491-0.16118-0.20501-0.35402-0.37383-0.58046-0.52518-0.07685-0.0529-0.16432-0.10444-0.24878-0.15358-0.01966-0.0108-0.03302-0.0207-0.05228-0.0307-0.07685-0.0444-0.16118-0.0867-0.2457-0.129-0.0079-2e-3 -0.01769-9e-3 -0.02457-0.0124-0.09218-0.0446-0.18653-0.0867-0.28255-0.12898-0.01966-8e-3 -0.03931-0.0169-0.05838-0.0246-0.08452-0.0362-0.16884-0.0714-0.26105-0.10441-0.0079-5e-3 -0.01966-0.0106-0.03066-0.0153 0.03066-0.0383 0.06585-0.0768 0.10437-0.11671 0.19184-0.20501 0.44847-0.38154 0.86303-0.3839 0.18437 0 0.41444 0.0377 0.69102 0.14742 0.79842 0.31488 1.9831 0.59048 3.0774 0.92443 0.02673 0.34182 0.2149 0.76621 0.64497 1.0719 0.13052 0.0967 0.37399 0.23717 0.73094 0.44533 0.2457 0.13897 0.53364 0.30176 0.84459 0.47297l0.02143 0.0153c-0.14978 0.24019-0.32104 0.4039-0.51288 0.52518-0.28029 0.17592-0.62346 0.25641-0.99201 0.25798zm5.9336 0c-0.36481 0-0.7548-0.0854-1.0964-0.21806-0.4684-0.18122-1.2999-0.59591-2.1099-1.0258 4e-3 -0.0446 4e-3 -0.0867 4e-3 -0.13207 4e-3 -0.31548-0.12226-0.61024-0.29484-0.83845-0.17671-0.2341-0.40389-0.42149-0.65723-0.5866-0.3725-0.23646-0.8031-0.4299-1.2715-0.60503 0.01966-0.0238 0.03833-0.049 0.06133-0.0707 0.19204-0.20501 0.4454-0.38154 0.85994-0.3839 0.18811 0 0.41688 0.0377 0.69717 0.14742 0.77148 0.30191 1.9103 0.57189 2.9852 0.8968 0 9e-3 -8.6e-4 0.0222 4e-3 0.0338 0 0.0214 6e-3 0.0431 0.01 0.0645 4e-3 0.0261 8e-3 0.05 0.0118 0.0768 8e-3 0.0224 8e-3 0.0461 0.0157 0.0676 8e-3 0.0261 0.0157 0.0529 0.0277 0.0798 8e-3 0.023 0.01 0.0454 0.0214 0.0676 8e-3 0.0277 0.0222 0.0531 0.0338 0.0798 8e-3 0.0232 0.0197 0.0454 0.0307 0.0676 0.0157 0.0285 0.037 0.056 0.0523 0.0829 0.0157 0.023 0.0246 0.0447 0.0399 0.0645 0.0197 0.0293 0.0385 0.0591 0.0613 0.086 0.0118 0.0199 0.0307 0.0424 0.046 0.0614 0.0307 0.0301 0.0594 0.056 0.0861 0.0829 0.0157 0.0185 0.0301 0.0392 0.0491 0.0553 0.0423 0.0385 0.0922 0.0744 0.13818 0.11056 8e-3 4e-3 0.0138 0.0113 0.0246 0.0153 0.0344 0.0261 0.0668 0.0543 0.11676 0.086 0.0999 0.0629 0.22338 0.13914 0.38085 0.23034 0.0157 9e-3 0.0307 0.0161 0.046 0.0246 0.0653 0.0385 0.13523 0.0815 0.21189 0.12591 4e-3 2e-3 2e-3 2e-3 6e-3 3e-3 0.0806 0.0476 0.17493 0.0984 0.2672 0.15048 0.0157 0.0101 0.0332 0.0207 0.0523 0.0307 0.0845 0.0491 0.17199 0.0967 0.26412 0.14742 0.0157 8e-3 0.0246 0.013 0.0399 0.0215 0.0885 0.0491 0.18024 0.099 0.2764 0.15049-0.14604 0.22408-0.31864 0.38236-0.50675 0.49754-0.28422 0.17199-0.61817 0.25027-0.98279 0.25184zm5.8507 0c-0.3646 2e-3 -0.75481-0.0846-1.0964-0.21806-0.45306-0.17434-1.2547-0.57132-2.0301-0.98586v-0.0185c4e-3 -0.0499 0.01-0.10284 0.01-0.15358 0-0.0383-2e-3 -0.0805-6e-3 -0.11978-0.0267-0.27636-0.14448-0.53058-0.29791-0.73402-0.0653-0.079-0.12973-0.15194-0.20271-0.22113-0.14211-0.13739-0.30327-0.26017-0.47602-0.37162-0.0845-0.0537-0.18123-0.10365-0.27336-0.15357-0.0197-0.0113-0.0383-0.0224-0.0613-0.0338-0.0884-0.043-0.17336-0.0891-0.25796-0.12898-0.0118-7e-3 -0.0222-9e-3 -0.0338-0.0153-0.0959-0.046-0.1996-0.0898-0.3071-0.13207-0.0232-8e-3 -0.0415-0.0187-0.0645-0.0276-0.0922-0.0362-0.18182-0.0714-0.27027-0.10443-0.0157-6e-3 -0.0252-0.01-0.0369-0.0153 0.0118-0.0138 0.0216-0.0298 0.0369-0.043 0.19597-0.2058 0.44933-0.38155 0.85995-0.38391 0.1881 0 0.41139 0.0377 0.68795 0.14742 0.76382 0.30034 1.8742 0.55975 2.9299 0.87838 0 0.0145-8.5e-4 0.0276 4e-3 0.043 0 0.0214-8.7e-4 0.0415 4e-3 0.0645 4e-3 0.0246 8e-3 0.053 0.0119 0.0768 4e-3 0.0224 8e-3 0.0461 0.0118 0.0676 0.0119 0.0301 0.023 0.0584 0.0307 0.0891 4e-3 0.0177 0.01 0.0376 0.0177 0.0553 0.0119 0.0375 0.033 0.0738 0.0523 0.11055 4e-3 0.0116 0.0119 0.027 0.0157 0.0399 0.023 0.0454 0.0499 0.0891 0.0769 0.13513 4e-3 4e-3 6e-3 9e-3 6e-3 0.0124 0.10359 0.15057 0.23876 0.29555 0.41154 0.42076 4e-3 2e-3 0.01 6e-3 0.01 6e-3 0.13425 0.0937 0.39007 0.24877 0.77393 0.46989 0.0883 0.0515 0.1828 0.10448 0.28257 0.15971 0.0119 8e-3 0.0244 0.0161 0.0399 0.0246 0.0997 0.0554 0.20354 0.11439 0.30713 0.17199h4e-3c0.092 0.0531 0.18811 0.10754 0.29177 0.16277v3e-3h6e-3c-0.3646 0.53739-0.86604 0.7064-1.465 0.72173zm5.7892 0c-0.37228 2e-3 -0.75614-0.0815-1.1056-0.21806-0.43754-0.16668-1.2016-0.54586-1.9656-0.94901v-0.0185c0.0119-0.06 0.0157-0.12275 0.0157-0.18427v-3e-3h-4e-3c0-0.18594-0.0354-0.36628-0.10437-0.52825-0.0576-0.12284-0.12835-0.23967-0.20885-0.3409-0.18437-0.23961-0.42606-0.42678-0.69102-0.59582-0.0922-0.0545-0.18339-0.10613-0.27948-0.15664-0.0197-0.0108-0.0421-0.0191-0.0613-0.0307-0.0883-0.0444-0.18201-0.089-0.27027-0.13207-0.0118-6e-3 -0.0238-0.01-0.0277-0.0153-0.10752-0.046-0.20883-0.0907-0.31634-0.13514-0.0197-7e-3 -0.0381-0.0153-0.0613-0.0246-0.0959-0.0362-0.19184-0.0721-0.29175-0.10749-0.0119-4e-3 -0.0204-8e-3 -0.0277-0.0124 8e-3 -8e-3 0.0138-0.0161 0.0177-0.0246 0.19578-0.20501 0.45462-0.38154 0.86915-0.3839 0.1881 0 0.41159 0.0361 0.68795 0.14435 0.83695 0.33396 2.1146 0.62113 3.2586 0.9828 0.0383 0.33395 0.23279 0.72861 0.63573 1.0166 0.13052 0.0936 0.3518 0.22258 0.68182 0.41462 0.22664 0.13208 0.49675 0.28486 0.79237 0.4484-0.15351 0.27181-0.33403 0.45451-0.53745 0.5866-0.28405 0.18496-0.63117 0.2672-1.0074 0.2672zm6.1025 0c-0.36481 0-0.75393-0.0854-1.0995-0.21806-0.503-0.19439-1.4189-0.65797-2.2789-1.1179v-0.0399c0-0.30407-0.11125-0.58437-0.2764-0.8108-0.16511-0.22722-0.37621-0.41236-0.61425-0.57432-0.34928-0.23332-0.7594-0.42612-1.2008-0.59889 0.0269-0.0383 0.0605-0.0768 0.0951-0.11672 0.1997-0.20579 0.4522-0.38154 0.863-0.3839 0.18418 0 0.41466 0.0377 0.69103 0.14742 0.79861 0.31332 1.9816 0.59186 3.0835 0.92444 0.0231 0.34535 0.2151 0.76699 0.64497 1.0719 0.13052 0.0975 0.36919 0.23717 0.73401 0.44532 0.24945 0.14428 0.54354 0.31241 0.8661 0.48833-0.14979 0.23941-0.32701 0.4039-0.51904 0.52518-0.28403 0.17592-0.62038 0.25641-0.98895 0.25798zm5.9336-3e-3c-0.36461 2e-3 -0.75461-0.0831-1.0964-0.21499-0.4682-0.18122-1.3067-0.59741-2.113-1.0289 4e-3 -0.0422 0.0103-0.0831 0.0103-0.12591 0-0.31646-0.12214-0.61272-0.29485-0.84152-0.17651-0.23252-0.40695-0.4207-0.66032-0.5866-0.36854-0.23646-0.80636-0.43218-1.2746-0.6081 0.0157-0.0222 0.0352-0.046 0.0584-0.0676 0.19579-0.20501 0.45221-0.38154 0.86302-0.3839 0.1881 0 0.41447 0.0377 0.69101 0.14742 0.79843 0.31489 1.9908 0.59356 3.0927 0.92751 0.0229 0.34398 0.21949 0.76164 0.64187 1.0657 0.13052 0.0983 0.37161 0.24182 0.72481 0.4484 0.2457 0.14211 0.54727 0.30803 0.8661 0.48218-0.14604 0.24354-0.32019 0.40848-0.51596 0.53133-0.28403 0.1765-0.6272 0.25491-0.99201 0.25491zm2.5737-1.9994c-0.0383-0.0751-0.089-0.14429-0.13503-0.21191-0.1767-0.23174-0.40081-0.41784-0.65418-0.58353-0.36853-0.23587-0.80002-0.43297-1.2684-0.60811 0.0196-0.023 0.0385-0.0474 0.0614-0.0706 0.19578-0.20501 0.44847-0.38076 0.863-0.3839 0.18436 0 0.41533 0.0377 0.68794 0.14742 0.12652 0.0531 0.28791 0.10593 0.44535 0.15664v1.554zm-98.202-1.6769v-3.793c0.47988-8.0351 1.7544-15.321 3.5626-21.922h6.9256c-0.28403 0.58437-0.66496 1.3851-0.93365 1.9994-0.19184 0.44835-0.34313 0.92436-0.34706 1.4189 0 0.12658 0.01376 0.25489 0.0399 0.38697 0.06899 0.34948 0.23813 0.69483 0.53747 0.95822 0.41456 0.36147 0.98523 0.5513 1.7414 0.6081 0.52599 0.03695 0.99671 0.06432 1.4189 0.07984 0.24196 0.0085 0.4637 0.01082 0.67874 0.01237 0.39921 0 0.75634-0.01612 1.0903-0.05528 0.45307-0.05523 0.84697-0.15446 1.2039-0.31326 0.10359-0.0454 0.20747-0.09289 0.3071-0.15048 0.16904-0.09828 0.32407-0.20656 0.46991-0.32862l4e-3 -0.0031c0.01573-0.01237 0.02457-0.02219 0.0399-0.03379 0.38014-0.32471 0.70789-0.73872 1.0688-1.2346 0.04226-0.05916 0.09002-0.11682 0.13209-0.17814 1.0903-1.5233 1.9618-2.702 2.3034-3.1664h10.341c-0.20342 0.42083-0.4591 0.95377-0.6818 1.4465-0.08825 0.1944-0.17592 0.38083-0.24876 0.55282-0.18811 0.4399-0.33938 0.90982-0.34706 1.3943v0.03067c0 0.24334 0.04364 0.49749 0.14742 0.73709 0.09199 0.22113 0.2294 0.42997 0.43304 0.60196 0.40688 0.36147 0.98283 0.5513 1.7353 0.6081 0.52206 0.03695 0.97894 0.06144 1.3974 0.07678 0.24963 0.0093 0.4784 0.01376 0.69715 0.01533 0.48375 0 0.90757-0.02684 1.2838-0.086 0.50299-0.07509 0.93196-0.21034 1.3237-0.43304 0.44522-0.25788 0.79936-0.60036 1.1486-1.0289 0.1881-0.22722 0.3724-0.4753 0.56817-0.75245 1.0864-1.5218 1.9579-2.6995 2.3034-3.1634h2.7795v8.8421c-0.31096 0.2342-0.95974 0.70872-1.812 1.3298-0.03459 0.023-0.06428 0.04667-0.09513 0.07064-0.38388 0.27558-0.80612 0.5781-1.2592 0.89987-0.16884 0.12344-0.33173 0.24101-0.48524 0.35934-0.11125 0.08433-0.21956 0.16902-0.31941 0.25491-0.40316 0.33553-0.72787 0.67879-0.97357 1.1026-0.38781 0.6795-0.51596 1.4833-0.51596 2.6013v0.33476c0.01185 0.50909 0.04226 1.0889 0.09219 1.7629 0.01185 0.13897 0.02673 0.26941 0.046 0.39619 0.08825 0.56275 0.26642 1.0074 0.56204 1.3421 0 3e-3 4e-3 0.0068 4e-3 0.0093 0.35322 0.4053 0.8599 0.57054 1.3206 0.56818h0.01573c0.49906-0.0014 0.97658-0.14978 1.422-0.34398 0.44147-0.19125 0.97729-0.44451 1.465-0.67567 0.18811-0.0914 0.36947-0.17649 0.53438-0.25491v5.9735c-0.57199 0.0851-0.99816 0.38928-1.2592 0.67567-0.13818 0.14584-0.23335 0.28786-0.31019 0.4054l-0.06762-0.0246s-2.2667-0.60348-2.9269-0.86609c-0.3725-0.14958-0.7256-0.21655-1.0442-0.21498h-0.0098c-0.73709 0-1.2722 0.36314-1.5756 0.70024-0.15744 0.16589-0.26182 0.32783-0.33476 0.45147l-0.0936-0.0214c-1.1557-0.3564-2.3665-0.6395-3.0499-0.91527-0.37621-0.1488-0.72782-0.21499-1.0504-0.21499h-0.0098c-0.73709 0-1.2683 0.36315-1.5755 0.70024-0.12285 0.13131-0.21272 0.25887-0.28564 0.36855l-0.05228-0.0185-0.0059 6e-3c-1.075-0.32546-2.1681-0.5889-2.7979-0.84148-0.37997-0.14879-0.73002-0.21656-1.0565-0.21498h-0.0059c-0.73709 0-1.2716 0.36314-1.5786 0.70024-0.12658 0.13739-0.22276 0.27107-0.29177 0.3839l-0.0798-0.0185c-1.0824-0.32412-2.192-0.59658-2.8408-0.85073-0.37621-0.14958-0.73021-0.21498-1.0565-0.21498h-4e-3c-0.73709 2e-3 -1.2714 0.36314-1.5786 0.70024-0.13445 0.14584-0.2342 0.28786-0.3071 0.4054l-0.07076-0.0246-0.05228-9e-3c-1.1133-0.33474-2.2083-0.59427-2.8685-0.85687-0.37248-0.14958-0.72782-0.21656-1.0504-0.21498h-0.0098c-0.7371 0-1.2676 0.36314-1.5786 0.70023-0.15351 0.16669-0.25504 0.32627-0.33169 0.45147l-0.0859-0.0276-0.03381-0.0122c-1.1516-0.35538-2.3395-0.62103-3.019-0.8968-0.37621-0.14958-0.72782-0.21656-1.0504-0.21499h-0.01185c-0.73332 0-1.2654 0.36315-1.5725 0.70024-0.12285 0.1313-0.21663 0.25966-0.28564 0.36855l-0.05838-0.0185v3e-3c-1.0789-0.32315-2.1684-0.58587-2.7979-0.83845-0.38006-0.14958-0.7279-0.21656-1.0503-0.21498h-0.01185c-0.73328 0-1.2715 0.36314-1.5786 0.70024-0.15744 0.17041-0.28261 0.33788-0.35933 0.46682zm83.261-9e-3c-1.1748-0.3685-2.431-0.65939-3.1296-0.94282-0.37621-0.14958-0.72779-0.21656-1.0504-0.21499h-0.0119c-0.73316 0-1.2676 0.36314-1.5786 0.70024-0.12284 0.1313-0.21422 0.25887-0.27948 0.36855l-0.0613-0.0185v6e-3c-1.0786-0.32468-2.1704-0.58812-2.804-0.84148-0.37621-0.1488-0.72782-0.21499-1.0504-0.21499h-0.01c-0.7371 0-1.2714 0.36315-1.5786 0.70024-0.12285 0.13818-0.21883 0.26939-0.29177 0.38083l-0.0645-0.0215-4e-3 9e-3c-1.0903-0.32472-2.2028-0.59887-2.844-0.8538-0.37995-0.1488-0.73002-0.21499-1.0565-0.21499h-4e-3c-0.73709 0-1.2753 0.36255-1.5786 0.70024-0.14192 0.14899-0.241 0.29184-0.31019 0.41155-1.1363-0.34477-2.3202-0.62732-2.9883-0.8968-0.37995-0.14958-0.73021-0.21656-1.0565-0.21499h-0.0059c-0.26872 0-0.50999 0.05-0.72481 0.129-0.59113-0.43993-1.2-0.89698-1.7873-1.333-1.3669-1.0197-2.5774-1.9317-3.0497-2.2881v-10.344c0.58358 0.28265 1.3812 0.66503 1.9994 0.93058 0.4454 0.19518 0.92052 0.3439 1.4158 0.34705 0.4684 0.0053 0.98759-0.16116 1.3483-0.57432 0.35717-0.41218 0.54437-0.9866 0.60198-1.7414 0.06133-0.82614 0.09218-1.5118 0.09218-2.1007 0-1.1202-0.12756-1.9218-0.51903-2.6013-0.39154-0.67872-0.98049-1.1448-1.7752-1.7107-1.5241-1.088-2.7026-1.9625-3.1634-2.3065v-0.94901l11.17-0.0061h2.2543c0.34555 0.46388 1.2168 1.6416 2.3034 3.1634 0.56806 0.79626 1.0412 1.3882 1.7168 1.7813 0.6795 0.39096 1.4795 0.51904 2.6044 0.51904 0.58358 0 1.2692-0.03683 2.0946-0.09521 0.75262-0.05602 1.3275-0.24415 1.7383-0.60503 0.4108-0.35852 0.5789-0.87373 0.57123-1.3421 0-0.49513-0.14879-0.9752-0.34091-1.422-0.26496-0.61428-0.6496-1.415-0.93365-1.9994h9.96c0.34555 0.46388 1.2168 1.6416 2.3034 3.1634 0.57198 0.79626 1.0441 1.3865 1.7199 1.7782 0.68324 0.38918 1.4896 0.51596 2.6106 0.51596 0.18043 0 0.36844-4e-3 0.56814-0.0093h0.0214c1.4089 6.4381 1.8618 12.095 1.8581 16.456v2.8808l-0.0367-0.0185-4e-3 -3e-3c-0.37622-0.14958-0.73089-0.21498-1.0534-0.21498h-6e-3c-0.7371 0-1.2714 0.36314-1.5786 0.70024-0.13818 0.14978-0.23727 0.2955-0.31018 0.41461-1.1402-0.34712-2.3288-0.63039-3.0006-0.89987-0.37621-0.14958-0.72714-0.21498-1.0534-0.21498h-6e-3c-0.73709 0-1.2722 0.36314-1.5755 0.70024-0.13818 0.14742-0.24342 0.29262-0.31632 0.41154-1.1288-0.34398-2.3095-0.62791-2.9852-0.8968-0.37621-0.14958-0.72715-0.21498-1.0534-0.21498h-6e-3c-0.73334 0-1.2676 0.36314-1.5786 0.70024-0.15351 0.16904-0.26119 0.33024-0.33784 0.45761zm-69.554-38.722c-0.14958-0.20186-0.39854-0.54195-0.72483-0.98893-0.04993-0.06133-0.09749-0.12666-0.14742-0.19349-0.39548-0.54447-0.88613-1.2223-1.4312-1.984-4e-3 -0.01533-0.01572-0.02538-0.02771-0.03993-0.07292-0.09749-0.13897-0.19273-0.21193-0.28255-0.023-0.03302-0.04462-0.06742-0.06762-0.09828-0.08059-0.1028-0.15902-0.20793-0.23956-0.30405-0.01185-0.01533-0.02221-0.02153-0.03381-0.03685-0.06899-0.08452-0.1427-0.16511-0.21191-0.2457-0.01966-0.023-0.04245-0.04455-0.06133-0.06758-0.08059-0.08452-0.16059-0.16511-0.24876-0.2457 0-0.0037-4e-3 -0.0045-0.01185-0.0093 9.9046-19.528 24.473-30.474 32.835-35.503v7.07c-0.23037 0.16432-0.62486 0.46004-1.1548 0.84766-0.54506 0.39941-1.2331 0.90063-2.0086 1.4496h-4e-3c-0.59889 0.4338-1.0841 0.80392-1.4527 1.2531-0.11892 0.14604-0.22962 0.29779-0.32554 0.46683-0.21877 0.37995-0.35333 0.80093-0.42999 1.2961-0.04226 0.28422-0.07194 0.59048-0.0798 0.92444-4e-3 0.11911-4e-3 0.24725-4e-3 0.37776v0.16892c4e-3 0.55272 0.03833 1.1772 0.09219 1.9257 4e-3 0.07312 0.0098 0.14205 0.01769 0.21498 0.07685 0.64962 0.26011 1.157 0.58661 1.5295 0.23015 0.2687 0.53057 0.43231 0.84152 0.5129 0.16884 0.046 0.33855 0.06536 0.50366 0.06142 0.49513-0.0037 0.97131-0.15135 1.4128-0.34398 0.13818-0.06073 0.28633-0.12344 0.4361-0.19656 0.15725-0.06899 0.32715-0.14447 0.48833-0.22113 0.38386-0.1767 0.7633-0.36226 1.078-0.51596v8.9925c-0.2571 0.19577-0.73558 0.55211-1.3728 1.0166-0.50673 0.36855-1.1141 0.80697-1.7936 1.2899-0.20735 0.15351-0.4053 0.29562-0.58968 0.44226-0.5028 0.39076-0.89686 0.7755-1.1885 1.2746-0.21504 0.37248-0.34411 0.78535-0.42077 1.2653-0.04993 0.28481-0.08118 0.59503-0.08904 0.9398-4e-3 0.13051-4e-3 0.26253-4e-3 0.39619v0.16586c4e-3 0.55292 0.03833 1.1855 0.09218 1.9379 0.0079 0.08059 0.0098 0.15729 0.02162 0.22727 0.07666 0.64412 0.25702 1.1432 0.58352 1.508 0.35695 0.41218 0.87765 0.58199 1.3421 0.57432 0.06152 0 0.12049-0.0015 0.17808-0.0031 4e-3 -0.0022 0.0098-0.0031 0.0098-0.0031h0.0059c0.39154-0.03007 0.76998-0.14742 1.1271-0.29484 0.03833-0.01552 0.07076-0.02922 0.10142-0.04298 0.61051-0.26889 1.4129-0.64962 1.9963-0.93365v4.4255h-10.663c-0.23803-0.31862-0.72705-0.97439-1.3605-1.8489-0.29169-0.39528-0.60414-0.84228-0.94594-1.3176-0.56434-0.79095-1.0343-1.376-1.7138-1.7752-0.67557-0.38781-1.4779-0.5199-2.5952-0.51596-0.29562 0-0.61729 0.0093-0.97053 0.02457-0.34555 0.01612-0.7218 0.0369-1.1363 0.06756-0.05759 0.0048-0.11125 0.01159-0.16884 0.01848-0.6679 0.06526-1.1895 0.24958-1.5694 0.58353-0.15351 0.13425-0.27703 0.28798-0.36548 0.45761-0.14958 0.28324-0.21564 0.5957-0.21191 0.88758 0 0.08295 0.0079 0.15884 0.01185 0.23648 0.03833 0.3601 0.13818 0.71098 0.27644 1.0473 0.01966 0.046 0.03912 0.09516 0.05838 0.1382 0.13445 0.31174 0.30172 0.66786 0.46682 1.0258 0.16511 0.34398 0.32778 0.68176 0.46989 0.97051h-8.9987zm42.235 0v-15.184c0.58358 0.28422 1.3812 0.66803 1.9994 0.93672 0.04226 0.01533 0.09435 0.03294 0.14427 0.05221 0.40294 0.16491 0.83003 0.28496 1.2715 0.2887 0.38781 4e-3 0.80461-0.11136 1.1425-0.38083 0.01966-0.01926 0.04245-0.02988 0.06152-0.04914 4e-3 -0.0077 0.01185-0.01159 0.01185-0.01533 0.046-0.04226 0.09002-0.08529 0.13209-0.13207 0.08845-0.09985 0.17061-0.21334 0.23956-0.3409 0.11911-0.2111 0.20566-0.45987 0.2672-0.74017 0.046-0.1997 0.07902-0.41928 0.09828-0.65417 0.06133-0.82928 0.09218-1.5125 0.09218-2.1038 0-0.26103-0.0059-0.50673-0.02143-0.73709-0.05366-0.75243-0.19817-1.3375-0.49753-1.8642-0.39154-0.67557-0.98356-1.144-1.7782-1.7168-1.3476-0.95901-2.4225-1.7489-2.9791-2.156-0.06919-0.05366-0.13032-0.09988-0.18418-0.1382v-10.344c0.58358 0.28029 1.3812 0.66176 1.9994 0.92751 0.30331 0.13366 0.62274 0.24098 0.94902 0.29484 0.14978 0.02693 0.29881 0.04607 0.44839 0.04607 0.4454 4e-3 0.93055-0.14194 1.2838-0.50675 0.0079-0.0068 0.0079-0.01224 0.01573-0.01533 0.17277-0.18516 0.3139-0.4085 0.41769-0.66953 7.0906 5.5665 12.864 11.378 17.555 17.217 3.3822 4.2122 6.2054 8.4406 8.5472 12.598-0.67576-0.046-1.2537-0.07064-1.7567-0.07064-1.121-4e-3 -1.9126 0.12816-2.5921 0.51596-0.0197 0.01612-0.0307 0.02297-0.046 0.03379-0.63744 0.38388-1.0956 0.94825-1.637 1.7015-0.0119 0.01297-0.023 0.0246-0.0307 0.03993-1.0903 1.5217-1.9578 2.702-2.3034 3.1664h-8.8974c8e-3 -0.01985 0.0177-0.03758 0.0246-0.0553 0.24962-0.5197 0.5743-1.1871 0.82-1.7475 0.0267-0.06761 0.0568-0.13059 0.0798-0.19349 0.0157-0.03381 0.0307-0.06219 0.046-0.09521 0.17277-0.42162 0.30319-0.86754 0.30712-1.3298 4e-3 -0.46369-0.16649-0.98124-0.57737-1.3421l-4e-3 -0.0031c-0.0383-0.02988-0.0731-0.0562-0.10752-0.08292-0.0197-0.01082-0.036-0.02832-0.0552-0.03993-0.0157-0.01134-0.0299-0.01989-0.0491-0.03073-0.36855-0.2457-0.85157-0.38226-1.4465-0.43611-0.0269 0-0.0529-0.0031-0.0798-0.0031-0.82926-0.06231-1.5226-0.09828-2.1099-0.09828-1.117-4e-3 -1.9157 0.12816-2.5952 0.51597-0.16884 0.09985-0.32033 0.20884-0.46989 0.33169-0.17277 0.14585-0.33415 0.30481-0.4914 0.48525-0.24963 0.2795-0.48835 0.59734-0.74938 0.95822-0.30331 0.42457-0.59278 0.82088-0.85381 1.1855-0.67557 0.93607-1.2048 1.6478-1.4465 1.9809h-4.1953zm32.604 0c0.20737-0.42614 0.46372-0.96441 0.69409-1.4619 0.24196 0.48746 0.48589 0.97739 0.71252 1.4619zm-90.998 74.16v-38.058c3.6853-62.252 51.922-81.942 51.922-81.942 44.506 27.522 51.149 64.507 51.149 81.942v38.058z" fill="#fff"/></g></svg>
