<?xml version="1.0" encoding="UTF-8" standalone="no"?>
<svg id="svg4095" xmlns:rdf="http://www.w3.org/1999/02/22-rdf-syntax-ns#" xmlns="http://www.w3.org/2000/svg" height="100" width="100" version="1.1" xmlns:cc="http://creativecommons.org/ns#" xmlns:dc="http://purl.org/dc/elements/1.1/" viewBox="0 0 100 100">
 <metadata id="metadata4133">
  <rdf:RDF>
   <cc:Work rdf:about="">
    <dc:format>image/svg+xml</dc:format>
    <dc:type rdf:resource="http://purl.org/dc/dcmitype/StillImage"/>
    <dc:title/>
   </cc:Work>
  </rdf:RDF>
 </metadata>
 <g id="g4097">
  <g id="g4101" fill="#fff" transform="translate(50 50) scale(.69) translate(-50 -50)">
   <svg id="svg4103" xml:space="preserve" version="1.1" y="0px" x="0px" enable-background="new 0 0 200 200" viewBox="0 0 200 200" fill="#ffffff"><g id="g4105" fill="#fff"><polygon id="polygon4107" points="175.1 200 24.903 200 24.903 12.07 72.075 12.076 72.075 18.869 31.696 18.863 31.696 193.21 168.3 193.21 168.3 18.863 127.93 18.869 127.93 12.076 175.1 12.07"/><polygon id="polygon4109" points="160.76 185.65 39.244 185.65 39.244 26.404 75.471 26.404 75.471 33.197 46.036 33.197 46.036 178.86 153.96 178.86 153.96 33.197 124.53 33.197 124.53 26.404 160.76 26.404"/><path id="path4111" d="m131.32 47.542h-62.642v-35.466h16.226c1.552-6.903 7.731-12.076 15.096-12.076 7.364 0 13.544 5.173 15.097 12.076h16.225v35.466zm-55.849-6.792h49.058v-21.881h-15.85v-3.396c0-4.787-3.894-8.68-8.68-8.68-4.787 0-8.68 3.893-8.68 8.68v3.396h-15.849v21.881z"/><g id="g4113"><g id="g4115"><path id="path4117" d="m130.84 122.38h-61.68v-17.117c0-4.569 1.781-8.866 5.014-12.102 3.234-3.236 7.534-5.018 12.105-5.018h1.406l12.315 12.31 12.314-12.316h1.406c4.571 0 8.871 1.782 12.105 5.018 3.232 3.236 5.014 7.533 5.014 12.102v17.13zm-54.887-6.8h48.094v-10.325c0-2.755-1.074-5.348-3.026-7.299-1.635-1.636-3.721-2.656-5.976-2.944l-15.04 15.043-15.044-15.045c-2.255 0.288-4.341 1.308-5.976 2.944-1.952 1.952-3.026 4.544-3.026 7.299v10.32z"/><path id="path4119" d="m100 89.439c-9.438 0-17.117-7.68-17.117-17.119s7.679-17.116 17.117-17.116 17.117 7.679 17.117 17.117-7.68 17.118-17.12 17.118zm0-27.443c-5.693 0-10.325 4.632-10.325 10.325 0 5.694 4.632 10.326 10.325 10.326s10.324-4.632 10.324-10.326c0-5.693-4.63-10.325-10.32-10.325z"/></g><g id="g4121"><rect id="rect4123" height="6.793" width="83.021" y="130.04" x="58.489"/><rect id="rect4125" height="6.793" width="83.021" y="145.13" x="58.489"/><rect id="rect4127" height="6.793" width="83.021" y="160.23" x="58.489"/></g></g></g></svg>
  </g>
 </g>
</svg>
