<?xml version="1.0" encoding="UTF-8"?>
<svg width="100px" height="100px" enable-background="new 0 0 64 64" fill="#000000" version="1.1" viewBox="0 0 64 64" xml:space="preserve" xmlns="http://www.w3.org/2000/svg" xmlns:cc="http://creativecommons.org/ns#" xmlns:dc="http://purl.org/dc/elements/1.1/" xmlns:rdf="http://www.w3.org/1999/02/22-rdf-syntax-ns#"><metadata><rdf:RDF><cc:Work rdf:about=""><dc:format>image/svg+xml</dc:format><dc:type rdf:resource="http://purl.org/dc/dcmitype/StillImage"/><dc:title/></cc:Work></rdf:RDF></metadata><g transform="matrix(.66844 0 0 .66844 10.61 10.276)" fill="#fff" stroke-width="1.496"><polygon points="58 50 39 50 39 52 60 52 60 14 62 14 62 54 39 54 39 56 64 56 64 12 60 12 60 8 39 8 39 10 58 10"/><polygon points="2 54 2 14 4 14 4 52 25 52 25 50 6 50 6 10 25 10 25 8 4 8 4 12 0 12 0 56 25 56 25 54"/><path d="m34 2h-4c-0.801 0-1.555 0.312-2.121 0.879-0.567 0.566-0.879 1.32-0.879 2.121v50h0.013c0 0.17 0.03 0.341 0.119 0.496l4 7c0.178 0.312 0.509 0.504 0.868 0.504s0.69-0.192 0.868-0.504l4-7c0.089-0.155 0.119-0.326 0.119-0.496h0.013v-50c0-0.8-0.312-1.554-0.878-2.121s-1.32-0.879-2.122-0.879zm-5 3c0-0.267 0.104-0.518 0.293-0.707s0.44-0.293 0.707-0.293h4c0.268 0 0.518 0.104 0.706 0.292 0.19 0.19 0.294 0.441 0.294 0.708v3h-6zm2 5v40.586l-2 2v-42.586zm1 49.984-2.753-4.817 2.753-2.753 2.753 2.753zm3-7.398-2-2v-40.586h2z"/><rect x="12" y="26" width="2" height="2"/><rect x="16" y="26" width="2" height="2"/><rect x="20" y="26" width="2" height="2"/><rect x="8" y="34" width="2" height="2"/><rect x="12" y="34" width="13" height="2"/><rect x="8" y="38" width="2" height="2"/><rect x="12" y="38" width="13" height="2"/><rect x="8" y="42" width="2" height="2"/><rect x="12" y="42" width="13" height="2"/><rect x="8" y="46" width="2" height="2"/><rect x="12" y="46" width="13" height="2"/><path d="m56 42h-13v-2h2v-10h-2v-2h5v-6h-5v-2h13v-8h-17v8h2v2h-2v6h2v2h-2v10h2v2h-2v6h17zm-15-28h13v4h-13zm0 10h5v2h-5zm0 8h2v6h-2zm13 14h-13v-2h13z"/><path d="m56 22h-6v6h6zm-2 4h-2v-2h2z"/><polygon points="52 34 47 34 47 36 54 36 54 30 52 30"/><polygon points="25 24 25 22 8 22 8 32 25 32 25 30 10 30 10 24"/><rect x="8" y="12" width="10" height="2"/><rect x="8" y="16" width="17" height="2"/></g></svg>
