<?xml version="1.0" encoding="UTF-8" standalone="no"?>
<svg id="svg3768" xmlns:rdf="http://www.w3.org/1999/02/22-rdf-syntax-ns#" xmlns="http://www.w3.org/2000/svg" height="100" width="100" version="1.1" xmlns:cc="http://creativecommons.org/ns#" xmlns:dc="http://purl.org/dc/elements/1.1/" viewBox="0 0 100 100">
 <metadata id="metadata3836">
  <rdf:RDF>
   <cc:Work rdf:about="">
    <dc:format>image/svg+xml</dc:format>
    <dc:type rdf:resource="http://purl.org/dc/dcmitype/StillImage"/>
    <dc:title/>
   </cc:Work>
  </rdf:RDF>
 </metadata>
 <g id="g3774" fill="#fff" transform="matrix(.69 0 0 .69 15.5 15.5)">
  <svg id="svg3776" xml:space="preserve" height="100%" viewBox="0 0 64 64" width="100%" version="1.1" y="0px" x="0px" fill="#ffffff"><g id="g3778"><path id="path3780" d="m6 57.184v-10.649l2.303-1.535h3.697v-2h-4.303l-3.697 2.465v11.719c-1.161 0.414-2 1.514-2 2.816 0 1.654 1.346 3 3 3s3-1.346 3-3c0-1.302-0.839-2.402-2-2.816zm-1 3.816c-0.551 0-1-0.449-1-1s0.449-1 1-1 1 0.449 1 1-0.449 1-1 1z"/><path id="path3782" d="m6.816 41h5.184v-2h-5.184c-0.414-1.161-1.514-2-2.816-2-1.654 0-3 1.346-3 3s1.346 3 3 3c1.302 0 2.402-0.839 2.816-2zm-3.816-1c0-0.551 0.449-1 1-1s1 0.449 1 1-0.449 1-1 1-1-0.449-1-1z"/><path id="path3784" d="m4 35c1.302 0 2.402-0.839 2.816-2h5.184v-2h-5.184c-0.414-1.161-1.514-2-2.816-2-1.654 0-3 1.346-3 3s1.346 3 3 3zm0-4c0.551 0 1 0.449 1 1s-0.449 1-1 1-1-0.449-1-1 0.449-1 1-1z"/><rect id="rect3786" y="35" width="4" x="8" height="2"/><rect id="rect3788" y="27" width="4" x="8" height="2"/><rect id="rect3790" y="23" width="11" x="1" height="2"/><path id="path3792" d="m8.586 21h3.414v-2h-2.586l-2.414-2.414v-1.77c1.161-0.414 2-1.514 2-2.816 0-1.654-1.346-3-3-3s-3 1.346-3 3c0 1.302 0.839 2.402 2 2.816v2.598l3.586 3.586zm-2.586-10c0.551 0 1 0.449 1 1s-0.449 1-1 1-1-0.449-1-1 0.449-1 1-1z"/><polygon id="polygon3794" points="21 12 21 8.586 17.414 5 1 5 1 7 16.586 7 19 9.414 19 12"/><polygon id="polygon3796" points="25 12 25 4.586 21.414 1 1 1 1 3 20.586 3 23 5.414 23 12"/><rect id="rect3798" y="8" width="2" x="27" height="4"/><rect id="rect3800" y="1" width="2" x="39" height="11"/><path id="path3802" d="m31 6.816v5.184h2v-3.586l2 2v1.586h2v-2.414l-3.201-3.201c0.725-0.548 1.201-1.408 1.201-2.385 0-1.654-1.346-3-3-3s-3 1.346-3 3c0 1.302 0.839 2.402 2 2.816zm1-3.816c0.551 0 1 0.449 1 1s-0.449 1-1 1-1-0.449-1-1 0.449-1 1-1z"/><path id="path3804" d="m45 7.414 2.414-2.414h9.77c0.302 0.847 0.969 1.514 1.816 1.816v13.77l-2.414 2.414h-4.586v2h5.414l3.586-3.586v-14.598c1.161-0.414 2-1.514 2-2.816 0-1.654-1.346-3-3-3-1.302 0-2.402 0.839-2.816 2h-10.598l-3.586 3.586v5.414h2v-4.586zm15-4.414c0.551 0 1 0.449 1 1s-0.449 1-1 1-1-0.449-1-1 0.449-1 1-1z"/><path id="path3806" d="m52.76 13.174 2.24 2.24v1.172l-2.414 2.414h-0.586v2h1.414l3.586-3.586v-2.828l-3.586-3.586h-0.598c-0.414-1.161-1.514-2-2.816-2-1.654 0-3 1.346-3 3s1.346 3 3 3c1.238 0 2.302-0.754 2.76-1.826zm-2.76-0.174c-0.551 0-1-0.449-1-1s0.449-1 1-1 1 0.449 1 1-0.449 1-1 1z"/><rect id="rect3808" y="27" width="11" x="52" height="2"/><path id="path3810" d="m61 57.184v-22.598l-3.586-3.586h-5.414v2h4.586l2.414 2.414v5.172l-1.586-1.586h-5.414v2h4.586l2.414 2.414v13.77c-1.161 0.414-2 1.514-2 2.816 0 1.654 1.346 3 3 3s3-1.346 3-3c0-1.302-0.839-2.402-2-2.816zm-1 3.816c-0.551 0-1-0.449-1-1s0.449-1 1-1 1 0.449 1 1-0.449 1-1 1z"/><rect id="rect3812" y="35" width="4" x="52" height="2"/><path id="path3814" d="m57 57.414v-10.828l-3.586-3.586h-1.414v2h0.586l2.414 2.414v5.586h-10v-1h-2v3h12v1.586l-2.414 2.414h-1.77c-0.414-1.161-1.514-2-2.816-2-1.654 0-3 1.346-3 3s1.346 3 3 3c1.302 0 2.402-0.839 2.816-2h2.598l3.586-3.586zm-9 3.586c-0.551 0-1-0.449-1-1s0.449-1 1-1 1 0.449 1 1-0.449 1-1 1z"/><path id="path3816" d="m21 55v-3h-2v1h-5.184c-0.414-1.161-1.514-2-2.816-2-1.654 0-3 1.346-3 3s1.346 3 3 3c1.302 0 2.402-0.839 2.816-2h7.184zm-10 0c-0.551 0-1-0.449-1-1s0.449-1 1-1 1 0.449 1 1-0.449 1-1 1z"/><rect id="rect3818" y="52" width="2" x="39" height="11"/><rect id="rect3820" y="52" width="2" x="35" height="11"/><path id="path3822" d="m31 53.586-2 2v-3.586h-2v5.184c-1.161 0.414-2 1.514-2 2.816 0 1.654 1.346 3 3 3s3-1.346 3-3c0-0.977-0.476-1.837-1.201-2.385l3.201-3.201v-2.414h-2v1.586zm-3 7.414c-0.551 0-1-0.449-1-1s0.449-1 1-1 1 0.449 1 1-0.449 1-1 1z"/><polygon id="polygon3824" points="23 54.586 20 57.586 20 63 22 63 22 58.414 25 55.414 25 52 23 52"/><path id="path3826" d="m43 48v2h2v-2h3v-3h2v-2h-2v-2h2v-2h-2v-2h2v-2h-2v-2h2v-2h-2v-2h2v-2h-2v-2h2v-2h-2v-2h2v-2h-2v-3h-3v-2h-2v2h-2v-2h-2v2h-2v-2h-2v2h-2v-2h-2v2h-2v-2h-2v2h-2v-2h-2v2h-2v-2h-2v2h-0.414l-2.586 2.586v0.414h-2v2h2v2h-2v2h2v2h-2v2h2v2h-2v2h2v2h-2v2h2v2h-2v2h2v2h-2v2h2v3h3v2h2v-2h2v2h2v-2h2v2h2v-2h2v2h2v-2h2v2h2v-2h2v2h2v-2h2zm-25-28.586 1.414-1.414h26.586v28h-28v-26.586z"/><path id="path3828" d="m40.861 27.381 1.745-1.745-4.243-4.243-1.745 1.745c-0.521-0.272-1.062-0.497-1.619-0.672v-2.466h-6v2.466c-0.557 0.175-1.098 0.4-1.619 0.672l-1.745-1.745-4.243 4.243 1.745 1.745c-0.272 0.52-0.497 1.061-0.672 1.619h-2.465v6h2.466c0.176 0.558 0.4 1.099 0.672 1.619l-1.745 1.745 4.243 4.243 1.745-1.745c0.52 0.272 1.061 0.497 1.619 0.672v2.466h6v-2.466c0.558-0.176 1.099-0.4 1.619-0.672l1.745 1.745 4.243-4.243-1.745-1.745c0.272-0.521 0.497-1.062 0.672-1.619h2.466v-6h-2.466c-0.176-0.557-0.4-1.098-0.673-1.619zm1.139 5.619h-2.029l-0.177 0.779c-0.198 0.874-0.544 1.706-1.027 2.473l-0.425 0.675 1.437 1.437-1.415 1.415-1.437-1.437-0.676 0.425c-0.766 0.483-1.598 0.828-2.473 1.027l-0.778 0.177v2.029h-2v-2.029l-0.778-0.177c-0.875-0.199-1.707-0.544-2.473-1.027l-0.676-0.425-1.437 1.437-1.415-1.415 1.437-1.437-0.425-0.676c-0.483-0.766-0.828-1.598-1.027-2.473l-0.177-0.778h-2.029v-2h2.029l0.177-0.778c0.199-0.875 0.544-1.707 1.027-2.473l0.425-0.676-1.437-1.437 1.415-1.415 1.437 1.437 0.675-0.425c0.768-0.483 1.6-0.829 2.473-1.027l0.779-0.177v-2.029h2v2.029l0.779 0.177c0.874 0.198 1.706 0.544 2.473 1.027l0.675 0.425 1.437-1.437 1.415 1.415-1.437 1.437 0.425 0.675c0.483 0.768 0.829 1.6 1.027 2.473l0.177 0.779h2.029v2z"/><path id="path3830" d="m32 27c-2.757 0-5 2.243-5 5s2.243 5 5 5 5-2.243 5-5-2.243-5-5-5zm0 8c-1.654 0-3-1.346-3-3s1.346-3 3-3 3 1.346 3 3-1.346 3-3 3z"/></g></svg>
 </g>
</svg>
