<?xml version="1.0" encoding="UTF-8" standalone="no"?>
<svg id="svg3433" xmlns:rdf="http://www.w3.org/1999/02/22-rdf-syntax-ns#" xmlns="http://www.w3.org/2000/svg" height="100" width="100" version="1.1" xmlns:cc="http://creativecommons.org/ns#" xmlns:dc="http://purl.org/dc/elements/1.1/" viewBox="0 0 100 100">
 <metadata id="metadata3473">
  <rdf:RDF>
   <cc:Work rdf:about="">
    <dc:format>image/svg+xml</dc:format>
    <dc:type rdf:resource="http://purl.org/dc/dcmitype/StillImage"/>
    <dc:title/>
   </cc:Work>
  </rdf:RDF>
 </metadata>
 <g id="g3439" fill="#fff" transform="matrix(.69 0 0 .69 15.5 15.5)">
  <svg id="svg3441" xml:space="preserve" height="100%" viewBox="0 0 200 200" width="100%" version="1.1" y="0px" x="0px" enable-background="new 0 0 200 200" fill="#ffffff"><g id="g3443" fill="#fff"><g id="g3445"><path id="path3447" d="m100 153.65c-29.587 0-53.658-24.068-53.658-53.654s24.07-53.658 53.658-53.658c29.586 0 53.654 24.072 53.654 53.658s-24.068 53.654-53.654 53.654zm0-100.36c-25.756 0-46.709 20.954-46.709 46.71 0 25.752 20.954 46.706 46.709 46.706s46.706-20.953 46.706-46.706c0-25.757-20.95-46.71-46.706-46.71z"/><path id="path3449" d="m110.18 200h-20.306l-4.328-21.493c-4.144-0.761-8.255-1.864-12.275-3.3l-14.443 16.45-17.586-10.14 7.015-20.77c-3.23-2.754-6.247-5.77-9.01-9.012l-20.753 7-10.121-17.53 16.406-14.49c-1.429-4.014-2.533-8.115-3.296-12.247l-21.426-4.29-0.038-20.359 21.463-4.319c0.761-4.128 1.864-8.225 3.292-12.233l-16.403-14.518 10.124-17.496 20.75 6.977c2.755-3.23 5.772-6.249 9.008-9.011l-7.011-20.785 17.585-10.114 14.451 16.436c4.02-1.433 8.129-2.537 12.268-3.298l4.323-21.46h20.303l4.321 21.467c4.132 0.763 8.233 1.865 12.25 3.296l14.446-16.442 17.591 10.115-7.012 20.767c3.251 2.766 6.275 5.787 9.038 9.023l20.736-6.971 10.115 17.496-16.37 14.481c1.436 4.023 2.543 8.138 3.312 12.286l21.382 4.301v20.365l-21.382 4.271c-0.769 4.149-1.879 8.266-3.317 12.298l16.376 14.451-10.112 17.537-20.742-6.993c-2.766 3.238-5.793 6.26-9.038 9.02l7.012 20.752-17.555 10.136-14.467-16.454c-4.018 1.433-8.122 2.536-12.259 3.299l-4.3 21.49zm-14.618-6.948h8.928l4.152-20.655 2.407-0.362c5.232-0.793 10.44-2.192 15.474-4.161l2.268-0.887 13.894 15.803 7.693-4.439-6.734-19.935 1.903-1.52c4.201-3.354 8.037-7.181 11.399-11.379l1.52-1.894 19.91 6.716 4.431-7.684-15.728-13.882 0.884-2.262c1.976-5.052 3.381-10.271 4.18-15.516l0.368-2.407 20.528-4.102v-8.976l-20.531-4.128-0.365-2.403c-0.802-5.249-2.204-10.465-4.174-15.501l-0.881-2.26 15.719-13.904-4.431-7.662-19.913 6.693-1.517-1.893c-3.354-4.184-7.189-8.014-11.396-11.38l-1.9-1.52 6.729-19.934-7.718-4.439-13.878 15.796-2.268-0.884c-5.037-1.968-10.242-3.367-15.472-4.16l-2.403-0.365-4.149-20.619h-8.928l-4.152 20.614-2.407 0.363c-5.235 0.792-10.445 2.191-15.484 4.159l-2.266 0.885-13.885-15.789-7.717 4.439 6.729 19.946-1.894 1.52c-4.192 3.362-8.018 7.189-11.371 11.375l-1.519 1.894-19.928-6.703-4.433 7.662 15.75 13.942-0.882 2.259c-1.963 5.022-3.359 10.22-4.152 15.443l-0.365 2.407-20.605 4.146 0.018 8.979 20.587 4.123 0.365 2.406c0.793 5.227 2.192 10.429 4.159 15.462l0.883 2.262-15.759 13.914 4.436 7.684 19.925-6.725 1.52 1.896c3.366 4.201 7.192 8.025 11.373 11.373l1.898 1.52-6.736 19.943 7.716 4.445 13.871-15.803 2.269 0.89c5.037 1.973 10.248 3.372 15.491 4.162l2.408 0.361 4.156 20.651z"/></g><g id="g3451"><polygon id="polygon3453" points="83.104 82.648 88.016 87.561 75.578 100 88.016 112.44 83.104 117.35 65.752 100"/><polygon id="polygon3455" points="124.43 100 111.99 87.564 116.9 82.651 134.25 100 116.9 117.35 111.99 112.44"/><rect id="rect3457" transform="matrix(.9847 .174 -.174 .9847 18.924 -15.874)" height="51.428" width="6.949" y="74.286" x="96.528"/></g><g id="g3459"><rect id="rect3461" height="6.948" width="6.949" y="33.218" x="96.528"/><rect id="rect3463" height="6.948" width="6.949" y="159.83" x="96.528"/><rect id="rect3465" height="6.949" width="6.948" y="96.525" x="33.221"/><rect id="rect3467" height="6.949" width="6.948" y="96.525" x="159.84"/></g></g></svg>
 </g>
</svg>
