<?xml version="1.0" encoding="UTF-8" standalone="no"?>
<svg id="svg3936" xmlns:rdf="http://www.w3.org/1999/02/22-rdf-syntax-ns#" xmlns="http://www.w3.org/2000/svg" height="100" width="100" version="1.1" xmlns:cc="http://creativecommons.org/ns#" xmlns:dc="http://purl.org/dc/elements/1.1/" viewBox="0 0 100 100">
 <metadata id="metadata3980">
  <rdf:RDF>
   <cc:Work rdf:about="">
    <dc:format>image/svg+xml</dc:format>
    <dc:type rdf:resource="http://purl.org/dc/dcmitype/StillImage"/>
    <dc:title/>
   </cc:Work>
  </rdf:RDF>
 </metadata>
 <g id="g3938">
  <g id="g3942" fill="#fff" transform="translate(50 50) scale(.69) translate(-50 -50)">
   <svg id="svg3944" xml:space="preserve" version="1.1" y="0px" x="0px" enable-background="new 0 0 200 200" viewBox="0 0 200 200" fill="#ffffff"><g id="g3946" fill="#fff"><rect id="rect3948" height="6.406" width="76.607" y="43.193" x="53.903"/><rect id="rect3950" height="6.406" width="86.492" y="117.9" x="53.903"/><g id="g3952"><rect id="rect3954" height="6.407" width="61.02" y="80.549" x="69.49"/><rect id="rect3956" height="6.406" width="32.511" y="66.413" x="83.746"/><rect id="rect3958" height="6.407" width="61.02" y="94.683" x="69.49"/></g><g id="g3960"><path id="path3962" d="m130.51 151.96v-6.406c3.31 0 6.42-1.29 8.76-3.628 2.339-2.339 3.627-5.45 3.627-8.759 0-3.31-1.288-6.418-3.627-8.759-2.34-2.342-5.45-3.629-8.76-3.629h-3.203v-120.77h3.203c5.019 0 9.738 1.957 13.289 5.507 3.55 3.545 5.505 8.265 5.505 13.287h-6.407c0-3.31-1.287-6.42-3.625-8.756-1.567-1.565-3.477-2.661-5.559-3.216v107.82c3.804 0.647 7.306 2.452 10.088 5.238 3.548 3.548 5.503 8.267 5.503 13.286s-1.955 9.74-5.505 13.288c-3.53 3.54-8.25 5.5-13.27 5.5z"/><rect id="rect3964" height="114.37" width="6.407" y="18.793" x="142.9"/></g><path id="path3966" d="m41.515 164.3h-6.406v-129.92c0-5.02 1.955-9.74 5.504-13.29 3.549-3.549 8.269-5.504 13.29-5.504h76.607v6.406h-76.607c-3.311 0-6.42 1.289-8.76 3.627-2.338 2.34-3.627 5.45-3.627 8.76v129.92z"/><rect id="rect3968" height="129.92" width="6.406" y="18.793" x="50.7"/><path id="path3970" d="m53.896 183.09c-5.013 0-9.73-1.957-13.284-5.508-3.552-3.554-5.508-8.272-5.508-13.285 0-2.428 0.461-4.808 1.371-7.074 0.971-2.357 2.358-4.443 4.136-6.223 3.563-3.545 8.279-5.494 13.285-5.494h107.8v6.406h-107.8c-3.3 0-6.412 1.287-8.76 3.623-1.171 1.17-2.09 2.553-2.727 4.101-0.585 1.457-0.899 3.076-0.899 4.661 0 3.303 1.29 6.411 3.633 8.756 2.341 2.341 5.451 3.631 8.753 3.631v6.39z"/><polygon id="polygon3972" points="164.9 183.09 71.976 183.09 71.976 176.69 158.49 176.69 158.49 29.795 146.1 29.795 146.1 23.388 164.9 23.388"/><path id="path3974" d="m50.7 200v-38.903h24.485v38.897l-12.259-4.532-12.226 4.53zm12.22-11.37l5.859 2.166v-23.292h-11.673v23.284l5.814-2.16z"/></g></svg>
  </g>
 </g>
</svg>
