<?xml version="1.0" encoding="UTF-8" standalone="no"?>
<svg id="svg3408" xmlns:rdf="http://www.w3.org/1999/02/22-rdf-syntax-ns#" xmlns="http://www.w3.org/2000/svg" version="1.1" xmlns:cc="http://creativecommons.org/ns#" xmlns:dc="http://purl.org/dc/elements/1.1/" viewBox="0 0 100 100">
 <metadata id="metadata3440">
  <rdf:RDF>
   <cc:Work rdf:about="">
    <dc:format>image/svg+xml</dc:format>
    <dc:type rdf:resource="http://purl.org/dc/dcmitype/StillImage"/>
    <dc:title/>
   </cc:Work>
  </rdf:RDF>
 </metadata>
 <g id="g3414" fill="#fff" transform="matrix(.69 0 0 .69 15.5 15.5)">
  <svg id="svg3416" xml:space="preserve" height="100%" viewBox="0 0 64 64" width="100%" version="1.1" y="0px" x="0px" fill="#ffffff"><g id="g3418"><path id="path3420" d="m61 1v4h-6v-4h-2v4 1 1h2v10.612l-6.536-2.179 0.536-1.224v-2.99l-3.823-0.956c-1.993-5.564-7.219-9.263-13.177-9.263s-11.184 3.699-13.177 9.264l-3.823 0.955v2.99l0.536 1.225-6.536 2.178v-10.612h2v-1-1-4h-2v4h-6v-4h-2v4 1 1h2v15c0 2.206 1.794 4 4 4 1.524 0 2.835-0.866 3.511-2.123l7.49-2.809 3.999 9.141v9.791 1 16h-6v6h14v-5-1-16h4v16 1 5h14v-6h-6v-16-1-8h1c0.551 0 1 0.449 1 1v17c0 1.654 1.346 3 3 3h1v2h15v-20h-15v16h-1c-0.551 0-1-0.448-1-1v-17c0-1.654-1.346-3-3-3h-0.909l3.908-8.932 7.49 2.809c0.676 1.257 1.987 2.123 3.511 2.123 2.206 0 4-1.794 4-4v-15h2v-1-1-4h-2zm-11 52v-10h11v10h-11zm11-16v4h-11v-4h11zm-54-30v11c-0.732 0-1.409 0.212-2 0.556v-11.556h2zm0 17c-1.103 0-2-0.897-2-2s0.897-2 2-2 2 0.897 2 2-0.897 2-2 2zm3.957-2.427c-0.09-0.834-0.43-1.586-0.954-2.187l6.338-2.112 0.857 1.959-6.241 2.34zm6.043-7.782v-1.01l3.383-0.845 0.168-0.535c1.578-5.025 6.179-8.401 11.449-8.401s9.871 3.376 11.449 8.401l0.168 0.535 3.383 0.845v1.01l-7 16v9.209h-16v-9.209l-7-16zm11 47.209h-10v-2h10v2zm-4-4v-4.556c0.591 0.344 1.268 0.556 2 0.556s1.409-0.212 2-0.556v4.556h-4zm0-8c0-1.103 0.897-2 2-2s2 0.897 2 2-0.897 2-2 2-2-0.897-2-2zm4-3.444c-0.591-0.344-1.268-0.556-2-0.556s-1.409 0.212-2 0.556v-4.556h4v4.556zm18 15.444h-10v-2h10v2zm-10-4v-4.556c0.591 0.344 1.268 0.556 2 0.556s1.409-0.212 2-0.556v4.556h-4zm0-8c0-1.103 0.897-2 2-2s2 0.897 2 2-0.897 2-2 2-2-0.897-2-2zm4-3.444c-0.591-0.344-1.268-0.556-2-0.556s-1.409 0.212-2 0.556v-4.556h4v4.556zm7.659-28.282 6.338 2.112c-0.523 0.601-0.863 1.353-0.954 2.187l-6.241-2.34 0.857-1.959zm9.341 6.726c-1.103 0-2-0.897-2-2s0.897-2 2-2 2 0.897 2 2-0.897 2-2 2zm2-5.444c-0.591-0.344-1.268-0.556-2-0.556v-11h2v11.556z"/><path id="path3422" d="m32 25c5.514 0 10-4.486 10-10s-4.486-10-10-10-10 4.486-10 10 4.486 10 10 10zm0-18c4.411 0 8 3.589 8 8s-3.589 8-8 8-8-3.589-8-8 3.589-8 8-8z"/><path id="path3424" d="m32 11v-2c-3.309 0-6 2.691-6 6h2c0-2.206 1.794-4 4-4z"/><rect id="rect3426" y="45" width="2" x="52" height="2"/><rect id="rect3428" y="45" width="2" x="57" height="2"/><rect id="rect3430" y="49" width="2" x="52" height="2"/><rect id="rect3432" y="49" width="2" x="57" height="2"/><path id="path3434" d="m26 37h12v-8h-12v8zm2-6h8v4h-8v-4z"/></g></svg>
 </g>
</svg>
