<?xml version="1.0" encoding="UTF-8" standalone="no"?>
<svg
   xmlns:dc="http://purl.org/dc/elements/1.1/"
   xmlns:cc="http://creativecommons.org/ns#"
   xmlns:rdf="http://www.w3.org/1999/02/22-rdf-syntax-ns#"
   xmlns:svg="http://www.w3.org/2000/svg"
   xmlns="http://www.w3.org/2000/svg"
   xmlns:sodipodi="http://sodipodi.sourceforge.net/DTD/sodipodi-0.dtd"
   xmlns:inkscape="http://www.inkscape.org/namespaces/inkscape"
   version="1.1"
   id="Layer_1"
   x="0px"
   y="0px"
   width="650"
   height="572"
   viewBox="5 -10 650 772.2"
   enable-background="new 0 0 100 100"
   xml:space="preserve"
   inkscape:version="0.91 r13725"
   sodipodi:docname="code-it.svg"
   inkscape:export-filename="/home/jtebert/Copy/Projects/Programming/html/bootstrap-practice/assets/imgs/programming/code-it.png"
   inkscape:export-xdpi="90"
   inkscape:export-ydpi="90"><metadata
     id="metadata21"><rdf:RDF><cc:Work
         rdf:about=""><dc:format>image/svg+xml</dc:format><dc:type
           rdf:resource="http://purl.org/dc/dcmitype/StillImage" /><dc:title></dc:title></cc:Work></rdf:RDF></metadata><defs
     id="defs19" /><sodipodi:namedview
     pagecolor="#ffffff"
     bordercolor="#666666"
     borderopacity="1"
     objecttolerance="10"
     gridtolerance="10"
     guidetolerance="10"
     inkscape:pageopacity="0"
     inkscape:pageshadow="2"
     inkscape:window-width="1286"
     inkscape:window-height="816"
     id="namedview17"
     showgrid="false"
     inkscape:zoom="0.834386"
     inkscape:cx="259.7514"
     inkscape:cy="197.42729"
     inkscape:window-x="0"
     inkscape:window-y="0"
     inkscape:window-maximized="0"
     inkscape:current-layer="Layer_1"
     fit-margin-top="0"
     fit-margin-left="0"
     fit-margin-right="0"
     fit-margin-bottom="0" /><g
     id="g4149"
     transform="matrix(8.7750003,0,0,8.7750003,-108.75001,-62.650002)"><g
       id="g3"><path
         id="path5"
         d="m 41.751,59.098 0,6.119 L 20,55.789 l 0,-5.232 21.751,-9.427 0,6.162 -15.156,5.839 15.156,5.967 z"
         inkscape:connector-curvature="0" /><path
         id="path7"
         d="m 55.2,41 -6.055,24.93 c -0.201,0.821 -0.377,1.471 -0.529,1.946 -0.151,0.476 -0.382,0.849 -0.691,1.112 -0.31,0.268 -0.761,0.4 -1.352,0.4 -1.47,0 -2.206,-0.636 -2.206,-1.902 0,-0.332 0.145,-1.16 0.433,-2.486 l 6.033,-24.93 c 0.317,-1.326 0.619,-2.234 0.907,-2.724 0.289,-0.49 0.851,-0.735 1.688,-0.735 0.721,0 1.271,0.173 1.653,0.519 0.382,0.346 0.573,0.822 0.573,1.427 0,0.447 -0.152,1.261 -0.454,2.443 z"
         inkscape:connector-curvature="0" /><path
         id="path9"
         d="m 80,55.789 -21.751,9.471 0,-6.119 15.2,-5.967 -15.2,-5.882 0,-6.076 L 80,50.6 l 0,5.189 z"
         inkscape:connector-curvature="0" /></g><path
       id="path11"
       d="M 94,6 6,6 C 2.687,6 0,8.687 0,12 l 0,76 c 0,3.313 2.687,6 6,6 l 88,0 c 3.314,0 6,-2.688 6,-6 l 0,-76 C 100,8.686 97.314,6 94,6 Z m -15,4 c 2.205,0 4,1.794 4,4 0,2.206 -1.795,4 -4,4 -2.205,0 -4,-1.794 -4,-4 0,-2.206 1.795,-4 4,-4 z m -11,0 c 2.205,0 4,1.794 4,4 0,2.206 -1.795,4 -4,4 -2.205,0 -4,-1.794 -4,-4 0,-2.206 1.795,-4 4,-4 z M 94,88 6,88 6,22 94,22 94,88 Z M 90,18 c -2.205,0 -4,-1.794 -4,-4 0,-2.206 1.795,-4 4,-4 2.205,0 4,1.794 4,4 0,2.206 -1.795,4 -4,4 z"
       inkscape:connector-curvature="0" /></g></svg>