<?xml version="1.0" encoding="UTF-8" standalone="no"?>
<svg
   xmlns:dc="http://purl.org/dc/elements/1.1/"
   xmlns:cc="http://creativecommons.org/ns#"
   xmlns:rdf="http://www.w3.org/1999/02/22-rdf-syntax-ns#"
   xmlns:svg="http://www.w3.org/2000/svg"
   xmlns="http://www.w3.org/2000/svg"
   xmlns:sodipodi="http://sodipodi.sourceforge.net/DTD/sodipodi-0.dtd"
   xmlns:inkscape="http://www.inkscape.org/namespaces/inkscape"
   version="1.1"
   x="0px"
   y="0px"
   viewBox="0 0 128 128"
   xml:space="preserve"
   id="svg2"
   inkscape:version="0.91 r13725"
   sodipodi:docname="lazy-baker.svg"
   width="128"
   height="128"
   inkscape:export-filename="/home/jtebert/google-drive/Projects/Programming/html/juliaebert.com/assets/imgs/programming/lazy-baker.png"
   inkscape:export-xdpi="281.25"
   inkscape:export-ydpi="281.25"><metadata
     id="metadata16"><rdf:RDF><cc:Work
         rdf:about=""><dc:format>image/svg+xml</dc:format><dc:type
           rdf:resource="http://purl.org/dc/dcmitype/StillImage" /><dc:title></dc:title></cc:Work></rdf:RDF></metadata><defs
     id="defs14" /><sodipodi:namedview
     pagecolor="#ffffff"
     bordercolor="#666666"
     borderopacity="1"
     objecttolerance="10"
     gridtolerance="10"
     guidetolerance="10"
     inkscape:pageopacity="0"
     inkscape:pageshadow="2"
     inkscape:window-width="930"
     inkscape:window-height="1023"
     id="namedview12"
     showgrid="false"
     inkscape:zoom="1.888"
     inkscape:cx="59.004237"
     inkscape:cy="56.144068"
     inkscape:window-x="61"
     inkscape:window-y="27"
     inkscape:window-maximized="0"
     inkscape:current-layer="svg2" /><path
     d="m 22.736313,101.63291 c 0.0077,0.0299 0.0022,0.0608 0.01327,0.0907 l 1.899177,5.27721 c 0.28095,0.77759 1.253214,1.17247 2.890245,1.17247 l 72.784832,0 c 1.63703,0 2.60929,-0.39377 2.89024,-1.17247 l 1.89918,-5.27611 c 0.0111,-0.0299 0.006,-0.0608 0.0133,-0.0907 1.74211,-0.39819 3.04842,-1.953373 3.04842,-3.813836 l 0,-2.238751 c 0,-2.161323 -1.7576,-3.918919 -3.91892,-3.918919 l -4.00077,0 3.14465,-19.353466 c 2.93006,-1.679063 4.9133,-4.831453 4.9133,-8.443982 l 0,-9.834353 c 0,-0.610568 -0.49553,-1.106102 -1.1061,-1.106102 l -26.054234,0 c 1.832811,-1.617121 2.997537,-3.976437 2.997537,-6.606747 0,-4.437681 -3.295078,-8.121001 -7.56795,-8.730463 0.696844,-1.133754 1.074025,-2.447804 1.074025,-3.8249 0,-3.562755 -2.581642,-6.227355 -7.082371,-7.310228 -5.208634,-1.25432 -5.446446,-5.09913 -5.456401,-5.533828 -0.01327,-0.600614 -0.505489,-1.091723 -1.106102,-1.091723 -4.085941,0 -7.409777,3.323836 -7.409777,7.409777 0,0.503276 0.05088,0.99881 0.151536,1.485495 -4.016256,0.186931 -7.22727,3.514086 -7.22727,7.576798 0,1.152559 0.264358,2.280783 0.760998,3.302821 -3.584877,0.722284 -6.29372,3.895691 -6.29372,7.691833 0,2.209992 0.922489,4.2054 2.396923,5.632271 l -25.453619,0 c -0.610568,0 -1.106102,0.495534 -1.106102,1.106102 l 0,9.834353 c 0,0.06858 0.0066,0.13605 0.0188,0.20131 0.06858,3.391309 1.88701,6.354556 4.580368,8.043574 l 3.176725,19.552564 -4.000771,0 c -2.161323,0 -3.918919,1.757596 -3.918919,3.918919 l 0,2.238751 c 0.0011,1.859357 1.307412,3.41454 3.049523,3.81163 z m 77.587527,4.32707 -72.784832,0 c -0.420319,0 -0.743301,-0.0431 -0.944611,-0.0852 l -1.488814,-4.13793 77.650567,0 -1.48881,4.13793 c -0.2002,0.0431 -0.52319,0.0852 -0.9435,0.0852 z M 46.206691,47.29233 c 0,-3.105935 2.526337,-5.633378 5.632271,-5.633378 0.08185,0 0.161491,0.0066 0.345104,0.0188 0.445759,0.03318 0.866078,-0.21569 1.061858,-0.617205 0.196886,-0.401515 0.132732,-0.881563 -0.162597,-1.217818 -0.867184,-0.984431 -1.34502,-2.243175 -1.34502,-3.545057 0,-3.287335 2.921215,-5.929812 6.376677,-5.276106 0.408152,0.07743 0.827365,-0.08075 1.081768,-0.410364 0.254404,-0.329618 0.301966,-0.775377 0.123884,-1.151452 -0.336255,-0.706799 -0.506595,-1.45563 -0.506595,-2.225477 0,-2.53961 1.831705,-4.660008 4.243007,-5.110191 0.395985,1.835023 1.829493,5.230756 6.999413,6.476227 2.012,0.484472 5.387823,1.798521 5.387823,5.159965 0,1.60606 -0.736664,3.090449 -2.021954,4.072668 -0.402622,0.307496 -0.544203,0.850592 -0.343998,1.316261 0.200204,0.465669 0.690208,0.728921 1.192378,0.654812 0.390454,-0.06305 0.736664,-0.09402 1.059645,-0.09402 3.642394,0 6.606748,2.964353 6.606748,6.606747 0,3.642394 -2.964354,6.606747 -6.606748,6.606747 l -23.491393,0 c -3.105934,0.0011 -5.632271,-2.525231 -5.632271,-5.631165 z M 22.059379,63.865056 c 0,-0.06526 -0.0055,-0.128308 -0.01659,-0.189144 l 0,-8.538001 84.059323,0 0,8.728251 c 0,4.146776 -3.3725,7.519281 -7.519279,7.519281 -4.146776,0 -7.519281,-3.372505 -7.519281,-7.519281 0,-0.610569 -0.495534,-1.106102 -1.106102,-1.106102 -0.610568,0 -1.106102,0.495533 -1.106102,1.106102 0,4.146776 -3.372505,7.519281 -7.519281,7.519281 -4.146777,0 -7.519281,-3.372505 -7.519281,-7.519281 0,-0.610569 -0.495534,-1.106102 -1.106102,-1.106102 -0.610569,0 -1.106102,0.495533 -1.106102,1.106102 0,4.146776 -3.372505,7.519281 -7.519282,7.519281 -4.146776,0 -7.519281,-3.372505 -7.519281,-7.519281 0,-0.610569 -0.495533,-1.106102 -1.106102,-1.106102 -0.610568,0 -1.106102,0.495533 -1.106102,1.106102 0,4.146776 -3.372505,7.519281 -7.519281,7.519281 -4.146776,0 -7.519281,-3.372505 -7.519281,-7.519281 0,-0.610569 -0.495534,-1.106102 -1.106102,-1.106102 -0.610568,0 -1.106102,0.495533 -1.106102,1.106102 0,4.146776 -3.373611,7.519281 -7.519281,7.519281 -4.14567,0 -7.520387,-3.374717 -7.520387,-7.520387 z m 4.788315,9.3355 c 0.867184,0.254404 1.78193,0.395985 2.72986,0.395985 3.741943,0 6.998307,-2.12261 8.625383,-5.228544 1.628182,3.104828 4.88344,5.228544 8.625383,5.228544 3.741943,0 6.997201,-2.12261 8.625383,-5.228544 1.628182,3.104828 4.88344,5.228544 8.625383,5.228544 3.741943,0 6.997201,-2.12261 8.625383,-5.228544 1.628183,3.104828 4.883441,5.228544 8.625384,5.228544 3.741943,0 6.997201,-2.12261 8.625383,-5.228544 1.628182,3.104828 4.88344,5.228544 8.625383,5.228544 0.836213,0 1.643671,-0.117247 2.419041,-0.316346 l -2.987578,18.382309 -68.163533,0 -3.000855,-18.461948 z M 21.9001,95.580317 c 0,-0.941293 0.765423,-1.706715 1.706715,-1.706715 l 80.650315,0 c 0.9413,0 1.70672,0.765422 1.70672,1.706715 l 0,2.238751 c 0,0.941292 -0.76542,1.706715 -1.70672,1.706715 l -80.651421,0 c -0.941293,0 -1.706715,-0.765423 -1.706715,-1.706715 l 0,-2.238751 z"
     id="path4"
     inkscape:connector-curvature="0"
     style="fill:#f56a6a;fill-opacity:1" /><path
     d="m 54.599,47.654 c -3.814,-0.964 -5.036,-3.093 -5.086,-3.183 -0.176,-0.317 -0.514,-0.519 -0.876,-0.519 -0.552,0 -1,0.448 -1,1 0,0.185 0.05,0.358 0.138,0.506 0.299,0.53 1.911,3.016 6.334,4.134 0.996,0.252 2.183,0.798 2.183,1.968 0,0.552 0.448,1 1,1 0.552,0 1,-0.448 1,-1 -0.001,-1.888 -1.347,-3.311 -3.693,-3.906 z"
     id="path6"
     inkscape:connector-curvature="0"
     style="fill:#f56a6a;fill-opacity:1" /><text
     x="0"
     y="143"
     font-size="5px"
     font-weight="bold"
     id="text8"
     style="font-weight:bold;font-size:5px;font-family:'Helvetica Neue', Helvetica, Arial-Unicode, Arial, Sans-serif;fill:#f56a6a;fill-opacity:1">Created by Made by Made</text>
<text
     x="0"
     y="148"
     font-size="5px"
     font-weight="bold"
     id="text10"
     style="font-weight:bold;font-size:5px;font-family:'Helvetica Neue', Helvetica, Arial-Unicode, Arial, Sans-serif;fill:#f56a6a;fill-opacity:1">from the Noun Project</text>
</svg>