<?xml version="1.0" encoding="UTF-8" standalone="no"?>
<svg id="svg3615" xmlns:rdf="http://www.w3.org/1999/02/22-rdf-syntax-ns#" xmlns="http://www.w3.org/2000/svg" height="100" width="100" version="1.1" xmlns:cc="http://creativecommons.org/ns#" xmlns:dc="http://purl.org/dc/elements/1.1/" viewBox="0 0 100 100">
 <metadata id="metadata3681">
  <rdf:RDF>
   <cc:Work rdf:about="">
    <dc:format>image/svg+xml</dc:format>
    <dc:type rdf:resource="http://purl.org/dc/dcmitype/StillImage"/>
    <dc:title/>
   </cc:Work>
  </rdf:RDF>
 </metadata>
 <g id="g3617">
  <g id="g3621" fill="#fff" transform="translate(50 50) scale(.69) translate(-50 -50)">
   <svg id="svg3623" xml:space="preserve" version="1.1" y="0px" x="0px" enable-background="new 85 81.292 30 37.415" viewBox="85 81.292 30 37.415" fill="#ffffff"><path id="path3625" d="m115 94.741c0-7.416-6.033-13.449-13.448-13.449-7.417 0-13.451 6.034-13.45 13.446l-0.008 1.442-3.092 9.05h3.636l0.65 8.177 6.47-0.595 0.724 5.871 1.215-0.15-0.869-7.049-6.417 0.591-0.641-8.068h-3.055l2.605-7.621 0.008-1.645c0-6.741 5.485-12.226 12.227-12.226 6.741 0 12.225 5.484 12.225 12.226 0 1.354-0.221 2.687-0.663 3.979l-2.901 9.527 1.727 10.46 1.207-0.199-1.68-10.178 2.813-9.234c0.47-1.399 0.71-2.865 0.71-4.355z"/></svg>
  </g>
 </g>
</svg>
