<?xml version="1.0" encoding="UTF-8" standalone="no"?>
<svg id="svg3805" xmlns:rdf="http://www.w3.org/1999/02/22-rdf-syntax-ns#" xmlns="http://www.w3.org/2000/svg" height="100" width="100" version="1.1" xmlns:cc="http://creativecommons.org/ns#" xmlns:dc="http://purl.org/dc/elements/1.1/" viewBox="0 0 100 100">
 <metadata id="metadata3831">
  <rdf:RDF>
   <cc:Work rdf:about="">
    <dc:format>image/svg+xml</dc:format>
    <dc:type rdf:resource="http://purl.org/dc/dcmitype/StillImage"/>
    <dc:title/>
   </cc:Work>
  </rdf:RDF>
 </metadata>
 <g id="g3807">
  <g id="g3811" fill="#fff" transform="translate(50 50) scale(.69) translate(-50 -50)">
   <svg id="svg3813" style="enable-background:new 0 0 64 64" xml:space="preserve" version="1.1" y="0px" x="0px" viewBox="0 0 64 64" fill="#ffffff"><g id="g3815"><path id="path3817" d="m58.23 20.714c0.493-1.485 0.77-3.066 0.77-4.714 0-8.271-6.729-15-15-15-4.534 0-8.596 2.03-11.348 5.22l-0.652-0.369-31 17.566v39.583h62v-39.583l-4.77-2.703zm-34.546 21.17l-20.684 17.926v-33.783l20.684 15.857zm1.621 1.243l6.695 5.133 6.695-5.133 20.624 17.873h-54.638l20.624-17.873zm15.011-1.243l20.684-15.857v33.783l-20.684-17.926zm3.684-38.884c7.168 0 13 5.832 13 13s-5.832 13-13 13c-2.316 0-4.604-0.631-6.614-1.824l-0.371-0.22-5.559 1.588 1.588-5.559-0.22-0.371c-1.193-2.01-1.824-4.298-1.824-6.614 0-7.168 5.832-13 13-13zm-13.113 20.256l-2.343 8.2 8.199-2.343c2.227 1.236 4.726 1.887 7.257 1.887 5.91 0 11.018-3.444 13.461-8.423l2.733 1.548-28.194 21.615-28.193-21.615 27.037-15.321c-1.174 2.138-1.844 4.59-1.844 7.196 0 2.53 0.651 5.03 1.887 7.256z"/><path id="path3819" d="m41.645 26.751c0.783 0.166 1.57 0.248 2.352 0.248 1.514 0 3.007-0.31 4.404-0.921l-0.801-1.832c-1.736 0.758-3.651 0.949-5.541 0.548-3.572-0.756-6.36-3.689-6.938-7.299-0.448-2.801 0.387-5.581 2.292-7.627 1.904-2.045 4.598-3.079 7.403-2.833 4.085 0.358 7.484 3.558 8.084 7.608 0.146 0.992 0.133 1.983-0.042 2.946-0.253 1.397-1.492 2.411-2.948 2.411-0.502 0-0.91-0.408-0.91-0.91v-4.09c0-2.757-2.243-5-5-5s-5 2.243-5 5v2c0 2.757 2.243 5 5 5h3v-2h-3c-1.654 0-3-1.346-3-3v-2c0-1.654 1.346-3 3-3s3 1.346 3 3v4.09c0 1.604 1.306 2.91 2.91 2.91 2.425 0 4.492-1.705 4.916-4.054 0.213-1.177 0.23-2.387 0.052-3.595-0.733-4.955-4.892-8.869-9.887-9.308-3.426-0.302-6.715 0.962-9.043 3.461-2.328 2.5-3.35 5.893-2.803 9.307 0.709 4.42 4.124 8.013 8.5 8.94z"/><rect id="rect3821" y="51" x="31" height="2" width="2"/><rect id="rect3823" y="51" x="35" height="2" width="2"/><rect id="rect3825" y="51" x="27" height="2" width="2"/></g></svg>
  </g>
 </g>
</svg>
