<?xml version="1.0" encoding="UTF-8" standalone="no"?>
<svg id="svg3629" xmlns:rdf="http://www.w3.org/1999/02/22-rdf-syntax-ns#" xmlns="http://www.w3.org/2000/svg" height="100" width="100" version="1.1" xmlns:cc="http://creativecommons.org/ns#" xmlns:dc="http://purl.org/dc/elements/1.1/" viewBox="0 0 100 100">
 <metadata id="metadata3645">
  <rdf:RDF>
   <cc:Work rdf:about="">
    <dc:format>image/svg+xml</dc:format>
    <dc:type rdf:resource="http://purl.org/dc/dcmitype/StillImage"/>
    <dc:title/>
   </cc:Work>
  </rdf:RDF>
 </metadata>
 <g id="g3635" fill="#fff" transform="matrix(.69 0 0 .69 15.5 15.5)">
  <svg id="svg3637" xml:space="preserve" height="100%" viewBox="0 0 64 64" width="100%" version="1.1" y="0px" x="0px" enable-background="new 0 0 64 64" fill="#ffffff"><path id="path3639" d="m17 17h40v-6h-40v6zm2-4h36v2h-36v-2zm-2 6h40v2h-40v-2zm0 20h12v2h-12v-2zm0-4h12v2h-12v-2zm0-4h12v2h-12v-2zm0-4h12v2h-12v-2zm0-4h12v2h-12v-2zm0 20h12v2h-12v-2zm14-4h12v2h-12v-2zm0 4h12v2h-12v-2zm0 4h12v2h-12v-2zm0 4h12v2h-12v-2zm0 4h12v2h-12v-2zm14-16h12v2h-12v-2zm0 4h12v2h-12v-2zm0 4h12v2h-12v-2zm0 4h12v2h-12v-2zm0 4h6v2h-6v-2zm-14-18h26v-14h-26v14zm2-12h22v10h-22v-10zm6 4h2v2h-2v-2zm4 0h2v2h-2v-2zm4 0h2v2h-2v-2zm-30 28h12v-10h-12v10zm2-8h8v6h-8v-6zm3 2h2v2h-2v-2zm39.707-45.707-4-4c-0.391-0.391-1.023-0.391-1.414 0l-3.293 3.293-3.293-3.293c-0.391-0.391-1.023-0.391-1.414 0l-3.293 3.293-3.293-3.293c-0.391-0.391-1.023-0.391-1.414 0l-3.293 3.293-3.293-3.293c-0.391-0.391-1.023-0.391-1.414 0l-3.293 3.293-3.293-3.293c-0.391-0.391-1.023-0.391-1.414 0l-3.293 3.293-3.293-3.293c-0.391-0.391-1.023-0.391-1.414 0l-4 4c-0.188 0.187-0.293 0.442-0.293 0.707v2 49c0 1.07-0.416 2.074-1.172 2.828-0.755 0.756-1.759 1.172-2.828 1.172s-2.073-0.416-2.829-1.173c-0.755-0.753-1.171-1.757-1.171-2.827v-50h5v-2h-7v52c0 1.605 0.625 3.111 1.757 4.242 1.132 1.134 2.639 1.758 4.243 1.758h47c1.869 0 3.627-0.729 4.949-2.051s2.051-3.08 2.051-4.949v-48-2c0-0.265-0.105-0.52-0.293-0.707zm-1.707 2.707v48c0 1.335-0.521 2.591-1.465 3.535s-2.2 1.465-3.535 1.465h-42.528c0.988-1.1 1.528-2.508 1.528-4v-49-1.586l3-3 3.293 3.293c0.391 0.391 1.023 0.391 1.414 0l3.293-3.293 3.293 3.293c0.391 0.391 1.023 0.391 1.414 0l3.293-3.293 3.293 3.293c0.391 0.391 1.023 0.391 1.414 0l3.293-3.293 3.293 3.293c0.391 0.391 1.023 0.391 1.414 0l3.293-3.293 3.293 3.293c0.391 0.391 1.023 0.391 1.414 0l3.293-3.293 3 3v1.586zm-53 49v-46h2v46h-2z"/></svg>
 </g>
</svg>
